<?xml version="1.0" encoding="UTF-8" standalone="no"?>
<svg xmlns="http://www.w3.org/2000/svg" width="128" height="128" baseProfile="tiny" version="1.1" xmlns:xlink="http://www.w3.org/1999/xlink" viewBox="0 0 128 128">
 <g id="layer1">
  <g id="g2557" transform="matrix(0.259159,0,0,0.259159,-25.627068,-46.269462)">
   <g id="g2521" transform="translate(-1.282583,24.39476)">
    <path id="path2535" fill="#f8e8d3" d="M148.1,590.3c-7.2-2.2-15.7-7.1-18.9-10.9-4.8-5.9-4.2-8,4.2-14.8,5.4-4.4,13.2-8,17.3-8,7.9,0,14.1-13.2,12.9-27.4-0.8-8.7-24.4-45.3-31-48-2.1-0.9-10.3-7.2-18.2-14.2-14.93-13.1-19.05-30.6-9.4-40.3,2.7-2.7,5.4-10.2,6.1-16.7,0.7-6.4,5.9-15.7,11.5-20.6,5.7-4.9,11.6-13,13.2-18,3.8-12.1,24.7-22.6,38.2-19.2,13.1,3.3,31.7,24.7,31.7,36.5,0,4.9,1.3,7.5,3,5.8s3.2-18.8,3.4-38c0.4-43.5,13.9-74.7,42.2-97.9,10.1-8.3,19-19.2,19.7-24.3,0.8-5.7,4.8-9.7,10.5-10.5,5.8-0.8,10.8-6,13.6-14.1,3.1-8.8,6.8-12.2,12-11.2,6,1.3,7.2,5.2,6.3,19.4-1.4,23.1,5,22.6,15.5-1.3,9-20.3,19-27.4,27.1-19.3,3.8,3.8,3.3,7.9-2.4,17.8-4,7-7.3,14.3-7.3,16.1,0,1.9,8.5,5.8,19,8.7,25.8,7.2,55.3,26.5,65,42.6,4.5,7.3,12.5,15.5,18,18.2,14.6,7.3,22.1,25.5,16.8,40.8-5.4,15.3,1,16.5,21.5,4,19.3-11.8,31.6-10.6,45.5,4.2,6.5,7,15.7,12.7,20.4,12.7,9.4,0,21.8,14.6,21.8,25.6,0,3.8,3.8,10.3,8.5,14.5,19.5,17.7,2.1,56.9-50.1,112.7-14.3,15.3-26,30.4-26,33.7,0,3.4,6.7,8.5,14.8,11.4,17.4,6.3,19.8,18.6,5.3,26.8-13.5,7.7-107.4,7.4-121-0.3-13.5-7.7-132-7.9-150.3-0.3-15.9,6.6-92.7,9.2-110.4,3.8zm140.9-247.9c-5.7-7.4-11.5-2.5-11.5,9.7,0,9.8,0.3,10,7.7,2.9,5.3-5,6.5-9.1,3.8-12.6zm83.4-16.6c-5.6-8.7-8-9.8-10.9-5.2-5.4,8.6-4.6,12.2,2.8,12.2,3.9,0,5.3,2,3.6,4.9-1.9,3-1.2,3.7,1.8,1.8,2.7-1.6,5-0.5,5.2,2.6,0.3,4.4,0.8,4.4,2.5,0.1,1.2-3-1-10.4-5-16.4zm-101.8-22.6c15.8-15.1-5.2-23.5-22.9-9.1-12.5,10.1-8.7,23.8,5.5,19.6,5.2-1.6,13-6.3,17.4-10.5z"/>
    <path id="path2533" fill="#eed6b5" d="M151.3,590.7c-7.8-2-17.1-6.6-20.7-10.2-8.8-8.7-0.9-18.5,17.8-22,7.5-1.4,13.9-4.7,14.2-7.5,0.3-2.7,1.4-9.9,2.4-16.1,2.1-13-26.2-56.4-39.6-60.6-20.1-6.4-32.23-37.6-19-48.6,3.5-2.9,6.3-10.3,6.3-16.4,0-6.8,4.6-15.6,11.7-22.2,6.3-6,15-15.9,19.2-22,6-8.9,10.9-11.2,23.9-11.2,18.5,0,32.6,13.5,36.9,35.1,4.3,21.3,9.5,3.1,9.2-32.4-0.1-29.1,1.5-36.7,13.3-60.5,9-18.4,18.7-31.1,29.6-38.6,10-7,16.7-15.3,17.5-21.8,0.9-7.3,4-10.6,9.8-10.6,5.1,0,10.9-4.9,14.8-12.7,9.7-19.5,19.3-16.6,17.6,5.3-1.7,23.4,4.6,22.8,16.3-1.4,10.1-20.7,18.6-26.9,26.4-19.2,3.6,3.7,3,7.9-2.4,17.1-4,6.7-7.2,14.1-7.2,16.4,0,2.2,9.8,7.3,21.9,11.3,27.3,8.9,54.5,27.3,62.5,42.2,3.3,6.3,11.3,14.1,17.8,17.5,12.8,6.6,18,20.2,15.1,39.7-2.2,15.3,5.3,16.6,24.1,4.2,17.8-11.8,30.6-10.6,44.4,4.2,6.5,7,14.9,12.7,18.6,12.7,9.8,0,23.6,15.4,23.6,26.4,0,5.3,4.1,12.1,9,15.1,20.2,12.7,1.2,54.2-50.8,111.4-32.4,35.5-33.3,39-12.5,45.3,13.7,4.1,16.6,6.7,15.5,14.2-1,7.2-6,10.5-22.4,14.8-24.8,6.5-86.6,4.4-105.6-3.6-19.2-8-135.6-8.3-152-0.4-14.8,7.2-85.8,10.6-107.2,5.1zm104.5-12.5c11.3-6.2,147.5-9.3,149.5-3.4,5,15.2,125.6,14,125.6-1.3,0-3.8-26.3-12.6-37.8-12.6-4.3,0-3.7-1.8,2.1-6,11.7-8.6,6.1-11.4-12.2-6.3-18.1,5-30.6,2.2-43.7-9.8l-9.2-8.4-14,10.6c-20.3,15.3-38.4,18.6-83.7,15.5-34-2.4-43.4-4.8-61.3-15.4-25.8-15.4-49.3-14.9-59.8,1.3-7.3,11-18.2,12.8-30.8,4.9-11.1-6.9-16.5-0.6-6.2,7.1,8,6.1,8,6.2-0.3,6.4-13.9,0.2-40.1,8.6-40.1,12.8,0,12.4,100.9,16.2,121.9,4.6zm161.8-58.1c4.2-3.8,7.7-11.5,7.7-16.9s2.5-9.9,5.5-9.9c3.1,0,8.8-6.7,12.7-14.9,8.9-18.7,8.9-18.9-1.5-18.9-12.6,0-31.5,10.8-41.7,23.7-8.4,10.7-12,35.1-6,41.1,4.9,4.9,15.3,3,23.3-4.2zm-141.9-12c13.3-20.2-4.5-48.6-30.4-48.6-13.5,0-13.6,0.3-9.8,13.7,2.2,7.5,4,19.4,4.1,26.4l0.1,12.7,8-9.5c10.4-12.5,11.8-12,9.5,3.2-2.3,16.1,8.5,17.4,18.5,2.1zm-152-72.9c-4.6-4.6-7.8,2.8-4.5,10.4,3.1,7.2,3.4,7.2,5.1-0.1,1-4.3,0.7-8.9-0.6-10.3zm315.9,10c13.1-5.5,32.1-29.2,32.1-40.1,0-12.1-47.8,12.4-53.5,27.4-2.4,6.2,0.9,18.6,5,18.6,1.3,0,8.6-2.7,16.4-5.9zm-274-30.8c5.3-11.2,6.2-18.5,3.4-28.3-4.8-16.6-17-19.8-20.6-5.3-3.1,12.2,1.3,29.2,6.6,25.9,2-1.2,4.6-0.6,5.9,1.4,1.2,2-3.4,9.1-10.3,15.7-15.1,14.4-16.4,21.6-2.3,12.3,5.6-3.6,13.4-13.4,17.3-21.7zm228.3,13.4c22.4-13.8,35.9-34.8,36.5-57,0.2-7.1,3.4-14.7,7.1-16.9,5.8-3.4,5.6-4-1.7-4.2s-7.5-0.8-1.6-4.2c8.8-5.2,5.5-25.2-4.1-25.8-4-0.2-2.5-1.8,3.6-3.8,10-3.2,9.8-3.4-3.2-3.8-12.3-0.4-13.6-1.5-11.4-10.1,4.2-16.6-22.9-38.9-59.1-48.9-19.4-5.3-23.3-2.1-23.4,19.9,0,9.4-1.8,13.4-5.3,12.2-3.3-1.2-5-8.6-4.5-19.4,0.7-14.9-0.4-17.5-7.7-17.5-7.5,0-8.3,2.4-7.1,20.1,1.8,26.6-6.1,29.6-11,4.2-3.7-19.2-7.7-24.4-12.7-16.3-1.3,2,0.5,13,3.9,24.3,3.5,11.3,6.3,21,6.3,21.6,0.1,0.6-2.5,1-5.7,1-3.4,0-8.4-9.1-11.9-21.9l-6.1-21.9-17.6,18.1c-26.5,27.3-33.3,62.6-18.3,95.4,4.2,9.3,10.8,19.5,14.7,22.7,3.8,3.2,7,8.1,7,10.9,0,7.3,16.6,21.9,33.8,29.6,10.1,4.6,24.7,6.3,46.7,5.5,27.1-0.9,35.3-3.1,52.8-13.8zm-81.6-12.6c-11.7-8.4-12.3-21.5-1.3-27.3,11.5-6.2,12.4-5.9,25.8,8.4,10.4,11.3,13,12.2,20.4,7.6,4.6-2.8,10.3-9.1,12.6-13.9l4.2-8.6,0.3,8.7c0.7,22-42.2,39.4-62,25.1zm-43.3-25.4c5.7-6.9,16.9-8.6,16.9-2.5,0,3.8-10,8.9-17.8,8.9-2.6,0-2.3-2.5,0.9-6.4zm9-16.2c-14.6-17.6-5.7-52.6,10.8-42.5,11.4,7,16.4,24.7,10.6,37.4-5.4,11.8-14.1,13.9-21.4,5.1zm13.9-18.3c3.1-7.9-1.9-18.9-7.6-17.1-7.6,2.5-8.4,22.8-0.9,22.8,3.5,0,7.3-2.6,8.5-5.7zm93.3,2.8c1.4-2.3,6.4-4.2,11-4.2,4.7,0,7.3,1.9,5.8,4.2-1.4,2.4-6.4,4.3-11,4.3-4.7,0-7.3-1.9-5.8-4.3zm-24.9-7.8c-7.6-8.4-10.4-29.4-5.1-38,9.3-15,29.3,6.9,27.1,29.7-1.6,16.5-11.2,20.2-22,8.3zm12.3-24.2c-7.5-11.4-14.9-10.1-14.9,2.6,0,5.8,2,7.3,7,5.4,5.1-2,6.1-1.2,3.6,2.9-2.3,3.7-1.8,4.6,1.4,2.5,3-1.8,5.1,0,5.4,4.7,0.5,7.3,0.6,7.3,2.4,0,1.1-4.2-1.1-12.3-4.9-18.1zm-231.7,80.9c-1.4-3.6-4.4-6.6-6.6-6.6-5.5,0-10.2,15.6-6.5,21.5,4.2,6.9,16.3-6.6,13.1-14.9zm403.2,10.1c-5.5-4.5-12.9-8.3-16.5-8.3-5.5,0-5.3,1.3,1.2,8.5,4.2,4.6,11.6,8.4,16.4,8.3,8.7-0.2,8.6-0.4-1.1-8.5zm33.2,0.2c0-2.3-1.8-4.2-4-4.2-2.1,0-5.1,1.9-6.5,4.2-1.5,2.3,0.3,4.2,3.9,4.2,3.7,0,6.6-1.9,6.6-4.2zm-60.8-27.6c14.6-14.5,12.8-33.1-3.3-35-15.8-1.8-28.8,12.1-28.8,30.9,0,13,1.3,14.8,10.8,14.8,5.9,0,15.5-4.8,21.3-10.7zm41.8-6.7c0-3.2-3.8-5.8-8.4-5.8-6.2,0-8.9,3.2-9.9,12.3-1.4,12.1-1.2,12.2,8.5,5.8,5.4-3.6,9.8-9.1,9.8-12.3zm-82.3-6c0-7.5-2.3-10.4-8.3-10.4-11.2,0-19.4,15.3-12.7,23.4,7.2,8.7,21,0.2,21-13z"/>
    <path id="path2531" fill="#39b1c0" d="M155.2,590.3c-20.2-4.2-32.5-13.2-28-20.5,1.5-2.4,10.2-6.7,19.2-9.4,14.5-4.3,16.8-6.8,19.2-20.8,2.3-13.9,0.6-18.4-13.9-37.7-9.2-12-22.6-25.5-30-30-19.6-11.9-25.26-26.9-16.2-42.7,4-7,7.2-16.2,7.2-20.6,0-4.3,5.3-13.5,11.7-20.4,6.3-6.9,15-17.4,19.2-23.4,16-23,54.3-8.3,60.7,23.3,4.6,23.4,11.7,1.2,10.3-32.6-1.5-38.7,9.5-65.7,37.4-91.9,11.1-10.3,21.4-23.8,23-30,1.8-7.5,5.1-10.7,10-9.8,4.6,0.9,9.5-3.2,13.5-11.3,11.9-23.7,24-12.8,15.3,13.7-2.5,7.5-1.5,9.5,4.8,9.5,5.1,0,9.6-5,13-14.2,6.8-19,20.4-31.3,27-24.6,3.8,3.7,2.7,8.9-4.5,21.6l-9.4,16.8,18.1,4.8c28.2,7.6,46.1,18.3,67.7,40.5,11,11.3,24,24.1,29,28.4,7.4,6.5,8.6,11.2,6.9,26.4-1.9,16.5-1.1,18.5,6.6,18.5,4.7,0,12.2-3.2,16.6-7.2,12.6-11.4,36.5-9.3,47.3,4.3,5,6.2,12.2,11.4,16,11.4,9.3,0,19.6,10.8,22.9,24.1,1.5,6,6.3,14.4,10.6,18.7,9.7,9.8,9.7,18-0.1,39.5-8.1,17.8-50.6,73.1-69.6,90.5-14.3,13.1-14.1,19.8,0.4,23.4,25.3,6.4,29.2,19.4,8.5,28.2-20.8,8.7-98.4,7.6-116.8-1.7-20.3-10.4-131.8-10.7-152.2-0.5-16.3,8.1-74.3,11.4-101.4,5.7zm98.5-10.4c17.3-9.1,138.7-9.1,160.4,0,27.5,11.5,121,6.6,121-6.4,0-4.5-23.8-12.6-37.6-12.8-9.5-0.1-10-0.7-3.6-4.4,14-8.2,7.3-11.3-19.3-9.2-25.1,2-27.3,1.4-35.5-8.9-7.7-9.8-9.2-10.3-14.1-4.4-3,3.6-13,10.4-22.2,15.1-14.8,7.5-22.3,8.3-62.7,6.4-41.5-2-48.3-3.5-69.1-15.3-27.9-15.7-52.2-14.8-61.4,2.3-6.2,11.6-21.3,13.4-29.4,3.6-3.8-4.5-6.8-5.2-9.8-2.1-3.1,3.1-2.8,6,0.8,9.6,4.2,4.2,1.1,6.2-15,9.6-22.4,4.7-27.2,14.5-9.7,19.4,21,5.9,94.4,4.1,107.2-2.5zm-50.7-35.1c3.2-5.2-2.7-12-13.2-15.3-7-2.2-9.5-1.3-9.5,3.4,0,9.7,18.2,19.2,22.7,11.9zm299.6-18c28.7-19.1,71.1-72.6,76.6-96.9,1.3-5.8,0.7-13.2-1.5-16.6-3.4-5.1-5-5.2-10.9-0.3-6.2,5.1-6.6,4.6-4.1-5.5,6.8-27.1-14-46.6-23.4-21.9-5.3,13.9-6.3,13.3-6.6-4-0.4-18.3-8.1-27.7-23-27.7-16.2,0-22.4,9.5-25.6,39.5-1.8,16.6-9,39.7-19.9,64-21.4,47.5-25.3,65.8-15.7,75.4,10.9,10.9,32.1,8.5,54.1-6zm37.9-111.2c-18.2-9.1-23-15.2-11.8-15.2,3.4,0,12.5,5.6,20,12.5,16,14.5,15.6,14.6-8.2,2.7zm-121.6,107.4c4.1-4.6,7.8-12.7,8.2-18,0.3-5.3,2.6-9.2,5-8.8,2.4,0.5,8.6-7.9,13.8-18.5l9.4-19.4-16.9,2.3c-23.1,3.1-41.5,17.1-46.5,35.4-8,28.9,9.4,46.3,27,27zm-194.5-9.5c9.9-14.2,8.2-25-9.7-58.9-9-17-17.7-40-19.3-50.9-6-40.9-48.9-52.2-48.9-12.9,0,10.5,2.3,14.9,8.9,17.4,8.9,3.2,8.9,3.3-1.4,10-5.6,3.8-13.4,13.1-17.2,20.9-5.9,11.9-7,12.6-7.1,4.6,0-5.6-2.7-9.5-6.4-9.5-3.5,0-6.3,3.1-6.3,7,0,8.2,11.8,22.5,18.6,22.5,2.5,0,10,8.6,16.5,18.9,24.3,38.5,57.2,52.5,72.3,30.9zm50.7,0c16.8-24-0.5-54-31.1-54-16.5,0-16.9,0.3-12.9,10.8,2.3,6,4.1,18.5,4.1,27.8,0,19.1,6.8,20.4,16.2,3.3,5.5-10,5.6-10,3.4,3-3.5,20.6,8.5,25.9,20.3,9.1zm107.8-68.7c11.3-5.7,24.7-16.3,29.8-23.5,10.4-14.6,22.2-49.4,18.6-55.2-1.3-2,2.2-8,7.6-13.2,5.4-5.3,8-8.1,5.7-6.4-6.6,5.1-11.7,3.7-8-2.1,5.5-8.5,4-21.9-2.9-25-4.6-2.1-3.9-3,2.8-3.2,5.1-0.2,10,1.1,10.9,2.9,1,1.7,1.5,1.3,1.1-1s-8.1-6.3-17.2-8.8c-9.1-2.6-14-5.5-11-6.5,9.5-3.2-12.3-29.9-33-40.4-10.5-5.3-25.7-10.2-33.8-10.8-14.1-1.1-14.9-0.4-16.2,13.6-2.1,23.4-9.2,25.7-9.2,3,0-18.5-0.7-19.9-10.8-19.9-8.3,0-10.4,1.8-8.8,7.4,7.1,25,7.5,34.9,1.4,34.9-4.1,0-7.1-6.4-9-19-1.9-12.4-5-19-8.9-19-7.5,0-7.5,9.8-0.1,30.6,3.2,8.9,4,16.9,1.9,18.2-3.9,2.5-4.2,1.9-13.3-25l-5.6-16.3-13.7,11.6c-37.4,31.5-47.6,100.2-19.4,130.7,5.7,6.1,10.3,13.5,10.3,16.4,0,10,24.9,29.2,45.2,34.9,26.7,7.5,60.1,4,85.6-8.9zm-66.4-26.1c-7.9-3.2-14.1-16.7-11.1-24.3,3.9-10.3,22-7.9,33.4,4.4,9.9,10.7,10.7,10.8,20.9,4.1,5.9-3.8,10.7-9.1,10.7-11.8,0-2.6,1.1-3.7,2.4-2.3,4.5,4.5-6.7,19.9-19.2,26.3-12.2,6.3-26.8,7.7-37.1,3.6zm15.9-16.1c-6.1-7.4-16.9-8.6-16.9-2,0,2.5,1.7,3.5,3.7,2.2,2.1-1.3,6.1,0.6,9.1,4.1,2.9,3.5,6.2,5.4,7.4,4.2,1.1-1.1-0.3-5-3.3-8.5zm-49.8-27c-8.6-5.3-13.6-25.2-9.3-36.8,5.3-13.9,16.9-12.1,24.6,3.9,9.2,19.2-1.2,41.6-15.3,32.9zm5.5-4.7c-1.4-2.3-0.6-7.8,1.8-12.4,5.3-9.8,1.7-21.5-6.6-21.5-7.4,0-8,25.8-0.8,33,6.1,6.1,9.1,6.6,5.6,0.9zm72-22.1c-8.6-12.2-8.7-35.4-0.2-38.7,15.7-6,30.9,30.1,18.1,43-7.2,7.1-10.5,6.4-17.9-4.3zm14.6-21.9c-5.1-13.5-14.2-12.7-16.3,1.4-0.8,5.3,0.3,8.6,2.4,7.3s6.5,1.5,9.9,6.1c7.7,10.9,10.3,1.6,4-14.8zm75.3,117c13.9-8.8,26.7-39.9,25.1-61.2-1.4-19.5-7.4-24.2-17.7-13.9-9.7,9.8-8.4,22.7,2.7,27.2,7.4,3,7.9,3.9,2,4.1-4.1,0.2-14.7,5.1-23.6,11-38.8,25.6-27.6,57.5,11.5,32.8zm-189.4,2.9c0-1.6-3.8-6.2-8.3-10.4-10.2-9.2-29.7-5.7-29.7,5.2,0,5.8,3.9,7.4,19,7.8,10.4,0.2,19-1,19-2.6zm-116.5-39.5c-1.6-4-5.9-6.7-9.7-6-7.6,1.4-11.1,12.9-7.1,23.3,2.4,6.1,3.6,6,11.1-1.6,5.3-5.3,7.4-11.1,5.7-15.7zm99.6,10.5c0-2-2.9-6.1-6.4-9-5.3-4.4-6.3-3.8-6.3,3.7,0,5.2,2.7,9,6.3,9,3.5,0,6.4-1.7,6.4-3.7z"/>
    <path id="path2529" fill="#978976" d="M155.2,590.3c-20.2-4.2-32.5-13.2-28-20.5,1.5-2.4,10.2-6.7,19.2-9.4,14.5-4.3,16.8-6.8,19.2-20.8,2.3-13.9,0.6-18.4-13.9-37.7-9.2-12-22.6-25.5-30-30-19.6-11.9-25.26-26.9-16.2-42.7,4-7,7.2-16.2,7.2-20.6,0-4.3,5.3-13.5,11.7-20.4,6.3-6.9,15-17.4,19.2-23.4,16-23,54.3-8.3,60.7,23.3,4.6,23.4,11.7,1.2,10.3-32.6-1.5-38.7,9.5-65.7,37.4-91.9,11.1-10.3,21.4-23.8,23-30,1.8-7.5,5.1-10.7,10-9.8,4.6,0.9,9.5-3.2,13.5-11.3,11.9-23.7,24-12.8,15.3,13.7-2.5,7.5-1.5,9.5,4.8,9.5,5.1,0,9.6-5,13-14.2,6.8-19,20.4-31.3,27-24.6,3.8,3.7,2.7,8.9-4.5,21.6l-9.4,16.8,18.1,4.8c28.2,7.6,46.1,18.3,67.7,40.5,11,11.3,24,24.1,29,28.4,7.4,6.5,8.6,11.2,6.9,26.4-1.9,16.5-1.1,18.5,6.6,18.5,4.7,0,12.2-3.2,16.6-7.2,12.6-11.4,36.5-9.3,47.3,4.3,5,6.2,12.2,11.4,16,11.4,9.3,0,19.6,10.8,22.9,24.1,1.5,6,6.3,14.4,10.6,18.7,9.7,9.8,9.7,18-0.1,39.5-8.1,17.8-50.6,73.1-69.6,90.5-14.3,13.1-14.1,19.8,0.4,23.4,25.3,6.4,29.2,19.4,8.5,28.2-20.8,8.7-98.4,7.6-116.8-1.7-20.3-10.4-131.8-10.7-152.2-0.5-16.3,8.1-74.3,11.4-101.4,5.7zm98.5-10.4c17.3-9.1,138.7-9.1,160.4,0,27.5,11.5,121,6.6,121-6.4,0-4.5-23.8-12.6-37.6-12.8-9.5-0.1-10-0.7-3.6-4.4,14-8.2,7.3-11.3-19.3-9.2-25.1,2-27.3,1.4-35.5-8.9-7.7-9.8-9.2-10.3-14.1-4.4-3,3.6-13,10.4-22.2,15.1-14.8,7.5-22.3,8.3-62.7,6.4-41.5-2-48.3-3.5-69.1-15.3-27.9-15.7-52.2-14.8-61.4,2.3-6.2,11.6-21.3,13.4-29.4,3.6-3.8-4.5-6.8-5.2-9.8-2.1-3.1,3.1-2.8,6,0.8,9.6,4.2,4.2,1.1,6.2-15,9.6-22.4,4.7-27.2,14.5-9.7,19.4,21,5.9,94.4,4.1,107.2-2.5zm-50.7-35.1c3.2-5.2-2.7-12-13.2-15.3-7-2.2-9.5-1.3-9.5,3.4,0,9.7,18.2,19.2,22.7,11.9zm299.6-18c28.7-19.1,71.1-72.6,76.6-96.9,1.3-5.8,0.7-13.2-1.5-16.6-3.4-5.1-5-5.2-10.9-0.3-6.2,5.1-6.6,4.6-4.1-5.5,6.8-27.1-14-46.6-23.4-21.9-5.3,13.9-6.3,13.3-6.6-4-0.4-18.3-8.1-27.7-23-27.7-16.2,0-22.4,9.5-25.6,39.5-1.8,16.6-9,39.7-19.9,64-21.4,47.5-25.3,65.8-15.7,75.4,10.9,10.9,32.1,8.5,54.1-6zm37.9-111.2c-18.2-9.1-23-15.2-11.8-15.2,3.4,0,12.5,5.6,20,12.5,16,14.5,15.6,14.6-8.2,2.7zm-121.6,107.4c4.1-4.6,7.8-12.7,8.2-18,0.3-5.3,2.6-9.2,5-8.8,2.4,0.5,8.6-7.9,13.8-18.5l9.4-19.4-16.9,2.3c-23.1,3.1-41.5,17.1-46.5,35.4-8,28.9,9.4,46.3,27,27zm-194.5-9.5c9.9-14.2,8.2-25-9.7-58.9-9-17-17.7-40-19.3-50.9-6-40.9-48.9-52.2-48.9-12.9,0,10.5,2.3,14.9,8.9,17.4,8.9,3.2,8.9,3.3-1.4,10-5.6,3.8-13.4,13.1-17.2,20.9-5.9,11.9-7,12.6-7.1,4.6,0-5.6-2.7-9.5-6.4-9.5-3.5,0-6.3,3.1-6.3,7,0,8.2,11.8,22.5,18.6,22.5,2.5,0,10,8.6,16.5,18.9,24.3,38.5,57.2,52.5,72.3,30.9zm50.7,0c16.8-24-0.5-54-31.1-54-16.5,0-16.9,0.3-12.9,10.8,2.3,6,4.1,18.5,4.1,27.8,0,19.1,6.8,20.4,16.2,3.3,5.5-10,5.6-10,3.4,3-3.5,20.6,8.5,25.9,20.3,9.1zm34-7.5c4.2-18.9-18-51.2-34.5-50.6-1.9,0.1-0.5,2.5,3.2,5.3,4.7,3.6,6.8,12.8,7.1,30.5,0.2,13.9,0.6,25.8,0.7,26.4,0.2,0.6,4.9,1,10.5,1,8,0,10.9-2.8,13-12.6zm41,7.4c5.9-4.8,19.3-48.7,15.5-51.1-0.9-0.5-15.3-0.2-32.1,0.6l-30.5,1.5,8.9,12c6.9,9.3,8.2,15.3,6,27.1-2.8,14.9-2.6,15.1,11.4,15.1,7.7,0,17.1-2.3,20.8-5.2zm35.2-24.5c3.2-6.3,4.8-12.5,3.4-13.8-1.3-1.4,3.5-6.1,10.7-10.4,14.7-9,13.3-13.6-3.9-13.6-13.8,0-18.9,5.8-22.3,25.3-1.4,8.1-3.9,19.5-5.5,25.3-2.8,9.7-2.4,10.1,4.3,4.6,4.1-3.3,10-11.2,13.3-17.4zm-2.4-44.1c11.3-5.7,24.7-16.3,29.8-23.5,10.4-14.6,22.2-49.4,18.6-55.2-1.3-2,2.2-8,7.6-13.2,5.4-5.3,8-8.1,5.7-6.4-6.6,5.1-11.7,3.7-8-2.1,5.5-8.5,4-21.9-2.9-25-4.6-2.1-3.9-3,2.8-3.2,5.1-0.2,10,1.1,10.9,2.9,1,1.7,1.5,1.3,1.1-1s-8.1-6.3-17.2-8.8c-9.1-2.6-14-5.5-11-6.5,9.5-3.2-12.3-29.9-33-40.4-10.5-5.3-25.7-10.2-33.8-10.8-14.1-1.1-14.9-0.4-16.2,13.6-2.1,23.4-9.2,25.7-9.2,3,0-18.5-0.7-19.9-10.8-19.9-8.3,0-10.4,1.8-8.8,7.4,7.1,25,7.5,34.9,1.4,34.9-4.1,0-7.1-6.4-9-19-1.9-12.4-5-19-8.9-19-7.5,0-7.5,9.8-0.1,30.6,3.2,8.9,4,16.9,1.9,18.2-3.9,2.5-4.2,1.9-13.3-25l-5.6-16.3-13.7,11.6c-37.4,31.5-47.6,100.2-19.4,130.7,5.7,6.1,10.3,13.5,10.3,16.4,0,10,24.9,29.2,45.2,34.9,26.7,7.5,60.1,4,85.6-8.9zm-66.4-26.1c-7.9-3.2-14.1-16.7-11.1-24.3,3.9-10.3,22-7.9,33.4,4.4,9.9,10.7,10.7,10.8,20.9,4.1,5.9-3.8,10.7-9.1,10.7-11.8,0-2.6,1.1-3.7,2.4-2.3,4.5,4.5-6.7,19.9-19.2,26.3-12.2,6.3-26.8,7.7-37.1,3.6zm15.9-16.1c-6.1-7.4-16.9-8.6-16.9-2,0,2.5,1.7,3.5,3.7,2.2,2.1-1.3,6.1,0.6,9.1,4.1,2.9,3.5,6.2,5.4,7.4,4.2,1.1-1.1-0.3-5-3.3-8.5zm-49.8-27c-8.6-5.3-13.6-25.2-9.3-36.8,5.3-13.9,16.9-12.1,24.6,3.9,9.2,19.2-1.2,41.6-15.3,32.9zm5.5-4.7c-1.4-2.3-0.6-7.8,1.8-12.4,5.3-9.8,1.7-21.5-6.6-21.5-7.4,0-8,25.8-0.8,33,6.1,6.1,9.1,6.6,5.6,0.9zm72-22.1c-8.6-12.2-8.7-35.4-0.2-38.7,15.7-6,30.9,30.1,18.1,43-7.2,7.1-10.5,6.4-17.9-4.3zm14.6-21.9c-5.1-13.5-14.2-12.7-16.3,1.4-0.8,5.3,0.3,8.6,2.4,7.3s6.5,1.5,9.9,6.1c7.7,10.9,10.3,1.6,4-14.8zm75.3,117c13.9-8.8,26.7-39.9,25.1-61.2-1.4-19.5-7.4-24.2-17.7-13.9-9.7,9.8-8.4,22.7,2.7,27.2,7.4,3,7.9,3.9,2,4.1-4.1,0.2-14.7,5.1-23.6,11-38.8,25.6-27.6,57.5,11.5,32.8zm-189.4,2.9c0-1.6-3.8-6.2-8.3-10.4-10.2-9.2-29.7-5.7-29.7,5.2,0,5.8,3.9,7.4,19,7.8,10.4,0.2,19-1,19-2.6zm-116.5-39.5c-1.6-4-5.9-6.7-9.7-6-7.6,1.4-11.1,12.9-7.1,23.3,2.4,6.1,3.6,6,11.1-1.6,5.3-5.3,7.4-11.1,5.7-15.7zm99.6,10.5c0-2-2.9-6.1-6.4-9-5.3-4.4-6.3-3.8-6.3,3.7,0,5.2,2.7,9,6.3,9,3.5,0,6.4-1.7,6.4-3.7z"/>
    <path id="path2527" fill="#4e98a2" d="M155.2,590.3c-20.2-4.2-32.5-13.2-28-20.5,1.5-2.4,10.2-6.7,19.2-9.4,14.5-4.3,16.8-6.8,19.2-20.8,2.3-13.9,0.6-18.4-13.9-37.7-9.2-12-22.6-25.5-30-30-19.6-11.9-25.26-26.9-16.2-42.7,4-7,7.2-16.2,7.2-20.6,0-4.3,5.3-13.5,11.7-20.4,6.3-6.9,15-17.4,19.2-23.4,16-23,54.3-8.3,60.7,23.3,4.6,23.4,11.7,1.2,10.3-32.6-1.5-38.7,9.5-65.7,37.4-91.9,11.1-10.3,21.4-23.8,23-30,1.8-7.5,5.1-10.7,10-9.8,4.6,0.9,9.5-3.2,13.5-11.3,11.9-23.7,24-12.8,15.3,13.7-2.5,7.5-1.5,9.5,4.8,9.5,5.1,0,9.6-5,13-14.2,6.8-19,20.4-31.3,27-24.6,3.8,3.7,2.7,8.9-4.5,21.6l-9.4,16.8,18.1,4.8c28.2,7.6,46.1,18.3,67.7,40.5,11,11.3,24,24.1,29,28.4,7.4,6.5,8.6,11.2,6.9,26.4-1.9,16.5-1.1,18.5,6.6,18.5,4.7,0,12.2-3.2,16.6-7.2,12.6-11.4,36.5-9.3,47.3,4.3,5,6.2,12.2,11.4,16,11.4,9.3,0,19.6,10.8,22.9,24.1,1.5,6,6.3,14.4,10.6,18.7,9.7,9.8,9.7,18-0.1,39.5-8.1,17.8-50.6,73.1-69.6,90.5-14.3,13.1-14.1,19.8,0.4,23.4,25.3,6.4,29.2,19.4,8.5,28.2-20.8,8.7-98.4,7.6-116.8-1.7-20.3-10.4-131.8-10.7-152.2-0.5-16.3,8.1-74.3,11.4-101.4,5.7zm98.5-10.4c17.3-9.1,138.7-9.1,160.4,0,27.5,11.5,121,6.6,121-6.4,0-4.5-23.8-12.6-37.6-12.8-9.5-0.1-10-0.7-3.6-4.4,14.4-8.4,7.4-12.2-17.6-9.6-23.6,2.5-25.7,1.9-36-9.2l-10.9-11.8-9.5,8.7c-21.5,19.6-34.3,22.8-80.3,19.9-37-2.4-46.4-4.6-66-15.4-20.9-11.6-25.1-12.4-49.3-9.8-16.7,1.8-29.7,1.1-35.2-1.9-7.5-3.9-8.8-3.4-8.8,3.4,0,10.8,10.8,19.2,20,15.7,6.1-2.3,6.5-1.8,2,2.7s-7.7,4.2-17.8-1.6c-13-7.5-22.2-2.9-12.9,6.4,3.6,3.7-0.1,5.9-15.4,9.2-22.4,4.7-27.2,14.5-9.7,19.4,21,5.9,94.4,4.1,107.2-2.5zm237.8-44.7c20-9.7,63.9-55,80.2-82.9,11.4-19.4,12.1-41.4,1.4-41.4-4.2,0-7-5.6-8.4-16.9-1.9-14.5-3.7-17-13.4-18.1-8-1-11.8,0.9-13.3,6.3-1.4,5.4-2.1,4.5-2.4-3.1-0.6-13-11.5-29.4-19.6-29.4-22.1,0-35.7,20.5-35.8,53.8,0,7.6-7.9,31.3-17.5,52.7-22.3,49.3-25.4,71.2-11.6,80.9,12.8,9,18.5,8.7,40.4-1.9zm49.9-122.4c-6.9-4.5-10.5-8.2-7.8-8.2,2.6,0,9.3,3.7,14.7,8.3,12.6,10.5,9.6,10.4-6.9-0.1zm-122.3,112.4c5.7-5.7,10.4-14.4,10.4-19.3s1.6-7.9,3.6-6.7c4.4,2.8,24.2-38.6,20.4-42.5-5-4.9-36.6,7.1-49.7,18.9-16.2,14.6-21.1,39.4-10.1,51.6,9.7,10.8,12.9,10.5,25.4-2zm-198.8-3.8c4.4-3.3,9.2-13.9,10.9-24.3l3-18.6,0.5,18c0.6,19.7,5.2,22.6,14.7,9.1,5.9-8.5,6.1-8.3,5.5,4.8-1.3,27.5,22.1,16,27.1-13.3l3.2-18.6-0.6,19c-0.6,17.6,0.1,19.1,10.5,20.3,9.4,1.1,11.6-0.7,14-11.6,3.1-14.3-9.3-39.2-23.3-46.7-11.5-6.2-15.9-4.9-6.9,2,4.3,3.2,6.5,8.1,4.9,10.7-2.1,3.4-5.8,2.4-12.1-3.3-12.1-10.9-22.4-14.1-34.8-11-8.2,2-9.8,4.5-7.9,11.6,1.4,5-4.4-2.9-12.8-17.4-8.4-14.6-16.4-33.6-17.7-42.3-5-32-22-49.1-41.5-41.6-13.7,5.2-16.5,40.6-3.2,40.6,4.3,0,2.1,4.8-6.8,15-7.2,8.2-13.3,17.2-13.4,20-0.2,2.8-2,0.9-4.1-4.4-4.5-11.1-11.7-12.3-15.5-2.5-1.7,4.6,3.2,12.5,15.3,24.2,9.8,9.6,23.5,25.6,30.4,35.7,17.9,25.8,44.3,36.5,60.6,24.6zm129.8-8c5.9-4.8,19.3-48.7,15.5-51.1-0.9-0.5-15.3-0.2-32.1,0.6l-30.5,1.5,8.9,12c6.9,9.3,8.2,15.3,6,27.1-2.8,14.9-2.6,15.1,11.4,15.1,7.7,0,17.1-2.3,20.8-5.2zm35.2-24.5c3.2-6.3,4.8-12.5,3.4-13.8-1.3-1.4,3.5-6.1,10.7-10.4,14.7-9,13.3-13.6-3.9-13.6-13.8,0-18.9,5.8-22.3,25.3-1.4,8.1-3.9,19.5-5.5,25.3-2.8,9.7-2.4,10.1,4.3,4.6,4.1-3.3,10-11.2,13.3-17.4zm-3.7-41.3c29-14.8,52.1-50.2,52.1-79.7,0-4.6,4.8-12.7,10.6-18.2s10.5-13.7,10.5-18.4c0-11.7-12-23.8-23.7-23.8-7.1,0-9.1-1.8-7.3-6.6,3.7-9.5-31-41.1-52-47.4-30.4-9.1-35.2-7.5-35.2,11.7,0,9.3-1.9,16.9-4.2,16.9-2.4,0-4.3-8.3-4.3-18.4,0-17.4-0.5-18.3-10.6-16.4-10.1,2-10.5,3.1-8.1,23.7,2.9,25.1-4.4,19.7-8.8-6.5-1.9-11.2-4.4-15-8.7-13.3-7.2,2.7-7.7,16.3-1.3,34.7,2.6,7.5,3.7,14.6,2.4,15.9-1.2,1.2-4.6-6-7.5-16.1-7.7-27-10.4-28.1-27.4-11.8-30.6,29.4-42.6,73-29.5,107.2,3.9,10.2,9.9,21,13.4,23.9s9,11.5,12.1,19.1c5.5,13.1,20.6,23.9,44.4,31.7,18.4,6,64.1,1.5,83.1-8.2zm-70.2-36.5c-7.1-8.5-3.8-20.9,6.1-22.8,5.4-1,12.2,3.1,19.3,11.7l11.1,13.2,12.3-8.9,12.3-9-11.9,11c-13.5,12.5-40.6,15.2-49.2,4.8zm25.4-6c-5.3-9.9-17.2-14.8-22.7-9.3-6.1,6.1,2.8,15.2,16,16.3,9.5,0.8,10.4-0.2,6.7-7zm-49-34.7c-1.7-2.6-0.7-6.2,2.2-7.9,7.6-4.8,3.5-23-5.6-24.8-6.9-1.3-7.7,0.8-6.3,15.5,0.9,9.3,0.2,16-1.6,14.9-5.1-3.2-3.8-28.8,1.7-34.4,7.9-7.8,20.4,6.1,20.4,22.7,0,14.6-5.8,22.1-10.8,14zm70.2-24.4c-6.8-12.7-5.5-30,2.5-33,9.3-3.6,22.7,13.1,22.1,27.7-0.4,10.6-0.6,10.5-3.5-1.9-4.2-17.2-7.9-22.9-15.3-22.9-4,0-6.1,4.5-6.1,12.7,0,11.5,3.7,14.9,14.1,13,5.2-0.9,1,9.4-4.6,11.3-2.6,0.8-6.7-2.3-9.2-6.9zm84.3-11.8c-0.1-7.3-2.5-14.3-5.4-15.5-4-1.6-4-2.2-0.2-2.5,8.3-0.5,15,15.5,10,24.1-3.5,6-4.3,5-4.4-6.1zm11.7,107.3c15-14.1,20.9-28,22.6-53.7,1.2-19.6,0.3-23.4-6.1-24.6-18.9-3.7-28.2,25.7-10.4,32.8,9.2,3.7,9.2,3.9,0.7,4.1-22.4,0.7-54.8,36.8-46,51.1,4.4,7.2,27.2,1.5,39.2-9.7zm-197.9-2.5c-9.4-12.8-24.3-13.8-33.8-2.4-7.9,9.5-0.3,14.5,21.7,14.5h21l-8.9-12.1zm-116.3-15.4c5.4-8.3,6-12.6,2.3-19.3-8.8-16.6-21.4,4.1-14.1,23.2,3.3,8.7,3.6,8.6,11.8-3.9zm103.9-7c0-5.9-12.5-20.4-17.6-20.4-4.2,0-4.8,18.4-0.7,22.5,4.7,4.7,18.3,3.1,18.3-2.1z"/>
    <path id="path2525" fill="#308d99" d="M321.8,552.8c-21.8-1.8-34.9-5.6-50.1-14.5-18.8-11.1-22.7-11.9-47.2-9.2-16.9,1.8-29.9,1.1-35.4-1.9-7.5-3.9-8.8-3.4-8.8,3.4,0,10.4,10.7,19.3,19.2,16,3.8-1.4,5.5-0.8,4,1.7-1.4,2.2-5,4.1-8.1,4.1-9.2,0-28.2-17.3-27-24.7,1.1-6.8-29.3-51.3-35-51.3-1.6,0-8.8-5.5-16-12.2-14-13.1-17.77-32.7-7.1-36.8,3.5-1.4,5.9-7.6,5.7-14.5-0.3-13.5,7.2-25.2,16.3-25.2,3.2,0,5.8-3.7,5.8-8.1,0-9.7,18.9-25.7,30.4-25.7,14.8,0,31.6,21.7,34.8,44.8,3,21.8,8.5,35,12.8,30.7,1.4-1.4,0.5-7.8-2-14.2-3.4-8.9-3-13.9,1.3-20.7,4-6.4,4.6-13.6,2.1-25.5-4-18.6,1.4-54.9,10.9-73.4,6.4-12.3,23.3-31,39.8-44.1,5.1-4,9.3-11.1,9.3-15.8,0-5,2.8-8.5,6.8-8.5,4.8,0,6.1,2.6,4.5,8.7-1.8,7.1-1.2,7.8,3.8,3.7,3.3-2.7,6-9.3,6-14.7,0-14.2,4.3-23,11.2-23,4.9,0,5.6,3.9,3.3,19.4-2.6,17.3-2.1,19.3,4.7,17.9,4.3-0.8,12.4-10.5,18.1-21.5,5.6-11,12.9-20,16-20,7.9,0,7.3,5.7-2.6,24.1l-8.4,15.6,22,5.6c29.8,7.6,55.6,23.4,66.1,40.5,4.8,7.7,13.6,16.3,19.5,19,20.7,9.4,22.9,34.4,4.9,55.6-5,5.9-6.3,8.2-2.9,5.3,3.3-2.9,9.9-5.2,14.7-5.2s16.4-4.1,25.8-9.1c20.8-11,37.9-8.3,44.9,7.1,3,6.6,8.3,10.4,14.3,10.4,12.2,0,22.9,10.5,22.9,22.5,0,5.1,3.8,11.6,8.4,14.5,20.7,13,3.4,52.4-47.8,109-33.4,36.8-72.8,47.1-93.9,24.4l-10.4-11.3-9.5,8.7c-23.6,21.6-34.9,23.7-98.1,18.4zm169.7-17.6c20-9.7,63.9-55,80.2-82.9,11.4-19.4,12.1-41.4,1.4-41.4-4.2,0-7-5.6-8.4-16.9-1.9-14.5-3.7-17-13.4-18.1-8-1-11.8,0.9-13.3,6.3-1.4,5.4-2.1,4.5-2.4-3.1-0.6-13-11.5-29.4-19.6-29.4-22.1,0-35.7,20.5-35.8,53.8,0,7.6-7.9,31.3-17.5,52.7-22.3,49.3-25.4,71.2-11.6,80.9,12.8,9,18.5,8.7,40.4-1.9zm49.9-122.4c-6.9-4.5-10.5-8.2-7.8-8.2,2.6,0,9.3,3.7,14.7,8.3,12.6,10.5,9.6,10.4-6.9-0.1zm-122.3,112.4c5.7-5.7,10.4-14.4,10.4-19.3s1.6-7.9,3.6-6.7c4.4,2.8,24.2-38.6,20.4-42.5-5-4.9-36.6,7.1-49.7,18.9-16.2,14.6-21.1,39.4-10.1,51.6,9.7,10.8,12.9,10.5,25.4-2zm-198.8-3.8c4.4-3.3,9.2-13.9,10.9-24.3l3-18.6,0.5,18c0.6,19.7,5.2,22.6,14.7,9.1,5.9-8.5,6.1-8.3,5.5,4.8-1.3,27.5,22.1,16,27.1-13.3l3.2-18.6-0.6,19c-0.6,17.6,0.1,19.1,10.5,20.3,9.4,1.1,11.6-0.7,14-11.6,3.1-14.3-9.3-39.2-23.3-46.7-11.5-6.2-15.9-4.9-6.9,2,4.3,3.2,6.5,8.1,4.9,10.7-2.1,3.4-5.8,2.4-12.1-3.3-12.1-10.9-22.4-14.1-34.8-11-8.2,2-9.8,4.5-7.9,11.6,1.4,5-4.4-2.9-12.8-17.4-8.4-14.6-16.4-33.6-17.7-42.3-5-32-22-49.1-41.5-41.6-13.7,5.2-16.5,40.6-3.2,40.6,4.3,0,2.1,4.8-6.8,15-7.2,8.2-13.3,17.2-13.4,20-0.2,2.8-2,0.9-4.1-4.4-4.5-11.1-11.7-12.3-15.5-2.5-1.7,4.6,3.2,12.5,15.3,24.2,9.8,9.6,23.5,25.6,30.4,35.7,17.9,25.8,44.3,36.5,60.6,24.6zm129.8-8c5.9-4.8,19.3-48.7,15.5-51.1-0.9-0.5-15.3-0.2-32.1,0.6l-30.5,1.5,8.9,12c6.9,9.3,8.2,15.3,6,27.1-2.8,14.9-2.6,15.1,11.4,15.1,7.7,0,17.1-2.3,20.8-5.2zm35.2-24.5c3.2-6.3,4.8-12.5,3.4-13.8-1.3-1.4,3.5-6.1,10.7-10.4,14.7-9,13.3-13.6-3.9-13.6-13.8,0-18.9,5.8-22.3,25.3-1.4,8.1-3.9,19.5-5.5,25.3-2.8,9.7-2.4,10.1,4.3,4.6,4.1-3.3,10-11.2,13.3-17.4zm-3.7-41.3c29-14.8,52.1-50.2,52.1-79.7,0-4.6,4.8-12.7,10.6-18.2s10.5-13.7,10.5-18.4c0-11.7-12-23.8-23.7-23.8-7.1,0-9.1-1.8-7.3-6.6,3.7-9.5-31-41.1-52-47.4-30.4-9.1-35.2-7.5-35.2,11.7,0,9.3-1.9,16.9-4.2,16.9-2.4,0-4.3-8.3-4.3-18.4,0-17.4-0.5-18.3-10.6-16.4-10.1,2-10.5,3.1-8.1,23.7,2.9,25.1-4.4,19.7-8.8-6.5-1.9-11.2-4.4-15-8.7-13.3-7.2,2.7-7.7,16.3-1.3,34.7,2.6,7.5,3.7,14.6,2.4,15.9-1.2,1.2-4.6-6-7.5-16.1-7.7-27-10.4-28.1-27.4-11.8-30.6,29.4-42.6,73-29.5,107.2,3.9,10.2,9.9,21,13.4,23.9s9,11.5,12.1,19.1c5.5,13.1,20.6,23.9,44.4,31.7,18.4,6,64.1,1.5,83.1-8.2zm-70.2-36.5c-7.1-8.5-3.8-20.9,6.1-22.8,5.4-1,12.2,3.1,19.3,11.7l11.1,13.2,12.3-8.9,12.3-9-11.9,11c-13.5,12.5-40.6,15.2-49.2,4.8zm25.4-6c-5.3-9.9-17.2-14.8-22.7-9.3-6.1,6.1,2.8,15.2,16,16.3,9.5,0.8,10.4-0.2,6.7-7zm-49-34.7c-1.7-2.6-0.7-6.2,2.2-7.9,7.6-4.8,3.5-23-5.6-24.8-6.9-1.3-7.7,0.8-6.3,15.5,0.9,9.3,0.2,16-1.6,14.9-5.1-3.2-3.8-28.8,1.7-34.4,7.9-7.8,20.4,6.1,20.4,22.7,0,14.6-5.8,22.1-10.8,14zm70.2-24.4c-6.8-12.7-5.5-30,2.5-33,9.3-3.6,22.7,13.1,22.1,27.7-0.4,10.6-0.6,10.5-3.5-1.9-4.2-17.2-7.9-22.9-15.3-22.9-4,0-6.1,4.5-6.1,12.7,0,11.5,3.7,14.9,14.1,13,5.2-0.9,1,9.4-4.6,11.3-2.6,0.8-6.7-2.3-9.2-6.9zm84.3-11.8c-0.1-7.3-2.5-14.3-5.4-15.5-4-1.6-4-2.2-0.2-2.5,8.3-0.5,15,15.5,10,24.1-3.5,6-4.3,5-4.4-6.1zm11.7,107.3c15-14.1,20.9-28,22.6-53.7,1.2-19.6,0.3-23.4-6.1-24.6-18.9-3.7-28.2,25.7-10.4,32.8,9.2,3.7,9.2,3.9,0.7,4.1-22.4,0.7-54.8,36.8-46,51.1,4.4,7.2,27.2,1.5,39.2-9.7zm-197.9-2.5c-9.4-12.8-24.3-13.8-33.8-2.4-7.9,9.5-0.3,14.5,21.7,14.5h21l-8.9-12.1zm-116.3-15.4c5.4-8.3,6-12.6,2.3-19.3-8.8-16.6-21.4,4.1-14.1,23.2,3.3,8.7,3.6,8.6,11.8-3.9zm103.9-7c0-5.9-12.5-20.4-17.6-20.4-4.2,0-4.8,18.4-0.7,22.5,4.7,4.7,18.3,3.1,18.3-2.1zm202.7-23.1c0-4.7-7.9-0.6-10.2,5.4-2.2,5.8-1.6,6,3.8,1.6,3.5-3,6.4-6.1,6.4-7z"/>
    <path id="path2523" fill="#1b2322" d="M321.8,552.8c-21.8-1.8-34.9-5.6-50.1-14.5-18.8-11.1-22.7-11.9-47.2-9.2-16.9,1.8-29.9,1.1-35.4-1.9-7.5-3.9-8.8-3.4-8.8,3.4,0,10.8,10.8,19.2,20,15.7,6.1-2.3,6.5-1.8,2,2.6-8.4,8.6-27.8-4.1-30.4-19.8-2.7-15.9-27.4-48.8-45.6-60.7-19.1-12.6-25.6-27.5-16.3-37.7,3.8-4.3,7-12.8,7-18.9,0-7.3,3.7-13.6,10.5-18.1,5.8-3.8,10.6-9.6,10.6-12.8,0-9.9,16.2-22.8,28.8-22.8,16.5,0,29.4,15.3,34.2,40.4,4,20.9,8.5,35.7,11,35.7,0.7,0,4.4-1.2,8.2-2.7,6.3-2.4,6.3-3.2-0.2-10.4-5-5.5-6.2-11.2-4-19.5,1.6-6.5,2.7-24.6,2.3-40.4-0.4-15.7,1.6-35.6,4.5-44.3,7.1-22.1,28.1-51.4,42.4-59.6,7.5-4.2,12.1-10.4,12.1-16.1,0-5.1,2-10.4,4.3-11.9,2.3-1.4,4.2,1.3,4.2,6.1,0,4.9,2.8,8.7,6.3,8.7,4.1,0,6.4-4.2,6.5-11.6,0.2-14.6,10.2-33.6,14.2-27.1,1.6,2.6,1,8.5-1.5,13-7.9,14.9-5.4,21.5,8.3,21.5,8.9,0,12.7-2.1,12.7-6.9,0-9.7,16.8-35.9,21.3-33.1,2,1.3,0,8.4-4.6,15.9-11.9,19.5-10.6,22.5,11.8,28.1,28.8,7.2,54.4,23.5,67.1,42.7,6.1,9.1,13.4,16.6,16.2,16.6,8.9,0,19.1,15,19.1,28.1,0,8.1-3.9,16.3-10.6,22.6-5.8,5.5-10.5,13.5-10.5,17.8s-2.8,14.4-6.2,22.5c-5.9,14.2-5.8,14.5,2.1,10.3,5.7-3,8.3-8.8,8.3-18.4,0-15.3,10.6-28,23.3-28,4.3,0,15.9-3.9,25.8-8.7,19.8-9.5,31.2-7,39.6,8.8,2.5,4.6,7.9,8.4,12,8.4,12,0,23.5,10.8,24,22.5,0.3,6,4.9,14.4,10.2,18.7,8,6.4,9.2,10.3,6.8,21.3-5.8,26.2-69.5,103-94.1,113.4-22.2,9.4-42.3,7.3-54.2-5.5l-10.4-11.3-9.5,8.7c-23.6,21.6-34.9,23.7-98.1,18.4zm71.6-7c8.1-6,8.1-6.2-1.4-12.9-9.6-6.7-10.3-16.3-4.2-55.7,0.5-3,6.3-8.3,12.8-11.7,16.1-8.3,15.1-14.4-2.3-14.4-16.8,0-20.1,3.7-27.8,31.6-6.4,23.1-7,36.6-2.5,52.8l2.9,10.6-6.4-10.6c-8.2-13.4-8.3-26.3-0.4-52.4,3.5-11.4,5.8-21.2,5.2-21.7s-15.7,0.1-33.6,1.3c-32.1,2.1-32.5,2.3-26.4,11,3.4,4.8,6.2,14.4,6.2,21.3,0,14.8-8.7,40.5-13.7,40.5-1.9,0-0.5-5.6,3-12.4,9.1-17.5,8-35.1-2.9-49.3-11.8-15.4-16.1-18.4-26.3-18.4-7.9-0.1-7.9,0.1-0.4,5.6,5,3.7,6.1,6.7,3.2,8.5-2.5,1.5-5.8,0.8-7.4-1.7-4.6-7.4-22.9-12.7-34.1-9.9-8.2,2-9.8,4.5-7.9,11.6,1.4,5-4.4-2.9-12.8-17.4-8.4-14.6-16.4-33.6-17.7-42.3-5-32-22-49.1-41.5-41.6-13.7,5.2-16.5,40.6-3.2,40.6,4.3,0,2.1,4.8-6.8,15-7.2,8.2-13.3,17.2-13.4,20-0.2,2.8-2,0.9-4.1-4.4-4.5-11.1-11.7-12.3-15.5-2.5-1.8,4.8,2.6,11.8,13.9,22.1,9.1,8.3,21.6,23.1,27.9,32.9,12.8,20,25.5,29.7,43.7,33.3,17.6,3.4,28.1-5.9,31.7-28.1l3-18.6,0.5,18c0.6,20,5.2,22.6,15.2,8.4,6.5-9.4,6.6-9.3,4,3.8-2.5,12.4-1.3,14.1,17.7,25.2,20.2,11.8,26.9,13,100.9,17.3,7,0.4,16.4-2,20.9-5.4zm-110.9-50.4c-0.1-7,0.8-10.3,1.9-7.5,1.2,2.9,1.3,8.6,0.2,12.7s-2,1.8-2.1-5.2zm209,39.8c20-9.7,63.9-55,80.2-82.9,11.4-19.4,12.1-41.4,1.4-41.4-4.2,0-7-5.6-8.4-16.9-1.9-14.5-3.7-17-13.4-18.1-8-1-11.8,0.9-13.3,6.3-1.4,5.4-2.1,4.5-2.4-3.1-0.6-13-11.5-29.4-19.6-29.4-22.1,0-35.7,20.5-35.8,53.8,0,7.6-7.9,31.3-17.5,52.7-22.3,49.3-25.4,71.2-11.6,80.9,12.8,9,18.5,8.7,40.4-1.9zm49.9-122.4c-6.9-4.5-10.5-8.2-7.8-8.2,2.6,0,9.3,3.7,14.7,8.3,12.6,10.5,9.6,10.4-6.9-0.1zm-122.3,112.4c5.7-5.7,10.4-14.4,10.4-19.3s1.6-7.9,3.6-6.7c4.4,2.8,24.2-38.6,20.4-42.5-5-4.9-36.6,7.1-49.7,18.9-16.2,14.6-21.1,39.4-10.1,51.6,9.7,10.8,12.9,10.5,25.4-2zm-37.5-77.6c29-14.8,52.1-50.2,52.1-79.7,0-4.6,4.8-12.7,10.6-18.2s10.5-13.7,10.5-18.4c0-11.7-12-23.8-23.7-23.8-7.1,0-9.1-1.8-7.3-6.6,3.7-9.5-31-41.1-52-47.4-30.4-9.1-35.2-7.5-35.2,11.7,0,9.3-1.9,16.9-4.2,16.9-2.4,0-4.3-8.3-4.3-18.4,0-17.4-0.5-18.3-10.6-16.4-10.1,2-10.5,3.1-8.1,23.7,2.9,25.1-4.4,19.7-8.8-6.5-1.9-11.2-4.4-15-8.7-13.3-7.2,2.7-7.7,16.3-1.3,34.7,2.6,7.5,3.7,14.6,2.4,15.9-1.2,1.2-4.6-6-7.5-16.1-7.7-27-10.4-28.1-27.4-11.8-30.6,29.4-42.6,73-29.5,107.2,3.9,10.2,9.9,21,13.4,23.9s9,11.5,12.1,19.1c5.5,13.1,20.6,23.9,44.4,31.7,18.4,6,64.1,1.5,83.1-8.2zm-70.2-36.5c-7.1-8.5-3.8-20.9,6.1-22.8,5.4-1,12.2,3.1,19.3,11.7l11.1,13.2,12.3-8.9,12.3-9-11.9,11c-13.5,12.5-40.6,15.2-49.2,4.8zm25.4-6c-5.3-9.9-17.2-14.8-22.7-9.3-6.1,6.1,2.8,15.2,16,16.3,9.5,0.8,10.4-0.2,6.7-7zm-49-34.7c-1.7-2.6-0.7-6.2,2.2-7.9,7.6-4.8,3.5-23-5.6-24.8-6.9-1.3-7.7,0.8-6.3,15.5,0.9,9.3,0.2,16-1.6,14.9-5.1-3.2-3.8-28.8,1.7-34.4,7.9-7.8,20.4,6.1,20.4,22.7,0,14.6-5.8,22.1-10.8,14zm70.2-24.4c-6.8-12.7-5.5-30,2.5-33,9.3-3.6,22.7,13.1,22.1,27.7-0.4,10.6-0.6,10.5-3.5-1.9-4.2-17.2-7.9-22.9-15.3-22.9-4,0-6.1,4.5-6.1,12.7,0,11.5,3.7,14.9,14.1,13,5.2-0.9,1,9.4-4.6,11.3-2.6,0.8-6.7-2.3-9.2-6.9zm84.3-11.8c-0.1-7.3-2.5-14.3-5.4-15.5-4-1.6-4-2.2-0.2-2.5,8.3-0.5,15,15.5,10,24.1-3.5,6-4.3,5-4.4-6.1zm11.7,107.3c15-14.1,20.9-28,22.6-53.7,1.2-19.6,0.3-23.4-6.1-24.6-18.9-3.7-28.2,25.7-10.4,32.8,9.2,3.7,9.2,3.9,0.7,4.1-22.4,0.7-54.8,36.8-46,51.1,4.4,7.2,27.2,1.5,39.2-9.7zm-197.9-2.5c-9.4-12.8-24.3-13.8-33.8-2.4-7.9,9.5-0.3,14.5,21.7,14.5h21l-8.9-12.1zm-116.3-15.4c5.4-8.3,6-12.6,2.3-19.3-8.8-16.6-21.4,4.1-14.1,23.2,3.3,8.7,3.6,8.6,11.8-3.9zm103.9-7c0-5.9-12.5-20.4-17.6-20.4-4.2,0-4.8,18.4-0.7,22.5,4.7,4.7,18.3,3.1,18.3-2.1z"/>
   </g>
   <path id="path2555" d="M241.5,336.6c-2.9-2.9-3.1-5.7-0.7-10.7,5.4-11.2,24.2-18.3,31.6-11.9,3.9,3.3,2.9,6.9-3.6,13.4-9.1,9-22.9,13.6-27.3,9.2z" stroke-miterlimit="4" stroke-width="0" fill="#f8e8d3"/>
  </g>
 </g>
</svg>