<?xml version="1.0" encoding="UTF-8" standalone="no"?>
<!-- Created with Inkscape (http://www.inkscape.org/) -->

<svg
   xmlns:dc="http://purl.org/dc/elements/1.1/"
   xmlns:cc="http://creativecommons.org/ns#"
   xmlns:rdf="http://www.w3.org/1999/02/22-rdf-syntax-ns#"
   xmlns:svg="http://www.w3.org/2000/svg"
   xmlns="http://www.w3.org/2000/svg"
   version="1.1"
   width="128"
   height="128"
   id="svg3935">
  <defs
     id="defs3937" />
  <metadata
     id="metadata3940">
    <rdf:RDF>
      <cc:Work
         rdf:about="">
        <dc:format>image/svg+xml</dc:format>
        <dc:type
           rdf:resource="http://purl.org/dc/dcmitype/StillImage" />
        <dc:title></dc:title>
      </cc:Work>
    </rdf:RDF>
  </metadata>
  <rect
     width="117.15254"
     height="117.69492"
     rx="33.639095"
     ry="21.912067"
     x="6.5084748"
     y="5.4237289"
     id="rect3878"
     style="fill:#ffffff;fill-opacity:1;stroke:none" />
  <g
     transform="translate(188.12566,22.260516)"
     id="g3854">
    <path
       d="m -67.53531,104.51271 c 0.22917,-0.1375 1.65417,-1.34094 3.16667,-2.67431 1.5125,-1.33338 2.75,-2.138408 2.75,-1.78896 0,0.97353 -4.2491,4.71327 -5.35523,4.71327 -0.53796,0 -0.7906,-0.1125 -0.56144,-0.25 z m -92.3234,-5.233268 c -10.60506,-2.91845 -19.96833,-10.00832 -21.76672,-16.48175 -1.42485,-5.12886 -1.30157,-77.811004 0.13932,-82.135757 2.53939,-7.621863 12.73301,-14.670962 24.30113,-16.80474 9.40637,-1.735035 62.59834,-1.410992 70.40293,0.428892 10.24152,2.414374 19.572,9.080916 22.10208,15.791725 1.36308,3.615479 1.47798,79.6849 0.12035,79.6849 -0.51754,0 -1.22308,-0.45643 -1.56785,-1.01429 -0.69602,-1.12619 -6.77751,-4.35406 -10.19002,-5.40855 -3.47047,-1.07241 -6.30115,2.46027 -6.30115,7.86382 0,2.44254 0.44169,4.71397 0.98154,5.04761 0.53985,0.33365 4.12408,0.61656 7.96496,0.6287 6.47318,0.0205 6.90124,0.15365 5.85873,1.82299 -1.13168,1.8121 -8.88451,7.20881 -11.95541,8.3221 -0.95678,0.34686 -3.05566,-0.43869 -4.99503,-1.86951 -4.60099,-3.39451 -7.12359,-2.82879 -8.28116,1.85713 l -0.92636,3.749998 -30.57364,-0.0894 c -21.80299,-0.0638 -31.93341,-0.46362 -35.3137,-1.393848 z m 67.18338,-27.37062 c 5.03934,-2.609957 7.31713,-6.241572 7.83552,-12.492574 0.55201,-6.656536 -0.99048,-11.698796 -5.4617,-17.85379 -7.41267,-10.204155 -20.14381,-12.643008 -30.19476,-5.784287 -11.17062,7.622784 -14.16887,20.299232 -6.96679,29.455203 2.44358,3.106503 10.45631,7.332438 16.19947,8.543648 5.61637,1.18446 14.398335,0.30184 18.58826,-1.8682 z m -29.27664,-25.812777 c -1.20893,-1.20893 -0.69422,-4.108782 0.83333,-4.694959 2.4516,-0.940768 4.5,0.410545 4.5,2.968615 0,1.840297 -0.53893,2.393011 -2.33333,2.393011 -1.28334,0 -2.63334,-0.3 -3,-0.666667 z m -33.5375,-2.604166 c -1.66487,-1.664863 -2.60779,-0.01079 -1.05822,1.85632 0.93718,1.12923 1.47919,1.26409 1.755,0.436666 0.21948,-0.658434 -0.0941,-1.690278 -0.69678,-2.292986 z m 3.93672,-13.729167 c 0.44884,0 1.09419,0.45 1.43411,1 1.01582,1.643634 2.11137,1.148367 3.31805,-1.5 1.27672,-2.80211 0.3988,-3.189544 -3.13379,-1.38296 -2.76098,1.411977 -5.63995,4.92589 -5.63925,6.88296 2.9e-4,0.825 0.72149,0.0375 1.60266,-1.75 0.88118,-1.7875 1.96937,-3.25 2.41822,-3.25 z M -162.255,20.126348 c 3.01065,-3.010653 3.49634,-7.690826 1.14631,-11.045964 -1.42781,-2.038494 -12.01638,-6.317672 -15.63269,-6.317672 -1.99504,0 -4.89234,2.58396 -4.84546,4.321429 0.0175,0.648214 0.6969,0.299044 1.50978,-0.775934 1.32719,-1.755102 1.63421,-1.798277 3.0093,-0.42319 1.20214,1.202142 1.30752,2.119941 0.49022,4.269605 -1.56795,4.124004 -1.31814,5.222971 2.06249,9.073294 3.94187,4.489543 8.34618,4.812297 12.26005,0.898432 z m -10.36364,-0.363636 c -2.5405,-2.540505 -2.56386,-7.095092 -0.052,-10.139216 l 1.94801,-2.360784 1.75513,2.5 c 0.96533,1.375 3.02058,3.699447 4.56723,5.165438 l 2.81208,2.665439 -2.65009,2.084561 c -3.32794,2.617762 -5.822,2.642928 -8.38037,0.08456 z m 13.5,-18 c -0.33992,-0.55 -1.06803,-1 -1.61803,-1 -0.55,0 -0.72189,0.45 -0.38197,1 0.33992,0.55 1.06803,1 1.61803,1 0.55,0 0.72189,-0.45 0.38197,-1 z m -3.91667,-10 c 1.91161,0 1.80343,-1.914356 -0.15055,-2.664167 -2.14436,-0.82287 -3.86378,1.128477 -2.94914,3.34695 0.49994,1.212598 0.90456,1.401321 1.21612,0.567217 0.2568,-0.6875 1.10441,-1.25 1.88357,-1.25 z m 77.1875,0.8125 c -0.21771,-0.653125 -0.93051,-1.365727 -1.58401,-1.58356 -0.73075,-0.243583 -0.95424,0.213586 -0.58051,1.1875 0.69752,1.817714 2.76448,2.195921 2.16452,0.39606 z"
       id="path3876"
       style="fill:#cae4d7" />
    <path
       d="m -156.49788,99.643082 c -9.79833,-1.6414 -20.47746,-7.96363 -23.83488,-14.11065 -1.63364,-2.99098 -1.76793,-6.37088 -1.57532,-39.647403 0.18976,-32.783562 0.38009,-36.565003 1.92638,-38.273629 2.25634,-2.493231 3.72497,-0.930774 2.40022,2.553572 -1.60015,4.208722 -1.30929,5.290766 2.5792,9.594859 2.36863,2.621784 4.4718,4.002881 6.09571,4.002881 3.35693,0 7.87891,-2.806889 9.20272,-5.712324 2.91971,-6.408071 -0.13241,-11.164442 -9.10946,-14.19604 -7.12251,-2.40531 -9.86282,-2.601854 -11.73444,-0.841636 -1.09447,1.029333 -1.20631,0.731166 -0.63351,-1.689005 1.64196,-6.93752 9.73442,-13.36545 20.20283,-16.047333 8.29876,-2.126044 65.993051,-2.672959 74.54299,-0.706632 7.23158,1.663129 16.80512,7.819975 19.86954,12.778312 l 2.36925,3.833524 -0.13491,34.040567 c -0.0742,18.722312 -0.16916,36.200967 -0.211,38.841457 l -0.0761,4.80089 -3.25,-2.42712 c -1.7875,-1.33492 -4.96571,-2.97703 -7.0627,-3.64914 -5.61088,-1.79835 -7.6873,0.3686 -7.6873,8.02248 0,6.69904 0.33679,6.952 9.2561,6.952 l 6.09253,0 -2.42432,2.59732 c -1.33337,1.42852 -4.15633,3.48538 -6.27324,4.57079 l -3.84894,1.97348 -5.36363,-2.80822 c -6.00565,-3.14436 -7.07274,-2.79438 -9.02731,2.96071 l -1.088786,3.205918 -27.911194,0.14075 c -15.35115,0.0774 -30.33185,-0.26476 -33.29043,-0.760378 z m 62.37924,-26.77041 c 6.72918,-3.105719 8.8483,-6.216184 9.32393,-13.68572 0.50541,-7.937401 -1.54715,-14.005237 -6.64708,-19.650251 -9.16702,-10.146796 -22.23261,-10.810012 -32.65656,-1.657662 -9.23794,8.111018 -10.06083,22.949027 -1.64371,29.638512 2.73528,2.173853 9.45872,5.532991 12.62342,6.306851 5.78846,1.41545 14.855033,0.96129 19,-0.95173 z m -27.90551,-27.724305 c -0.36303,-0.94605 -0.2431,-2.137043 0.26651,-2.646653 1.54814,-1.548143 4.639,-0.365707 4.639,1.774693 0,2.578348 -3.97928,3.28567 -4.90551,0.87196 z m -34.99032,8.885178 c -1.01652,-1.016515 -1.85525,0.513892 -1.02122,1.863382 0.63003,1.019417 0.86558,1.020206 1.2043,0.004 0.2316,-0.694785 0.14921,-1.535121 -0.18308,-1.867413 z m 3.39583,-8.802218 c 0,-1.596666 -2.65762,-3.144329 -3.66667,-2.135282 -0.31922,0.319226 -0.31394,1.274818 0.0117,2.123539 0.76691,1.998513 3.65493,2.007792 3.65493,0.01174 z m -0.42094,-9.927597 c 0.76629,-3.053126 2.96745,-5.083805 3.89093,-3.589576 1.05299,1.703776 1.99225,1.228927 3.87561,-1.959341 1.54927,-2.622708 1.58351,-3.082075 0.26738,-3.587121 -3.3116,-1.270778 -10.61298,5.608423 -10.61298,9.999312 0,2.501112 1.89375,1.867229 2.57906,-0.863274 z m 17.42094,-27.041018 c 0,-0.825 -0.45,-1.5 -1,-1.5 -0.55,0 -1,0.675 -1,1.5 0,0.825 0.45,1.5 1,1.5 0.55,0 1,-0.675 1,-1.5 z m -21.67534,-5.157991 c 0.90126,-0.901262 -1.25108,-3.342009 -2.9471,-3.342009 -1.71994,0 -1.82138,2.654248 -0.12756,3.337719 1.82564,0.736663 2.34157,0.737383 3.07466,0.0043 z m -5.32466,-9.342009 c 0,-0.55 0.675,-1 1.5,-1 1.91302,0 1.94199,-2.388293 0.048,-3.960131 -3.3359,-2.768548 -7.27672,1.172274 -4.50817,4.50817 1.38863,1.673199 2.96013,1.91314 2.96013,0.451961 z m 79,-0.377555 c 0,-1.847478 -2.65157,-3.955823 -3.9589,-3.147847 -0.72508,0.448122 -0.72772,1.242435 -0.009,2.58609 1.1909,2.224509 3.9679,2.617701 3.9679,0.561757 z m 12,-1.122445 c -0.68469,-0.825 -1.69489,-1.5 -2.24489,-1.5 -0.55783,0 -0.44954,0.66326 0.24489,1.5 0.68469,0.825 1.69489,1.5 2.24489,1.5 0.55783,0 0.44954,-0.66326 -0.24489,-1.5 z m -99.42857,26.928571 c -1.90893,-1.90893 -2.04492,-6.398774 -0.26744,-8.829631 1.19857,-1.639138 1.61712,-1.401197 5.17684,2.942977 3.68306,4.494682 3.78131,4.793234 2.00488,6.09219 -2.46549,1.80281 -4.9807,1.728042 -6.91428,-0.205536 z"
       id="path3874"
       style="fill:#b1d8c4" />
    <path
       d="m -154.83382,99.767342 c -8.27909,-1.06204 -11.78482,-2.73564 -11.78482,-5.62595 0,-2.08857 -0.46455,-2.37868 -3.80887,-2.37868 -4.43444,0 -6.23598,-1.18778 -9.10035,-6 -1.95341,-3.28177 -2.08354,-4.97505 -2.08704,-27.156882 l -0.004,-23.656881 5.13328,-4.343119 c 2.8233,-2.388715 7.43554,-5.468118 10.24943,-6.843118 4.25036,-2.076933 5.62393,-3.463885 8.11672,-8.195811 1.93305,-3.669393 7.5596,-10.37413 15.81498,-18.84553 l 12.81441,-13.14972 22.18559,0.428517 c 24.16354,0.466721 27.01858,1.016517 30.62758,5.897951 1.2396,1.676655 3.77593,3.68444 5.63628,4.461744 1.86035,0.777304 4.08833,2.490574 4.95106,3.807266 2.0927,3.193867 2.36626,10.495365 0.43673,11.656432 -4.184,2.517651 -4.19163,2.559732 -1.03655,5.714812 2.50945,2.509449 3.07049,3.885483 3.07049,7.530785 0,3.547434 -0.39046,4.562398 -1.9078,4.959192 -1.53411,0.40118 -2.04614,1.790696 -2.61408,7.094041 -0.85391,7.973735 -0.14904,11.292605 2.5825,12.159561 3.14949,0.999609 2.18573,4.894883 -1.31062,5.297182 -2.61911,0.301362 -2.75,0.571875 -2.75,5.683578 0,5.111703 0.13089,5.382216 2.75,5.683578 4.08816,0.470394 3.74419,3.931665 -0.5,5.031446 -1.7875,0.463188 -3.25,1.477736 -3.25,2.254546 0,2.87359 -2.27512,2.67493 -5.1272,-0.4477 -3.80281,-4.163541 -5.26651,-3.034861 -6.8334,5.26934 -1.55234,8.22706 -0.4703,11.21777 4.38839,12.12926 1.96471,0.36859 5.25971,0.36737 7.32221,-0.003 l 3.75,-0.67285 -2.93709,3.12753 c -2.82138,3.00463 -5.56291,4.10586 -5.56291,2.23484 0,-1.72859 -3.26852,-2.11952 -6.06347,-0.72522 -2.47133,1.23287 -3.39892,1.2041 -7.38425,-0.22901 -6.057074,-2.17812 -8.085475,-0.97405 -7.965971,4.72862 l 0.08631,4.118618 -26.086309,-0.13112 c -14.34747,-0.0721 -28.65814,-0.46103 -31.80149,-0.864248 z m 52.21518,-5.065 0,-4.06036 -3.75,0.31036 c -3.05062,0.25249 -3.81137,0.74356 -4.07908,2.6331 -0.55143,3.89206 0.51544,5.17727 4.29769,5.17727 3.46204,0 3.53139,-0.07974 3.53139,-4.06037 z m 13.80412,-13.7433 0.30412,-5.30366 -3.09747,1.60176 c -6.126093,3.16793 -6.196996,10.01529 -0.0964,9.30613 2.37262,-0.2758 2.61065,-0.73743 2.88972,-5.60423 z m -14.38591,4.19668 c 2.0084,-0.77069 2.06373,-4.27084 0.0795,-5.03224 -2.62125,-1.00587 -6.49776,0.53032 -6.49776,2.57495 0,2.59134 3.0379,3.75444 6.41821,2.45729 z m 10.22836,-12.46396 c 6.04635,-2.92699 8.72843,-7.658324 8.72843,-15.397418 0,-7.900361 -2.90827,-14.02758 -9.44973,-19.908909 -6.61757,-5.949771 -12.55547,-7.453561 -20.41237,-5.169497 -10.28869,2.991004 -17.5129,11.903568 -17.5129,21.605807 0,6.371643 2.23801,11.257989 6.72318,14.678994 8.14314,6.211073 23.56749,8.236043 31.92339,4.191023 z m -28.61022,-27.385245 c -0.66469,-0.800907 -0.91823,-1.925907 -0.56342,-2.5 0.98898,-1.600213 4.23795,-1.239612 4.92333,0.546437 1.24092,3.233805 -2.06721,4.716096 -4.35991,1.953563 z m 45.77414,11.988515 c 0.37222,-5.767945 -1.16701,-8.038721 -2.88826,-4.260972 -1.40542,3.084545 -0.3864,10.047536 1.38513,9.464696 0.65595,-0.21581 1.33236,-2.557486 1.50313,-5.203724 z m -80.56049,-1.948987 c 0.1375,-0.504166 -0.3125,-1.104166 -1,-1.333333 -0.6875,-0.229167 -1.25,0.333333 -1.25,1.25 0,1.693354 1.79279,1.759753 2.25,0.08333 z m 2.41417,-11.016116 c -0.72467,-1.888454 -3.66417,-2.102823 -3.66417,-0.267217 0,0.715 0.54,1.84 1.2,2.5 1.52284,1.522844 3.29066,-0.07898 2.46417,-2.232783 z m 77.93943,0.66747 c 1.47287,-0.980515 2.6602,-15.308601 1.42819,-17.234687 -0.83813,-1.310313 -1.18457,-1.27495 -2.73956,0.279646 -1.33146,1.331127 -1.87132,3.788393 -2.14205,9.75 -0.36546,8.047554 0.25218,9.336165 3.45342,7.205041 z m -71.68037,-12.600513 c 1.69223,-2.957695 3.07677,-5.66035 3.07677,-6.005901 0,-0.34555 -1.06431,-0.628273 -2.36514,-0.628273 -3.26015,0 -7.58499,3.636394 -9.35062,7.862154 -1.34237,3.212732 -1.31931,3.639037 0.25932,4.793353 2.53696,1.855072 4.80617,0.224498 8.37967,-6.021333 z m 62.99117,-1.134174 c 0.0819,-4.469931 -1.21444,-6.057101 -3.26908,-4.00246 -2.03731,2.037303 -2.04091,2.648852 -0.0429,7.284579 1.43107,3.320376 1.69085,3.504047 2.42971,1.717881 0.45503,-1.1 0.85206,-3.35 0.88229,-5 z m -79.4144,-2.799639 c 1.49617,-0.350371 1.30723,-0.497581 -0.75,-0.58436 -1.5125,-0.0638 -2.75,0.0722 -2.75,0.302212 0,0.230016 -0.28554,1.242516 -0.63453,2.25 -0.58406,1.686068 -0.52439,1.699285 0.75,0.166147 0.76149,-0.916102 2.28453,-1.876402 3.38453,-2.133999 z m 69.5,-1.200361 c 0,-0.95201 -0.958049,-1.5 -2.622445,-1.5 -2.217679,0 -2.4303,0.23152 -1.377555,1.5 0.684689,0.825 1.864789,1.5 2.622445,1.5 0.757655,0 1.377555,-0.675 1.377555,-1.5 z m 20.80963,-8.25 c -0.18536,-0.9625 -0.99969,-1.75 -1.80963,-1.75 -0.80994,0 -1.62427,0.7875 -1.80963,1.75 -0.23646,1.227849 0.30348,1.75 1.80963,1.75 1.50615,0 2.04609,-0.522151 1.80963,-1.75 z m -18.80963,-4.726167 c 0,-3.935291 -1.04637,-4.969336 -3.28045,-3.2418 -1.778701,1.37541 -2.554428,5.580902 -1.378008,7.470671 1.496055,2.403221 4.658458,-0.467556 4.658458,-4.228871 z m 9.35358,3.232089 c 0.3458,-1.322338 -1.6e-4,-2.831075 -0.84228,-3.673189 -1.23881,-1.238817 -1.56774,-1.064491 -2.4702,1.309177 -1.45657,3.831053 -1.31454,4.60809 0.84227,4.60809 1.11065,0 2.12414,-0.920717 2.47021,-2.244078 z m -52.79427,-7.851883 c 0.37253,-0.602779 0.0616,-1.711505 -0.69099,-2.463836 -1.73476,-1.734194 -4.39794,-0.262765 -3.54542,1.958872 0.7028,1.831481 3.23037,2.132758 4.23641,0.504964 z M -83.99958,-4.39198 c -0.34701,-1.735081 -1.13336,-3.760081 -1.74744,-4.5 -1.30906,-1.577311 -4.48406,-1.781413 -5.37162,-0.345308 -0.33992,0.55 -0.15731,1 0.4058,1 1.8977,0 3.35714,3.978255 2.04115,5.563922 -0.99422,1.197964 -0.65339,1.436078 2.05561,1.436078 3.11032,0 3.2208,-0.133203 2.6165,-3.154692 z m -8.01489,-2.574475 c -0.3323,-0.332291 -0.56864,0.258334 -0.52522,1.3125 0.048,1.164943 0.28494,1.4019 0.60416,0.604167 0.28887,-0.721875 0.25335,-1.584375 -0.0789,-1.916667 z"
       id="path3872"
       style="fill:#a5d0ba" />
    <path
       d="m -154.94072,99.632822 c -8.4875,-1.09097 -10.59201,-2.19057 -11.3388,-5.92449 -0.53996,-2.69985 -0.93961,-2.94562 -4.78981,-2.94562 -4.33565,0 -6.9291,-1.83941 -9.42435,-6.68426 -0.73593,-1.42892 -1.12496,-10.02137 -1.12496,-24.847238 l 0,-22.662981 5.15098,-4.65276 c 2.83304,-2.559019 7.67054,-6.002761 10.75,-7.652761 4.4727,-2.396506 6.01854,-3.905241 7.68447,-7.5 1.23496,-2.664793 7.55623,-10.289637 15.5,-18.69642 l 13.41455,-14.19642 22,0.268122 c 24.10445,0.293768 28.01989,1.080816 30.30277,6.091198 0.71772,1.575219 2.93167,3.348061 5.62037,4.500574 4.95198,2.122667 6.5759,4.387259 6.76566,9.434892 0.0985,2.619554 -0.5528,4.018356 -2.7801,5.971021 l -2.9087,2.550054 3.25,3.089175 c 2.62136,2.491641 3.25,3.871194 3.25,7.132109 0,3.118289 -0.43068,4.15556 -1.88312,4.535382 -2.1105,0.551906 -3.08809,4.63964 -3.10587,12.986906 -0.009,4.449255 0.35863,5.435854 2.65127,7.105926 3.28819,2.395282 2.68003,5.206737 -0.97514,4.508005 -2.30996,-0.441575 -2.49845,-0.157358 -2.90058,4.373605 -0.5533,6.234295 -0.24311,6.991068 3.38381,8.255417 3.76058,1.310945 3.23142,3.485788 -0.94896,3.900201 -2.04094,0.202324 -3.33813,0.982642 -3.74037,2.250003 -0.79526,2.50563 -3.16845,2.50048 -3.9648,-0.009 -0.69906,-2.202527 -4.26093,-3.706459 -5.60204,-2.36535 -0.98475,0.984746 -2.9142,10.25293 -2.9142,13.99844 0,1.32619 1.19553,3.51924 2.65674,4.87344 1.4612,1.3542 2.4737,2.59159 2.25,2.74977 -2.86276,2.02415 -6.43899,2.61337 -9.78223,1.61171 -2.04182,-0.61175 -4.81763,-0.95632 -6.168458,-0.76571 -2.2255,0.31402 -2.450153,0.79244 -2.393211,5.09655 l 0.06284,4.749998 -25.562841,-0.1265 c -14.05956,-0.0696 -28.63278,-0.5211 -32.38492,-1.003388 z m 50.74029,-0.4771 c 1.06756,-0.40966 1.58179,-1.87257 1.58179,-4.5 0,-3.87518 -0.0183,-3.89301 -4,-3.89301 -3.9882,0 -4,0.0116 -4,3.93045 0,3.28095 0.37181,4.00206 2.25,4.36382 1.2375,0.23835 2.3257,0.49465 2.41821,0.56955 0.0925,0.0749 0.88002,-0.13696 1.75,-0.47081 z m 15.9515,-14.64301 c 1.12588,-4.2012 0.71363,-8.75 -0.79298,-8.75 -2.43305,0 -7.57673,5.03879 -7.57673,7.42223 0,2.99576 0.740172,3.57777 4.55004,3.57777 2.49051,0 3.35282,-0.50795 3.81967,-2.25 z m -13.35865,-0.77067 c 1.50632,-2.81457 0.45216,-3.97933 -3.60146,-3.97933 -3.60135,0 -5.12487,1.69365 -4.04797,4.5 0.8785,2.28935 6.34468,1.91728 7.64943,-0.52067 z m -59.71939,-4.35433 c 0.50416,-1.5125 0.64014,-3.02652 0.30216,-3.3645 -0.87747,-0.87748 -3.52419,2.89182 -3.56203,5.07283 -0.0464,2.67204 2.19048,1.49982 3.25987,-1.70833 z m 68.78808,-6.94877 c 5.98243,-3.163585 8.4199,-7.581578 8.37297,-15.17623 -0.06033,-9.761507 -6.02465,-19.550112 -14.749322,-24.206503 -4.364838,-2.32953 -14.122108,-2.27195 -18.703398,0.110372 -8.83084,4.592132 -14.28835,12.782346 -14.21156,21.327632 0.0608,6.764163 2.39087,10.826473 8.61509,15.019631 6.18905,4.169468 9.37186,5.048008 18.68919,5.158678 6.133492,0.0729 8.437243,-0.35641 11.98703,-2.23358 z M -121.3405,45.640857 c -1.3239,-1.323904 -0.58041,-3.878145 1.12885,-3.878145 2.18226,0 3.65782,2.216984 2.44677,3.676206 -1.342,1.617016 -2.11678,1.660773 -3.57562,0.201939 z m -35.29345,21.871855 c -0.008,-0.6875 -0.45153,-1.925 -0.98469,-2.75 -0.75538,-1.168875 -0.97275,-0.892937 -0.98469,1.25 -0.008,1.5125 0.43469,2.75 0.98469,2.75 0.55,0 0.99311,-0.5625 0.98469,-1.25 z m 80.81518,-10.662297 c 0.26697,-5.56739 0.10238,-6.216116 -1.5,-5.912315 -1.96217,0.372017 -2.95401,6.082155 -1.83257,10.550328 1.12368,4.477131 3.02218,1.834955 3.33257,-4.638013 z m -80.54987,-1.50437 c 0.1375,-0.504166 -0.3125,-1.104166 -1,-1.333333 -0.6875,-0.229167 -1.25,0.333333 -1.25,1.25 0,1.693354 1.79279,1.759753 2.25,0.08333 z m 2.41417,-11.016116 c -0.33077,-0.861969 -1.54208,-1.567217 -2.6918,-1.567217 -2.07769,0 -2.00929,0.760786 0.34095,3.792382 1.30497,1.683291 3.17238,-0.08428 2.35085,-2.225165 z m 79.51171,-3.567217 c 0.37173,-2.475 0.70923,-6.6375 0.75,-9.25 0.0637,-4.080131 -0.20297,-4.75 -1.8907,-4.75 -2.82333,0 -3.80631,2.550993 -4.04597,10.5 -0.27196,9.020262 -0.36118,8.69193 2.26079,8.319551 1.82752,-0.259549 2.37691,-1.164513 2.92588,-4.819551 z m -73.82602,-7.149768 c 2.00758,-3.382372 3.65014,-6.505814 3.65014,-6.940983 0,-3.500192 -8.17453,-0.311698 -10.97436,4.280575 -2.01783,3.309636 -2.61491,6.887571 -1.35897,8.143509 0.36666,0.366667 1.6491,0.666667 2.84986,0.666667 1.6119,0 3.13836,-1.609271 5.83333,-6.149768 z m 63.63483,-2.541215 c 0.017,-4.653126 -1.27319,-6.144402 -3.6263,-4.191495 -1.74984,1.45224 -1.30712,7.034399 0.75495,9.519042 1.71898,2.071245 2.85199,-0.03097 2.87135,-5.327547 z m -81.57405,1.190983 c -0.55289,-2.202893 -0.30756,-2.5 2.06429,-2.5 3.41759,0 2.8758,-2.379588 -0.63764,-2.800558 -3.54045,-0.424206 -5.46239,2.133189 -4.00575,5.330172 1.48088,3.250174 3.39676,3.228176 2.5791,-0.02961 z m 71.58936,-4.893011 c 0,-1.816535 -2.299474,-2.667855 -4.090684,-1.514469 -1.201385,0.77359 -1.188005,1.052761 0.09068,1.892167 2.153664,1.41379 4,1.239451 4,-0.377698 z m 20.9357,-6.546086 c 1.18984,-0.7529 1.21168,-1.178393 0.12755,-2.484688 -1.98679,-2.393938 -4.06325,-1.921853 -4.06325,0.923785 0,2.578661 1.43062,3.146048 3.9357,1.560903 z m -9.7828,-2.497133 c 0.61051,-1.339927 0.83999,-3.139927 0.50994,-4 -0.99627,-2.596251 -3.46099,-1.759261 -4.15748,1.411831 -1.11069,5.056928 1.63501,7.005183 3.64754,2.588169 z m -8.98606,-2.06377 c 1.03946,-3.890798 0.17374,-6.5 -2.15668,-6.5 -2.077132,0 -4.599078,6.02292 -3.605794,8.611378 1.0147,2.644266 4.869274,1.231945 5.762474,-2.111378 z m -43.66684,-7.5 c 0,-1.832728 -0.60174,-2.585447 -2.25447,-2.820137 -2.45711,-0.348911 -3.85266,1.795603 -2.85699,4.390274 0.3614,0.941801 1.50471,1.442025 2.85699,1.25 1.65273,-0.23469 2.25447,-0.987409 2.25447,-2.820137 z m 52.9407,-12.25 c -1.47779,-4.790615 -3.55173,-7.75 -5.4312,-7.75 -2.24824,0 -4.0095,2.789774 -4.0095,6.350925 0,2.86863 1.04849,3.461162 6.31739,3.570128 3.51107,0.07261 3.76169,-0.101595 3.12331,-2.171053 z m -6.77403,-0.416667 c -0.36667,-0.366666 -0.65299,-1.379166 -0.63626,-2.25 0.025,-1.300307 0.22011,-1.257107 1.09166,0.24167 1.07678,1.85169 0.76461,3.228342 -0.4554,2.00833 z m 14.17817,95.591387 c -1.55555,-1.63062 -1.39348,-1.80094 2.69282,-2.82988 2.39139,-0.60216 4.62527,-1.09484 4.96418,-1.09484 1.1124,0 -0.51131,1.87169 -3.28208,3.78332 -2.57981,1.77989 -2.80493,1.78717 -4.37492,0.1414 z"
       id="path3870"
       style="fill:#9bccb4" />
    <path
       d="m -150.11864,99.652942 c -5.5,-0.33538 -11.2375,-1.11174 -12.75,-1.72525 -2.40413,-0.97518 -2.75,-1.6594 -2.75,-5.44023 0,-4.62983 1.3084,-6.72475 4.2,-6.72475 0.99,0 1.8,-0.68465 1.8,-1.52144 0,-0.83679 1.125,-2.03402 2.5,-2.66051 2.92647,-1.33339 2.90897,-1.16118 1.0879,-10.71026 -0.80987,-4.246671 -2.30472,-8.501869 -3.513,-9.999995 -4.05743,-5.030728 -4.58161,-6.890402 -2.56902,-9.114289 1.51638,-1.675588 1.64993,-2.579189 0.79358,-5.369449 -1.52492,-4.968634 -0.15673,-6.620602 5.50023,-6.641032 l 4.70031,-0.01697 3.90447,-7.233026 c 5.25234,-9.729954 8.36037,-13.401918 16.72827,-19.763531 l 7.08226,-5.384217 -0.57033,-4.161039 c -0.56593,-4.128944 -0.52241,-4.1983 5.6425,-8.992032 7.24326,-5.632239 11.38048,-7.32772 18.02857,-7.388313 6.69313,-0.061 8.90322,1.250001 7.65258,4.539435 -0.53258,1.400779 -0.96811,3.755076 -0.96784,5.231772 4.5e-4,2.558835 0.2587,2.696066 5.5,2.922711 6.54835,0.283165 6.79079,-0.421933 2.96842,-8.633147 -1.38136,-2.967435 -2.30711,-5.599784 -2.05723,-5.849665 1.13862,-1.138623 7.76553,2.18512 9.65927,4.84463 1.15753,1.625596 4.25895,4.047321 6.89204,5.38161 5.12558,2.597332 6.03702,3.922543 6.03702,8.777722 0,2.25959 -0.87755,3.84039 -3.25,5.854515 l -3.25,2.759129 3.75,3.136501 c 3.19152,2.669393 3.75,3.735309 3.75,7.157318 0,3.103841 -0.43165,4.133693 -1.89272,4.515771 -2.22128,0.58088 -3.10728,4.122195 -3.10728,12.419752 0,5.138593 0.30475,6.051627 2.5,7.49001 3.45522,2.263949 3.22129,4.408043 -0.48095,4.408043 -3.41871,0 -4.36814,2.125928 -3.83864,8.595323 0.28008,3.421994 0.65954,3.943792 3.06959,4.221099 1.94275,0.223538 2.75,0.884018 2.75,2.25 0,1.494756 -0.70209,1.933578 -3.09362,1.933578 -2.25262,0 -3.2358,0.543702 -3.61663,2 -0.69546,2.65946 -2.57861,2.53854 -3.80262,-0.244158 -1.13851,-2.588319 -3.96477,-3.43425 -5.9551,-1.782428 -0.79655,0.661083 -1.66658,4.283446 -2.0746,8.637576 -0.64125,6.84307 -0.51346,7.70047 1.46095,9.80213 l 2.16366,2.30311 -2.66477,1.74602 c -2.13398,1.39823 -3.14745,1.52609 -5.08807,0.64188 -1.33282,-0.60727 -3.98827,-1.10413 -5.901,-1.10413 -3.944964,0 -5.612637,2.58435 -4.711066,7.30061 0.468151,2.448974 0.236771,2.699384 -2.494224,2.699384 l -3.01025,0 1.0155,-4.000734 c 1.28026,-5.04384 -0.20543,-7.23473 -4.61144,-6.80033 -2.48393,0.2449 -3.2269,0.90903 -3.98232,3.55974 -0.7205,2.52815 -0.57537,3.64902 0.64742,5 1.49172,1.648074 0.73652,1.741324 -14.10285,1.741324 -8.62343,0 -20.17897,-0.274394 -25.67897,-0.609764 z m 62.30226,-18.64023 c 0.245,-4.25547 0.002,-5.25 -1.28518,-5.25 -2.45923,0 -6.603852,3.09803 -7.580223,5.66608 -1.501624,3.94957 -0.184376,5.47314 4.439823,5.13523 l 4.12332,-0.30131 0.30226,-5.25 z m -66.6747,3 c 1.26951,-1.61876 1.22245,-1.63998 -0.62756,-0.28297 -1.1,0.80687 -2.1875,1.59437 -2.41667,1.75 -0.22916,0.15563 0.0532,0.28297 0.62756,0.28297 0.57432,0 1.66182,-0.7875 2.41667,-1.75 z m 53.37244,-1.75 c 0,-2.86701 -0.17476,-2.98926 -3.94238,-2.75762 -4.91163,0.30198 -6.09401,1.38684 -4.58486,4.20673 0.92293,1.72451 1.90612,2.1016 4.84264,1.85736 3.35923,-0.27941 3.6846,-0.57139 3.6846,-3.30647 z m 9,-9.83559 c 7.25859,-3.927644 10.30742,-13.851124 7.05606,-22.96642 -4.67988,-13.120216 -17.65043,-21.07099 -28.90559,-17.718749 -15.96328,4.754512 -23.40276,22.842673 -13.99391,34.024453 3.02706,3.597454 10.75731,7.763016 16.69849,8.998226 5.91538,1.22986 14.486098,0.18341 19.14495,-2.33751 z m -28.8125,-26.310243 c -1.47104,-1.471037 -0.69742,-4.502726 1.0625,-4.163796 0.9625,0.18536 1.75,1.193356 1.75,2.239991 0,1.989541 -1.63108,3.105229 -2.8125,1.923805 z m 45.64691,13.30034 c 1.17204,-4.955876 0.16625,-8.654507 -2.35346,-8.654507 -1.74821,0 -1.98095,0.685368 -1.98095,5.833333 0,3.208334 0.30938,6.142709 0.6875,6.520834 1.36563,1.365634 2.79095,-0.0803 3.64691,-3.69966 z m -80.33441,-3.59549 c 0,-1.350368 -1.82294,-2.286482 -3.01631,-1.548936 -0.55897,0.345464 -0.75742,1.047021 -0.44099,1.559017 0.75068,1.214616 3.4573,1.206724 3.4573,-0.01008 z m 2,-10.58285 c 0,-1.664386 -3.64747,-3.855585 -4.39761,-2.641839 -0.73993,1.19723 2.34703,5.314965 3.46603,4.623385 0.51237,-0.316661 0.93158,-1.208357 0.93158,-1.981546 z m 79.35815,-3.226167 c 0.34091,-2.0625 0.62479,-6.3375 0.63084,-9.5 0.01,-4.962246 -0.24622,-5.75 -1.86655,-5.75 -3.10037,0 -4.13477,2.348007 -4.79262,10.87893 l -0.62625,8.12107 3.01737,0 c 2.70988,0 3.08054,-0.38215 3.63721,-3.75 z M -84.61864,31.134144 c 0,-5.142643 -0.15021,-5.4892 -2.25,-5.190983 -2.88929,0.410345 -3.62351,5.837457 -1.2747,9.422191 2.31846,3.538429 3.5247,2.09041 3.5247,-4.231208 z m -10,-3.871432 c 0,-1.807995 -0.537268,-2.5 -1.940983,-2.5 -2.803537,0 -3.669797,2.080221 -1.520663,3.651704 2.658885,1.944223 3.461646,1.677141 3.461646,-1.151704 z m 21.53894,-6.563013 c 0.79141,-1.280525 -2.4424,-5.114683 -3.67259,-4.354389 -0.47649,0.29449 -0.86635,1.633878 -0.86635,2.976419 0,1.749576 0.54978,2.440983 1.94098,2.440983 1.06754,0 2.23663,-0.478356 2.59796,-1.063013 z m -10.57412,-1.871246 c 1.49477,-2.793002 1.27371,-5.03698 -0.56574,-5.742843 -1.96954,-0.755781 -3.36342,1.273858 -3.38377,4.927102 -0.0181,3.243948 2.38441,3.74016 3.94951,0.815741 z m -8.89469,-1.750197 c 1.41804,-3.729737 0.78887,-6.726621 -1.50403,-7.164069 -2.541592,-0.484893 -4.5661,2.414647 -4.5661,6.539655 0,2.871445 0.333766,3.30887 2.524751,3.30887 1.819199,0 2.809969,-0.750185 3.545379,-2.684456 z m 21.42764,-17.940833 c -0.93069,-0.680539 -2.43593,-0.951469 -3.34497,-0.602067 -1.31244,0.504454 -1.13798,0.756164 0.8472,1.222311 1.63994,0.38508 2.65086,1.43299 2.93851,3.046039 l 0.4385,2.459006 0.40647,-2.443972 c 0.25178,-1.513936 -0.23748,-2.914835 -1.28571,-3.681317 z M -74.45,91.670122 c 0.21808,-1.49576 1.27153,-2.52263 3.08136,-3.00361 3.6107,-0.95957 3.48514,0.17657 -0.33136,2.99823 l -3.08135,2.27814 0.33135,-2.27276 z"
       id="path3868"
       style="fill:#88b7a0" />
    <path
       d="m -159.46129,98.767702 c -4.47453,-1.0579 -5.57222,-2.35253 -5.45649,-6.43546 0.13597,-4.79652 0.86973,-5.56953 5.28673,-5.56953 4.00748,0 7.48938,-2.31466 6.67486,-4.43725 -0.24891,-0.64865 -1.20778,-4.97813 -2.13083,-9.62106 -1.15096,-5.789301 -2.59784,-9.749859 -4.60495,-12.605168 -3.27484,-4.658783 -3.72356,-7.791182 -1.3096,-9.142097 1.41139,-0.789856 1.45246,-1.360146 0.32291,-4.483855 -1.76912,-4.892431 -0.17685,-6.811886 5.36263,-6.464568 l 4.05109,0.253998 4.09622,-7.231856 c 5.54287,-9.785901 10.34223,-15.305186 18.15944,-20.883431 l 6.572,-4.689681 -0.61999,-4.134357 c -0.60153,-4.011292 -0.48187,-4.237445 4.0199,-7.597516 8.31438,-6.205751 12.3816,-7.964433 18.38062,-7.947846 7.34055,0.0203 8.27087,0.686288 7.02534,5.02921 -1.913588,6.672295 -1.689144,6.955477 5.51277,6.955477 7.64956,0 7.87477,-0.504748 3.9689,-8.895336 -1.38136,-2.967435 -2.34993,-5.556964 -2.15239,-5.754509 1.06958,-1.069577 6.45858,2.190007 8.18349,4.949851 1.1,1.759997 4.025,4.215897 6.5,5.457556 8.17947,4.10348 9.35547,8.862955 3.36997,13.638801 l -3.62998,2.896364 4.13001,3.813511 c 3.3441,3.087837 4.13,4.487163 4.13,7.353637 0,2.846103 -0.38321,3.540125 -1.95469,3.540125 -2.28052,0 -3.06649,3.031494 -3.35665,12.946625 -0.17443,5.960495 -1.4e-4,6.542411 2.31134,7.716852 3.48989,1.77318 3.12793,3.77598 -0.75,4.149881 l -3.25,0.313359 0,5.988661 c 0,5.755 0.11705,6.029465 3,7.034467 3.36939,1.174574 4.00536,2.850155 1.08179,2.850155 -2.94377,0 -5.08179,1.071987 -5.08179,2.547972 0,2.567368 -2.00217,2.541368 -3.17891,-0.04128 -0.96068,-2.108473 -1.77216,-2.548861 -4.24987,-2.306388 -3.52734,0.345191 -4.25555,2.343742 -4.45291,12.220958 -0.0837,4.19055 0.35621,6.4456 1.50517,7.71518 1.51506,1.67412 1.44828,1.87374 -1,2.98925 -2.00285,0.91256 -3.22604,0.9208 -5.17053,0.0348 -6.15099,-2.80258 -10.915018,-0.24418 -10.244252,5.50141 0.329747,2.82452 0.07444,3.33832 -1.659498,3.33969 -1.77832,0.001 -2.0492,-0.62649 -2.0492,-4.75 l 0,-4.75162 -4.5,0 -4.5,0 0,4.75162 0,4.75162 -22.5,-0.10398 c -12.375,-0.0572 -24.00419,-0.45961 -25.84265,-0.89427 z m 70.70155,-11.89662 c 1.63798,-1.03784 2.59808,-9.0615 1.31164,-10.96162 -0.74074,-1.09409 -1.37143,-1.11803 -3.29337,-0.12503 -6.354088,3.28295 -8.902303,8.69937 -5.12717,10.89818 2.15225,1.25357 5.29632,1.33693 7.1089,0.18847 z m -12.53551,-0.85837 c 0.24278,-0.4125 0.76057,-2.23745 1.15064,-4.05544 l 0.709233,-3.30543 -5.341633,0.30543 c -4.80228,0.2746 -5.37646,0.55221 -5.6866,2.74941 -0.21205,1.5023 0.34322,2.94719 1.44113,3.75 1.93018,1.41138 7.00872,1.77682 7.72723,0.55603 z m 5.400991,-11.76079 C -72.2685,67.235826 -85.9659,28.174744 -111.06011,31.003225 c -16.70212,1.882571 -27.39192,22.907096 -17.421,34.263342 7.85218,8.943145 20.75173,12.500005 32.586851,8.985355 z m -25.534011,-30.23921 c 0.43738,-2.271113 3.18188,-2.271113 3.61926,0 0.23646,1.227849 -0.30348,1.75 -1.80963,1.75 -1.50615,0 -2.04609,-0.522151 -1.80963,-1.75 z m 46.36016,17.404677 c 0.32376,-1.289928 0.44483,-4.102428 0.26906,-6.25 -0.25942,-3.16958 -0.74318,-3.964836 -2.56959,-4.224228 -2.13743,-0.303564 -2.25,0.0091 -2.25,6.25 0,5.881823 0.20737,6.569551 1.98095,6.569551 1.24418,0 2.19988,-0.872285 2.56958,-2.345323 z m -80.55053,-6.154677 c 0,-0.833333 -0.88889,-1.5 -2,-1.5 -1.99224,0 -2.60112,1.065542 -1.33333,2.333333 1.21793,1.217929 3.33333,0.689078 3.33333,-0.833333 z m 2,-9.893011 c 0,-2.544352 -2.71303,-4.293955 -4.25986,-2.747131 -1.23556,1.235562 0.88762,5.140142 2.79504,5.140142 0.87834,0 1.46482,-0.958103 1.46482,-2.393011 z m 78.82918,-0.356989 c 0.49474,-0.9625 1.19189,-5.411933 1.54921,-9.887628 0.55102,-6.902041 0.40878,-8.230065 -0.93681,-8.746414 -2.69558,-1.034394 -5.13505,1.111315 -5.79354,5.095887 -1.06709,6.457078 -0.7534,14.078976 0.60196,14.625874 2.38442,0.962135 3.6842,0.653389 4.57918,-1.087719 z m -9.63193,-13.25 c 0.29409,-5.342628 0.22406,-5.509054 -2.44725,-5.816422 -2.62652,-0.302214 -2.75,-0.121366 -2.75,4.027493 0,4.458403 2.57815,9.612946 4.06298,8.1232 0.45733,-0.458849 0.96775,-3.309271 1.13427,-6.334271 z m -9.69725,-4.5 c 0,-2.084913 -2.525071,-3.088093 -5.194533,-2.063724 -1.399597,0.537075 -1.371727,0.83303 0.246907,2.621597 2.21722,2.45 4.947626,2.142131 4.947626,-0.557873 z m 21.5,-7.3 c 0,-3.98138 -4.38805,-5.648106 -5.33513,-2.026459 -0.75521,2.887912 -0.04534,3.826459 2.89415,3.826459 1.68391,0 2.44098,-0.558272 2.44098,-1.8 z m -19.97525,-1.7651 c 0.96875,-2.548001 1.35752,-8.4349 0.55704,-8.4349 -0.23002,0 -1.072,-0.25088 -1.87106,-0.55751 -2.338181,-0.897243 -4.71073,2.357468 -4.71073,6.462272 0,2.069048 0.3,4.061905 0.666667,4.428571 1.54391,1.543911 4.439353,0.518023 5.358083,-1.898433 z m 9.36826,0.983313 c 0.94945,-2.474232 0.71294,-6.234697 -0.43681,-6.945286 -1.82263,-1.126447 -3.9562,1.650674 -3.9562,5.149518 0,2.647258 0.40931,3.377555 1.89301,3.377555 1.04116,0 2.16616,-0.711804 2.5,-1.581787 z M -68.61864,2.962712 c 0,-1.54 -0.54,-3.34 -1.2,-4 -1.89977,-1.899773 -5.54657,-1.399916 -7.2203,0.989668 -1.69369,2.418089 -1.23213,3.862761 0.63697,1.993665 2.01928,-2.019288 4.70032,-1.362256 5.37269,1.316667 0.84591,3.370395 2.41064,3.175668 2.41064,-0.3 z m -35,-8.259017 c 0,-0.517541 -0.675,-0.940983 -1.5,-0.940983 -1.54641,0 -1.9867,1.179963 -0.86052,2.306147 0.79893,0.798931 2.36052,-0.104186 2.36052,-1.365164 z m 30,96.550687 c 0,-1.68108 2.21789,-2.91904 4.10356,-2.29048 0.64325,0.21441 -0.0169,1.16724 -1.46701,2.11738 -2.3104,1.51383 -2.63655,1.53525 -2.63655,0.1731 z m -85,-7.26224 c 0,-0.5585 0.675,-1.27447 1.5,-1.59106 0.825,-0.31658 1.5,-0.41982 1.5,-0.22943 0,0.19039 -0.675,0.90637 -1.5,1.59106 -0.86459,0.71755 -1.5,0.81474 -1.5,0.22943 z"
       id="path3866"
       style="fill:#70a78c" />
    <path
       d="m -143.93354,95.512712 c -5.0549,-6.22922 -8.45735,-13.63313 -10.80218,-23.50614 -1.34506,-5.663416 -3.09866,-10.132278 -4.97957,-12.689921 -3.37138,-4.584364 -3.47954,-5.259776 -1.23881,-7.735755 1.3589,-1.501569 1.47383,-2.46069 0.62592,-5.223456 -1.43347,-4.670648 -0.36983,-5.907733 4.66649,-5.427443 l 4.19505,0.400063 4.674,-8.397007 c 3.19993,-5.748794 6.80339,-10.4062 11.42592,-14.767799 10.93561,-10.318337 20.61818,-13.981185 35.03422,-13.253208 7.03985,0.355496 9.55063,-0.533287 3.71386,-1.314658 -4.91453,-0.65791 -2.383522,-2.340139 3.96915,-2.638082 8.55058,-0.401026 10.35026,0.161984 11.66677,3.649817 0.92301,2.445323 1.53634,2.843315 3.73424,2.42316 2.05466,-0.392772 2.62984,-0.107691 2.62984,1.303442 0,0.993391 2.29158,3.923962 5.0924,6.51238 3.87808,3.583979 5.14598,5.480164 5.3171,7.951859 0.16638,2.403208 -0.2428,3.3679 -1.57645,3.716656 -2.33245,0.60995 -3.8204,6.059324 -3.82747,14.017531 -0.005,5.721671 0.21358,6.371292 2.49442,7.410515 3.26441,1.487366 3.17108,2.607985 -0.25,3.001624 -2.52892,0.290984 -2.80366,0.756149 -3.41754,5.786233 -0.78264,6.412822 0.29059,9.030189 3.70272,9.030189 1.35565,0 2.46482,0.45 2.46482,1 0,0.55 -1.48813,1 -3.30696,1 -2.68778,0 -3.50247,0.514896 -4.35117,2.75 l -1.04422,2.75 -1.09154,-2.664431 c -1.12669,-2.750225 -4.37745,-4.465746 -6.25884,-3.302977 -1.94594,1.202651 -3.04353,5.757908 -3.06554,12.722688 -0.0119,3.77912 0.48884,7.4863 1.11284,8.23818 1.51637,1.82711 -2.59185,4.30926 -4.30193,2.59918 -0.60095,-0.60095 -3.01727,-1.09264 -5.36959,-1.09264 -3.455257,0 -4.590732,0.4789 -5.910234,2.49271 -1.023448,1.56198 -1.398324,3.4289 -1.004,5 0.47086,1.87606 0.235447,2.50729 -0.935076,2.50729 -1.23701,0 -1.4311,-0.71038 -0.92752,-3.3947 0.90761,-4.83797 -0.85624,-7.60892 -4.8314,-7.58999 -4.80257,0.0229 -5.93868,1.21073 -6.08439,6.3615 -0.3068,10.845748 -2.60421,0.33817 -2.62174,-11.99095 l -0.009,-6.11414 -4.75,-1.79792 c -6.03142,-2.28294 -10.65334,-5.772316 -13.28413,-10.029019 -2.32304,-3.758755 -2.96996,-4.033243 -11.71587,-4.971009 l -6.25,-0.670146 0,7.048966 c 0,13.151178 3.10877,22.117438 9.91079,28.584498 3.37628,3.21003 3.86733,4.56291 1.65616,4.56291 -0.78818,0 -2.98501,-1.9125 -4.88185,-4.25 z m 57.11262,-14.5 c 0.27941,-5.86567 0.16223,-6.25 -1.90561,-6.25 -2.72722,0 -8.539534,4.31377 -9.379909,6.96156 -0.342649,1.07959 -0.119662,2.90339 0.495527,4.05288 0.932619,1.74261 1.897521,2.03976 5.805402,1.78777 l 4.68687,-0.30221 0.29772,-6.25 z m -13.40471,4.16821 c 0.333845,-0.86998 0.60699,-2.89498 0.60699,-4.5 0,-2.86345 -0.10118,-2.91821 -5.39159,-2.91821 -4.92875,0 -5.4459,0.21638 -6.0242,2.52052 -1.07913,4.29958 0.88697,6.47948 5.84399,6.47948 3.05127,0 4.53981,-0.47425 4.96481,-1.58179 z m 8.10699,-12.01422 c 5.62027,-2.923678 8.46859,-8.277249 8.46159,-15.90399 -0.007,-7.177434 -2.21533,-12.557966 -7.61211,-18.543305 -9.96595,-11.052808 -25.71164,-10.529452 -35.74131,1.187969 -10.7252,12.52998 -5.72488,28.199755 10.88411,34.108116 6.82323,2.42725 18.503946,2.01428 24.00772,-0.84879 z m -29.5,-28.90399 c 0,-0.833333 0.88889,-1.5 2,-1.5 1.11111,0 2,0.666667 2,1.5 0,0.833333 -0.88889,1.5 -2,1.5 -1.11111,0 -2,-0.666667 -2,-1.5 z m 45.73879,19.25 c 1.54607,-1.964642 2.25401,-8.638734 1.20813,-11.389609 -0.69162,-1.819094 -1.56191,-2.412181 -3.19853,-2.179731 -1.99585,0.283472 -2.28236,0.974658 -2.55081,6.153713 -0.37013,7.140513 1.87395,10.805006 4.54121,7.415627 z m -79.73879,-8.25 c 0,-1.935447 -1.96311,-2.936891 -3.24475,-1.655249 -0.76065,0.760648 -0.70263,1.513721 0.20044,2.601857 1.40976,1.698653 3.04431,1.1904 3.04431,-0.946608 z m 2.41026,-9.126748 c 0.78975,-2.05804 -1.08048,-4.373252 -3.5327,-4.373252 -2.11242,0 -2.36524,1.220243 -0.84238,4.065741 1.26217,2.358385 3.527,2.517572 4.37508,0.307511 z m 79.2062,-1.981227 c 0.36,-1.434387 0.70608,-6.046887 0.76905,-10.25 0.11325,-7.558951 0.0856,-7.645364 -2.53911,-7.949145 -2.23291,-0.258431 -2.82192,0.217173 -3.71536,3 -1.26294,3.933731 -1.74841,14.999174 -0.73033,16.646472 0.39453,0.638357 1.80719,1.160648 3.13925,1.160648 1.77615,0 2.59647,-0.695395 3.0765,-2.607975 z m -10.24675,-7.642025 c 1.24027,-4.628053 0.69895,-10.786424 -1.00563,-11.440532 -4.58228,-1.758387 -6.7759,4.976053 -3.40081,10.440532 2.35979,3.820653 3.57654,4.096781 4.40644,1 z m -9.36971,-9.225684 c 0,-2.625493 -1.303333,-3.380149 -4.712258,-2.728491 -3.106152,0.593778 -2.882432,2.828713 0.458383,4.579141 3.283955,1.72064 4.253875,1.298677 4.253875,-1.85065 z m 21.08179,-5.524316 c 1.60425,0 0.9904,-2.624691 -1.04454,-4.466294 -2.49441,-2.257409 -5.03725,-1.322721 -5.03725,1.851576 0,2.542645 1.53725,3.760437 3.83179,3.03549 0.73248,-0.231425 1.74498,-0.420772 2.25,-0.420772 z m -10.29399,-3.243123 c 1.55605,-3.24659 0.0596,-7.066725 -2.56981,-6.560341 -1.88798,0.363591 -3.78143,5.89278 -2.84956,8.321189 0.90819,2.366713 3.90828,1.391932 5.41937,-1.760848 z m -9.27046,-0.0069 c 1.21947,-4.939854 0.96313,-7.9812 -0.76734,-9.104149 -2.542966,-1.650198 -5.040242,0.284457 -6.088458,4.716765 -1.170832,4.950777 -0.335321,6.637384 3.288021,6.637384 2.292657,0 3.145037,-0.537546 3.567777,-2.25 z m 18.48266,72.21862 c 0,-0.53274 0.675,-0.96862 1.5,-0.96862 0.825,0 1.5,0.17686 1.5,0.39301 0,0.21616 -0.675,0.65203 -1.5,0.96862 -0.825,0.31658 -1.5,0.13972 -1.5,-0.39301 z m -1,-86.409603 c 0,-1.055475 1.91911,-1.498911 2.48992,-0.575329 0.34546,0.558972 -0.07344,1.016312 -0.9309,1.016312 -0.85746,0 -1.55902,-0.198442 -1.55902,-0.440983 z"
       id="path3864"
       style="fill:#519172" />
    <path
       d="m -86.10198,78.262712 c -0.38391,-1.1 -1.16377,-2.9761 -1.73303,-4.16911 -0.81855,-1.71547 -0.59855,-2.78208 1.05193,-5.099952 10.23018,-14.36697 -3.03606,-38.230938 -21.25301,-38.230938 -6.94381,0 -11.08962,1.658692 -16.62841,6.65283 -10.53079,9.495252 -10.64354,23.782607 -0.2535,32.12433 4.76562,3.82612 3.63852,5.48165 -1.21278,1.78138 -7.50177,-5.721879 -10.49177,-13.378301 -9.03035,-23.123771 1.25688,-8.381492 12.6568,-18.343916 23.8269,-20.822416 4.68496,-1.03953 5.33072,-1.511073 6.34719,-4.634812 0.62239,-1.912647 1.45211,-5.840041 1.84384,-8.727541 l 0.71224,-5.25 -3.84384,0.011869 c -4.70546,0.014529 -12.64217,2.060499 -17.34384,4.470995 -5.89558,3.022604 -16.19487,14.618037 -20.34761,22.908327 -3.72791,7.442174 -7.65239,22.890941 -7.65239,30.123702 0,6.915867 -2.49872,8.832737 -3.56533,2.735107 -0.62637,-3.58085 -2.15614,-6.842891 -5.85995,-12.495618 -1.60593,-2.450967 -1.58913,-2.663048 0.35451,-4.473819 1.77448,-1.653182 1.89071,-2.297331 0.89199,-4.943259 -1.17176,-3.104348 -0.63418,-6.337304 1.05378,-6.337304 0.51577,0 0.69854,0.914797 0.40615,2.032882 -0.72953,2.789722 2.51379,6.382189 4.37064,4.841142 0.74152,-0.615402 1.34821,-1.668635 1.34821,-2.340517 0,-0.671883 2.1375,-5.202099 4.75,-10.067148 11.96383,-22.279274 30.41018,-32.735136 52.292291,-29.640602 8.578299,1.213129 19.988119,5.526237 26.452649,9.999555 4.38265,3.032695 5.80533,6.154566 2.82838,6.206491 -1.72783,0.03014 -1.73167,0.101376 -0.0733,1.360243 2.15565,1.636383 2.27873,3.607954 0.22523,3.607954 -2.31975,0 -3.47525,4.308011 -3.47525,12.956692 0,7.514269 0.0997,7.851523 2.5,8.453952 3.40903,0.855612 3.16186,2.589356 -0.36916,2.589356 -2.53861,0 -2.94056,0.432025 -3.48899,3.75 -0.34091,2.0625 -0.63168,6.225 -0.64616,9.25 -0.0344,7.18143 -1.12318,8.98057 -3.36464,5.559668 -3.06671,-4.680394 -8.56724,-2.302404 -8.70134,3.761762 -0.0387,1.74821 -0.44035,4.07857 -0.89266,5.17857 -0.82238,2 -0.82238,2 -1.52039,0 z M -74.37216,60.90853 c 1.7974,-6.972164 -0.51533,-12.407837 -4.61056,-10.83635 -1.27745,0.490206 -1.63592,2.022412 -1.63592,6.992481 0,6.965477 0.43646,7.927066 3.39974,7.490234 1.3012,-0.191816 2.27908,-1.444374 2.84674,-3.646365 z m -81.42693,-5.31749 c -0.17575,-1.19442 -0.88181,-2.356841 -1.56902,-2.583158 -1.81315,-0.59712 -2.82109,2.779937 -1.14625,3.840442 2.25591,1.42843 3.05595,1.057977 2.71527,-1.257284 z m 82.36132,-13.328328 c 0.38713,-2.2 0.7298,-6.8125 0.7615,-10.25 l 0.05763,-6.25 -3.02475,0 c -2.24184,0 -3.25258,0.599224 -3.90494,2.315067 -1.37343,3.612402 -2.3653,13.373475 -1.64896,16.227603 0.55106,2.195585 1.12356,2.53273 3.85147,2.268129 2.87866,-0.279223 3.2757,-0.717181 3.90805,-4.310799 z m -10.18087,-11.69113 c 0,-5.739895 -0.03435,-5.80887 -2.89301,-5.80887 -4.66454,0 -5.62352,5.81014 -1.94213,11.766749 2.02068,3.269527 2.25378,3.38121 3.5,1.676904 0.75074,-1.026691 1.33514,-4.368515 1.33514,-7.634783 z m -10.16534,-2.752533 c 0.45018,-3.076399 -1.143452,-4.446635 -4.261444,-3.664069 -3.165726,0.794547 -3.313186,2.97603 -0.341844,5.057238 2.795257,1.957874 4.173988,1.540608 4.603288,-1.393169 z m 21.02235,-5.946804 c 1.82779,-1.158138 0.58619,-4.834092 -1.89921,-5.622928 -1.06695,-0.338635 -2.39393,-0.335096 -2.94885,0.0079 -1.13038,0.698615 -1.37138,4.809763 -0.34228,5.838864 0.92197,0.921975 3.5617,0.808154 5.19034,-0.2238 z m -10.26983,-2.602248 c 2.08187,-3.177323 1.17573,-7.507285 -1.57105,-7.507285 -2.23505,0 -4.01613,2.779562 -4.01613,6.267592 0,4.454365 3.03903,5.128669 5.58718,1.239693 z m -8.5669,-2.58259 c 1.55812,-5.786422 1.01241,-7.371168 -2.6616,-7.729337 -2.729497,-0.266091 -3.266265,0.100783 -4.241807,2.899224 -1.253726,3.596441 -1.452628,7.23633 -0.450206,8.238751 0.366666,0.366667 1.924322,0.666667 3.461456,0.666667 2.423017,0 2.940767,-0.542116 3.892157,-4.075305 z m -4.02028,59.182295 c 0,-1.10907 3.07642,-2.36391 3.86417,-1.57616 0.31785,0.31786 -0.0841,0.99656 -0.89313,1.50823 -1.86986,1.18254 -2.97104,1.20771 -2.97104,0.06793 z m 26,-9.10699 c 0,-0.55 0.70156,-1 1.55902,-1 0.85746,0 1.2809,0.45 0.94098,1 -0.33992,0.55 -1.04148,1 -1.55902,1 -0.51754,0 -0.94098,-0.45 -0.94098,-1 z m -52,-22.573324 c 0,-0.931239 0.68037,-1.441373 1.66713,-1.25 2.50877,0.486551 2.85325,2.823324 0.4162,2.823324 -1.22833,0 -2.08333,-0.645689 -2.08333,-1.573324 z"
       id="path3862"
       style="fill:#4f7864" />
    <path
       d="m -86.056,76.762712 c -0.45771,-1.375 -1.27245,-2.78302 -1.81053,-3.12892 -0.57589,-0.37021 0.066,-2.427 1.56029,-5.000003 4.94474,-8.514013 4.33643,-17.220903 -1.85896,-26.607826 -8.01312,-12.141033 -20.51651,-15.162603 -32.67604,-7.896493 -7.40442,4.424623 -11.7774,11.815306 -11.7774,19.904747 0,6.870474 0.83007,8.770582 6.325,14.478495 4.93277,5.12397 3.50214,5.72653 -1.67002,0.703398 -5.67942,-5.515783 -7.10482,-8.96069 -6.94671,-16.78877 0.11501,-5.694499 0.59692,-7.497515 2.88728,-10.802502 4.78779,-6.90879 15.38054,-13.765661 21.40445,-13.855477 3.87612,-0.05779 4.98286,-1.25922 6.53608,-7.0953 1.81443,-6.817541 1.86332,-11.820854 0.12204,-12.489044 -2.32541,-0.892345 -15.69762,2.410802 -20.02404,4.946253 -9.4668,5.54791 -19.63649,18.512246 -23.63243,30.126637 -1.60126,4.654164 -5.00165,23.270659 -5.00165,27.383143 0,0.616912 -0.44468,1.121662 -0.98818,1.121662 -0.5435,0 -1.27845,-1.815243 -1.63323,-4.033873 -0.35477,-2.21863 -1.93509,-5.814733 -3.51181,-7.991341 -3.30987,-4.569137 -3.47372,-5.646637 -1.23489,-8.120524 1.3856,-1.531065 1.44387,-2.257143 0.38612,-4.810781 -1.25295,-3.024894 -0.84741,-6.043481 0.81193,-6.043481 0.491,0 0.69124,1.053975 0.44498,2.342166 -0.42473,2.221828 1.82148,5.657834 3.69868,5.657834 0.45691,0 1.27658,-1.2375 1.82148,-2.75 1.7997,-4.995478 10.6406,-20.094805 14.38414,-24.566601 4.80049,-5.734354 13.58065,-11.496872 21.2166,-13.924682 9.34021,-2.96967 25.49256,-2.046631 35.33323,2.019145 8.93244,3.690535 17.27095,8.946064 17.27095,10.885401 0,0.800124 -0.41891,1.195873 -0.9309,0.879442 -0.512,-0.316431 -1.21552,-0.11481 -1.56338,0.448046 -0.34787,0.562856 0.071,1.293341 0.9309,1.623301 0.85986,0.329959 1.56338,1.212657 1.56338,1.961552 0,0.766884 -0.62168,1.123064 -1.42331,0.815452 -2.13236,-0.818263 -3.26254,2.279526 -3.82302,10.478745 -0.62205,9.100077 -0.16112,10.989831 2.86582,11.749546 3.31381,0.831713 2.98036,2.380653 -0.5125,2.380653 -3.59464,0 -4.08793,1.220085 -4.17728,10.331787 -0.0387,3.942517 -0.42207,8.068213 -0.85203,9.168213 -0.75708,1.93687 -0.80431,1.92905 -1.49637,-0.247676 -1.13855,-3.581106 -8.00903,-4.362948 -9.00728,-1.025005 -0.20934,0.699974 -0.78529,3.297681 -1.2799,5.772681 -0.82576,4.13212 -0.96731,4.29562 -1.73149,2 z m 11.40218,-13.934259 c 1.13431,-2.119479 1.39002,-8.977476 0.42819,-11.483954 -0.35994,-0.938 -1.78444,-1.581787 -3.5,-1.581787 l -2.89301,0 0,7.5 c 0,7.304785 0.0642,7.5 2.46482,7.5 1.41343,0 2.90638,-0.825068 3.5,-1.934259 z m -80.52059,-5.975499 c 0.97906,-1.584157 -0.58407,-4.090242 -2.55122,-4.090242 -1.85127,0 -2.66926,2.890415 -1.22634,4.333333 0.95942,0.959427 3.1203,0.820372 3.77756,-0.243091 z m 80.35633,-9.945818 c 1.23897,-0.785884 3.41826,-18.665301 2.48584,-20.394424 -0.22244,-0.4125 -1.71204,-0.75 -3.31023,-0.75 -3.89904,0 -5.05945,2.455741 -5.72097,12.107118 -0.51934,7.577146 -0.45433,7.886196 1.85329,8.809371 3.03279,1.213286 3.1311,1.218062 4.69207,0.227935 z m -9.4332,-8.894424 c 0.27618,-0.9625 0.64401,-4.225 0.81739,-7.25 l 0.31525,-5.5 -3.5,0 c -3.37127,0 -3.51002,0.147125 -3.7724,4 -0.1802,2.645982 0.40721,5.10014 1.7353,7.25 2.24275,3.630492 3.65513,4.111495 4.40446,1.5 z m -9.02584,-9.447964 c 0.7157,-2.736861 -0.90304,-4.802036 -3.763965,-4.802036 -3.806405,0 -4.862315,2.06798 -2.396241,4.693 2.734591,2.910838 5.415106,2.958284 6.160206,0.109036 z m 21.46975,-8.488838 c 0.20668,-1.452056 -0.53452,-2.740983 -2.20602,-3.836196 -3.25393,-2.132051 -4.60525,-1.209101 -4.60525,3.145373 0,3.351229 0.142,3.490651 3.25,3.190983 2.45974,-0.237162 3.32569,-0.845096 3.56127,-2.50016 z m -20.10104,-1.313198 c 0.69316,-1.375 1.26692,-4.13504 1.27503,-6.133423 0.0125,-3.086383 -0.36148,-3.705341 -2.48408,-4.111103 -1.37436,-0.262724 -3.220037,0.04968 -4.101516,0.694235 -2.192458,1.603164 -3.171274,10.440575 -1.291371,11.659422 2.301401,1.492132 5.263537,0.545815 6.601937,-2.109131 z m 9.31624,0.950547 c 2.6263,-4.907297 -1.49951,-11.664598 -4.58504,-7.509417 -0.79279,1.067621 -1.44143,3.655121 -1.44143,5.75 0,3.38163 0.27648,3.80887 2.46482,3.80887 1.46118,0 2.91142,-0.834502 3.56165,-2.049453 z m -12.52647,56.049453 c 0.339919,-0.55 1.06803,-1 1.61803,-1 0.55,0 0.72189,0.45 0.38197,1 -0.33992,0.55 -1.06803,1 -1.618034,1 -0.55,0 -0.721885,-0.45 -0.381966,-1 z m -25.83333,-30.666667 c -1.15064,-1.150633 -0.72824,-2.333333 0.83333,-2.333333 0.825,0 1.5,0.675 1.5,1.5 0,1.561574 -1.1827,1.983967 -2.33333,0.833333 z"
       id="path3860"
       style="fill:#456958" />
    <path
       d="m -86.39386,74.929932 c -1.13709,-2.58807 -0.98808,-3.47416 1.37569,-8.180326 3.40619,-6.781573 2.99171,-14.290878 -1.21546,-22.020836 -6.66946,-12.253992 -18.06661,-17.459423 -29.44061,-13.44644 -12.21829,4.310862 -19.30129,16.054977 -16.77825,27.819508 0.81437,3.797283 2.09826,5.919657 5.69269,9.410476 2.55264,2.479058 3.74116,4.038288 2.64116,3.464948 -7.89809,-4.116631 -11.98692,-14.529972 -9.86706,-25.12926 1.41997,-7.099854 13.82801,-17.053014 23.1559,-18.574603 5.24929,-0.856279 6.67818,-2.837186 8.20304,-11.372151 1.44441,-8.084587 1.01471,-9.141498 -3.7105,-9.126667 -10.42329,0.03272 -20.36145,4.946932 -28.74951,14.216049 -10.15339,11.219848 -14.47378,21.183032 -16.59615,38.272082 -0.68308,5.5 -1.56106,10.365508 -1.95108,10.81224 -0.39001,0.44673 -1.01372,-1.092654 -1.38602,-3.420857 -0.37229,-2.328202 -2.00928,-6.044861 -3.63776,-8.259242 -3.33427,-4.533909 -3.68874,-6.415595 -1.37577,-7.303168 1.22263,-0.469166 1.43705,-1.433848 0.93769,-4.218615 -0.63386,-3.534844 -0.61354,-3.563297 0.97161,-1.360358 0.89046,1.2375 2.20891,2.25 2.92988,2.25 0.72098,0 3.69306,-4.793517 6.60462,-10.652261 12.83998,-25.837046 32.04937,-36.262412 56.97111,-30.91949 10.4741,2.245522 27,10.356466 27,13.251653 0,0.706783 -0.6568,1.005289 -1.5,0.681724 -0.94984,-0.364489 -1.5,0.01379 -1.5,1.031385 0,0.883844 0.675,1.606989 1.5,1.606989 2.37214,0 1.74397,1.826249 -0.75,2.180449 -2.08997,0.296823 -2.30979,1.015746 -3.09066,10.107843 -0.89514,10.422556 -0.2715,12.711708 3.4631,12.711708 1.03266,0 1.87756,0.45 1.87756,1 0,0.55 -1.575,1 -3.5,1 l -3.5,0 -0.009,5.25 c -0.005,2.8875 -0.29406,7.62599 -0.64284,10.529977 -0.57472,4.785093 -0.74069,5.066283 -1.77084,3 -0.89534,-1.796495 -1.97378,-2.279977 -5.08533,-2.279977 l -3.94894,0 -1.02152,5.28484 -1.02153,5.28485 -1.27522,-2.90247 z m 12.14915,-11.91722 c 0.56167,-1.932172 0.89583,-6.508377 0.73203,-10.024751 -0.13101,-2.812461 -4.60169,-4.888647 -6.7276,-3.1243 -1.45602,1.208391 -1.79789,6.551397 -0.75336,11.774051 0.52191,2.609564 1.08809,3.125 3.43261,3.125 1.81346,0 2.98774,-0.619663 3.31632,-1.75 z m -80.87393,-7.75 c 0,-2.209181 -3.11943,-3.280565 -4.76384,-1.636162 -0.7352,0.735198 -0.65572,1.528157 0.26426,2.636669 1.74054,2.097226 4.49958,1.483739 4.49958,-1.000507 z m 81.41674,-9.781009 c 0.47698,-1.254556 1.19228,-6.183073 1.58955,-10.952261 l 0.72231,-8.671251 -2.61206,-0.655586 c -3.85869,-0.968469 -5.37111,0.01418 -6.5487,4.254828 -1.50216,5.409492 -1.38237,17.011695 0.18216,17.642998 3.09691,1.249632 5.82834,0.586423 6.66674,-1.618728 z m -9.72798,-10.30112 c 0.38279,-2.154829 0.72191,-5.329296 0.75361,-7.054372 0.0502,-2.731859 -0.3264,-3.192864 -2.91911,-3.573393 -3.69592,-0.542446 -4.69376,0.04886 -5.49943,3.258944 -1.04897,4.179406 3.19047,12.546185 5.89956,11.643152 0.58816,-0.196053 1.38258,-2.119502 1.76537,-4.274331 z m -9.61367,-6.861036 c 0.79653,-3.173634 -0.12998,-4.556835 -3.05232,-4.556835 -5.62036,0 -7.2453,2.680087 -3.300264,5.443296 3.247338,2.274524 5.643134,1.940206 6.352584,-0.886461 z m 21.98661,-6.656666 c 0.8449,-1.367071 -2.71318,-6.289844 -4.85021,-6.710499 -2.00639,-0.394941 -4.01545,3.277262 -3.1995,5.848103 0.45666,1.438803 1.52269,1.962227 3.99638,1.962227 1.85548,0 3.67948,-0.494924 4.05333,-1.099831 z m -21.06003,-0.902875 c 0.34084,-0.551489 0.97813,-3.270052 1.4162,-6.041253 0.70147,-4.437504 0.56383,-5.163058 -1.15383,-6.082325 -1.07268,-0.574078 -2.995941,-0.781345 -4.273921,-0.460592 -1.84313,0.462596 -2.551059,1.643791 -3.423614,5.712379 -0.814335,3.79711 -0.804155,5.485679 0.03918,6.501845 1.318941,1.589226 6.482791,1.847521 7.395981,0.369946 z m 9.29833,-0.197294 c 0.66,-0.66 1.2,-2.879676 1.2,-4.932612 0,-2.883508 -0.46588,-3.880478 -2.04799,-4.382619 -1.12639,-0.357503 -2.65244,-0.148352 -3.39122,0.464779 -1.44698,1.200886 -2.59733,6.75833 -1.82163,8.800452 0.60448,1.59135 4.48746,1.623384 6.06084,0.05 z m -38.10615,24.56052 c -0.79893,-0.798931 0.10419,-2.36052 1.36517,-2.36052 0.51754,0 0.94098,0.675 0.94098,1.5 0,1.54641 -1.17996,1.986704 -2.30615,0.86052 z"
       id="path3858"
       style="fill:#3a5046" />
    <path
       d="m -86.17724,74.566492 c -0.84543,-1.83986 -0.59371,-3.2536 1.25,-7.020536 1.26973,-2.594216 2.36784,-5.744216 2.44024,-7 0.0867,-1.503313 0.36135,-1.087683 0.80411,1.216756 0.47041,2.44838 0.22427,4.036622 -0.8192,5.285984 -0.82041,0.982291 -1.74476,3.593992 -2.0541,5.803776 -0.52457,3.74721 -0.63374,3.86265 -1.62105,1.71402 z m 12.5586,-5.335165 c 0,-0.842261 -0.69443,-1.797861 -1.54317,-2.123555 -1.33539,-0.512436 -1.35296,-0.811168 -0.13049,-2.218615 0.77698,-0.894545 1.66088,-2.301445 1.96422,-3.126445 0.30335,-0.825 0.58707,0.8625 0.63049,3.75 0.0434,2.8875 -0.14605,5.25 -0.42105,5.25 -0.275,0 -0.5,-0.689123 -0.5,-1.531385 z m -81.00374,-1.551948 c -0.002,-1.329167 -0.86881,-3.835377 -1.92612,-5.569355 -1.89695,-3.110973 -1.8969,-3.159353 0.004,-3.65638 2.25664,-0.590126 2.68921,-5.184131 0.56489,-5.99931 -0.74868,-0.287295 -1.60451,-1.452634 -1.90185,-2.589641 -0.45804,-1.751556 -0.26018,-1.917208 1.2955,-1.084633 1.00989,0.540459 2.11632,0.982652 2.45877,0.982652 0.34245,0 2.21123,-3.485945 4.15285,-7.746544 6.71871,-14.743233 14.36835,-24.263611 23.856,-29.690041 2.8941,-1.655269 2.91175,-1.653896 0.5,0.03887 -5.34721,3.753126 -15.06737,14.698211 -18.3396,20.65074 -4.47744,8.14492 -6.31795,14.066162 -8.12356,26.134889 -1.44989,9.691072 -2.53315,13.327602 -2.54058,8.528749 z m 72.17845,-13.506945 c -0.26852,-4.749645 -5.86317,-14.987208 -10.23548,-18.72974 -4.407025,-3.772253 -9.56765,-5.630865 -16.05525,-5.782343 l -4.38398,-0.102362 3.45114,-0.812478 c 4.3196,-1.016931 5.67207,-2.850849 7.07061,-9.587588 1.63876,-7.893856 1.02918,-11.664641 -2.02175,-12.506232 -2.38908,-0.659023 -2.3669,-0.691485 0.5,-0.731669 3.61323,-0.05065 11.9042,1.563818 8.872445,1.727691 -3.232665,0.174733 -4.581207,2.553896 -4.733863,8.351713 l -0.138582,5.263286 3.898214,0.319201 c 4.694876,0.384435 5.330926,-0.434663 6.192486,-7.974583 l 0.64622,-5.655382 5.5312,1.903012 c 5.88904,2.026124 17.74174,8.305679 18.74693,9.932107 0.33164,0.536605 -0.32357,0.975645 -1.45603,0.975645 -2.69434,0 -2.61556,1.471104 0.19098,3.566339 1.2375,0.923861 1.53419,1.441012 0.65932,1.149224 -3.23041,-1.077402 -3.99703,0.853379 -4.60557,11.599402 -0.5972,10.545776 -0.58146,10.647382 1.79688,11.598619 l 2.39937,0.959643 -2.75,0.06339 c -2.4809,0.05718 -2.76002,0.430342 -2.85236,3.813386 l -0.10236,3.75 -0.79778,-3.379265 c -0.91478,-3.874865 -2.38048,-5.083757 -6.19,-5.105422 -2.44393,-0.0139 -2.72784,0.377053 -3.07529,4.234687 -0.2828,3.139727 -0.42844,3.442694 -0.5575,1.159722 z m 9.32076,-7.659722 c 0.67386,-1.946635 2.11614,-19.41517 1.70488,-20.648961 -0.20186,-0.605571 -2.0855,-1.101039 -4.18586,-1.101039 -3.37098,0 -3.9455,0.363342 -4.89888,3.098192 -0.59401,1.704006 -1.36774,5.906378 -1.71938,9.338606 -0.82626,8.064737 0.39666,10.563202 5.17034,10.563202 1.92291,0 3.69092,-0.5625 3.9289,-1.25 z m -10.39452,-9.035081 c 0.3905,-1.460118 0.86503,-5.030796 1.05452,-7.93484 l 0.34453,-5.280079 -3.89821,-0.319201 c -4.46578,-0.365676 -5.56388,0.741955 -5.58648,5.634942 -0.016,3.472894 1.18748,6.476307 3.7902,9.45859 1.99243,2.282999 3.40497,1.770195 4.29544,-1.559412 z m -9.29565,-9.888296 c 0.35346,-4.233505 -1.75402,-5.557018 -6.173218,-3.87684 -3.362212,1.278308 -3.344642,3.344556 0.05114,6.015676 3.778335,2.972039 5.752972,2.282171 6.122082,-2.138836 z m 19.9447,-4.456909 c 2.62707,-0.704028 2.88764,-3.014348 0.6933,-6.147208 -1.79979,-2.56956 -5.94699,-2.958247 -6.83631,-0.640719 -2.14489,5.589487 0.3457,8.341546 6.14301,6.787927 z m -10.37319,-1.655978 c 1.32459,-0.968563 1.68054,-2.388786 1.44113,-5.75 -0.28727,-4.033148 -0.58317,-4.494255 -3.06745,-4.780112 -2.19388,-0.252439 -2.95171,0.215414 -3.75,2.3151 -1.14097,3.000968 -1.32398,7.844449 -0.33382,8.834609 1.06895,1.06895 3.80727,0.77182 5.71014,-0.619597 z m -51.29786,32.869597 c -0.0434,-1.054166 0.19293,-1.644791 0.52522,-1.3125 0.33229,0.332292 0.36782,1.194792 0.0789,1.916667 -0.31923,0.797733 -0.55619,0.560776 -0.60417,-0.604167 z m 0.99151,-6.817556 c -0.0438,-1.700691 0.96904,-3.800645 2.67954,-5.555452 1.5125,-1.551675 2.19256,-2.091433 1.51125,-1.199462 -0.68132,0.891971 -1.88711,3.391924 -2.67954,5.555451 -1.30356,3.559026 -1.4475,3.673268 -1.51125,1.199463 z m 12.92954,-3.765777 c 0,-0.55 0.19844,-1 0.44098,-1 0.24254,0 0.7191,0.45 1.05902,1 0.33992,0.55 0.14148,1 -0.44098,1 -0.58246,0 -1.05902,-0.45 -1.05902,-1 z m 3,-13 c 0.825,-0.533156 1.95,-0.969374 2.5,-0.969374 0.55,0 0.325,0.436218 -0.5,0.969374 -0.825,0.533156 -1.95,0.969374 -2.5,0.969374 -0.55,0 -0.325,-0.436218 0.5,-0.969374 z m -4,-21 c 0.825,-0.533156 1.95,-0.969374 2.5,-0.969374 0.55,0 0.325,0.436218 -0.5,0.969374 -0.825,0.533156 -1.95,0.969374 -2.5,0.969374 -0.55,0 -0.325,-0.436218 0.5,-0.969374 z m 6,-2 c 1.375,-0.440352 3.625,-0.792254 5,-0.782005 2.2456,0.01674 2.19472,0.09632 -0.5,0.782005 -1.65,0.419854 -3.9,0.771756 -5,0.782005 -1.56719,0.014602 -1.45899,-0.154625 0.5,-0.782005 z"
       id="path3856"
       style="fill:#35413b" />
  </g>
</svg>
