<?xml version="1.0"?>
<!-- Converted with SVG Converter - Version 0.9.5 (Compiled Mon May 30 09:08:51 2011) - Copyright (C) 2011 Nokia -->
<svg xmlns="http://www.w3.org/2000/svg" width="120.55058" version="1.1" height="121.78941" xmlns:xlink="http://www.w3.org/1999/xlink" baseProfile="tiny" id="svg4321">
 <defs id="defs4323"/>
 <metadata id="metadata4326"/>
 <g id="layer1" transform="translate(-170.94498,-336.32207)">
  <g id="g4974" transform="translate(-198.68421,-101.31579)">
   <rect width="97.263023" x="381.63165" y="448.46753" height="99.894608" style="fill:#ffffff;fill-opacity:1;stroke:#ffffff;stroke-width:8.10539055;stroke-linecap:round;stroke-linejoin:miter;stroke-miterlimit:4;stroke-opacity:1;stroke-dasharray:none" id="rect4464"/>
   <g id="g4444" transform="translate(205.26316,17.105263)">
    <path style="fill:#cce6d8" id="path4462" d="m 177.40228,541.66705 c -3.27692,-0.82048 -7.41374,-4.2121 -9.26509,-7.59608 -1.57911,-2.88638 -1.73491,-7.52661 -1.73491,-51.67116 0,-48.10463 0.0178,-48.52853 2.18093,-52 4.51823,-7.25095 2.47204,-7 57.07548,-7 l 48.94782,0 3.39789,2.26993 c 7.01067,4.68344 6.89477,3.72139 6.89477,57.23007 0,54.70293 0.21921,53.12608 -7.95878,57.25 -4.44719,2.24259 -4.61516,2.24962 -51,2.134 -25.59596,-0.0638 -47.43811,-0.34135 -48.53811,-0.61676 z m 79.6875,-1.95035 c -0.72188,-0.28887 -1.58438,-0.25335 -1.91667,0.0789 -0.33229,0.3323 0.25834,0.56864 1.3125,0.52522 1.16495,-0.048 1.4019,-0.28494 0.60417,-0.60416 z m 6.5625,-3.30588 c 2.55691,-0.0225 1.04382,-3.58864 -2.47682,-5.83747 -4.69248,-2.99735 -8.27318,-1.81938 -8.27318,2.72169 0,3.45738 1.24672,4.20181 6,3.58267 1.925,-0.25074 4.0625,-0.46084 4.75,-0.46689 z m 13.6377,-2.26101 c 1.24928,-1.98376 -0.0448,-4.87733 -2.45914,-5.49852 -0.82827,-0.21311 -0.6932,0.0979 0.32144,0.74017 2.45918,1.55663 2.1835,4.88655 -0.5,6.03948 -1.73008,0.7433 -1.81261,0.90917 -0.35718,0.71778 1.04105,-0.1369 2.38874,-1.03641 2.99488,-1.99891 z m 3.94696,-10.73556 c 1.65579,-1.55482 0.1588,-5.49883 -2.58466,-6.80964 -1.5125,-0.72266 -2.75,-1.73334 -2.75,-2.24595 0,-0.9036 -6.30333,-3.95885 -8.16758,-3.95885 -2.3303,0 -5.83242,5.04255 -5.83242,8.39784 0,5.38602 2.81206,6.86653 11.5,6.05458 3.85,-0.35982 7.3756,-1.00691 7.83466,-1.43798 z m -26.27011,-12.62513 c 4.73927,-2.77523 7.15362,-6.60442 7.69111,-12.19824 1.2653,-13.16819 -10.48618,-27.19402 -22.75566,-27.15972 -15.57002,0.0435 -27.61659,17.03346 -21.1,29.75849 2.58428,5.04633 9.5356,9.63022 17.6,11.60588 4.32248,1.05895 15.36853,-0.13488 18.56455,-2.00641 z m -27.8841,-26.63931 c 0.20974,-1.47682 1.00682,-2.25 2.31955,-2.25 1.31273,0 2.10981,0.77318 2.31955,2.25 0.26213,1.84568 -0.15469,2.25 -2.31955,2.25 -2.16486,0 -2.58168,-0.40432 -2.31955,-2.25 z m -31.18045,10.75 c 0,-1.83333 -0.53333,-2.5 -2,-2.5 -2.46547,0 -2.62716,2.53533 -0.25,3.9199 2.3391,1.3624 2.25,1.41863 2.25,-1.4199 z m 2,-7.41821 c 0,-0.50502 0.25675,-1.58729 0.57055,-2.40505 0.40418,-1.05326 -0.3457,-1.68808 -2.5715,-2.17695 -4.10297,-0.90116 -4.46793,-0.3656 -1.94047,2.84755 2.08489,2.65051 3.94142,3.46749 3.94142,1.73445 z m 0.60516,-16.10494 c 1.04216,-1.02762 3.11532,-2.02578 4.60703,-2.21814 3.45817,-0.44595 4.84562,-1.75871 1.85877,-1.75871 -5.40819,0 -10.19449,5.19065 -9.95596,10.79705 0.0911,2.14244 0.26849,1.90926 0.85516,-1.12443 0.40709,-2.10506 1.59284,-4.66816 2.635,-5.69577 z m 6.22266,-0.32131 c 0.30042,-1.55997 0.0508,-1.66095 -1.73852,-0.70333 -2.52927,1.35362 -2.77119,3.32576 -0.35078,2.85963 0.95618,-0.18414 1.89637,-1.15448 2.0893,-2.1563 z m -14.7509,-8.57862 c 5.56786,-5.56785 2.29827,-14.07692 -5.40902,-14.07692 -1.88266,0 -3.98321,-0.675 -4.6679,-1.5 -2.64711,-3.18957 -8.11616,-0.53868 -7.884,3.82143 0.10801,2.02845 0.14988,2.04076 0.60761,0.17857 0.94207,-3.8326 2.41627,-4.74531 4.00378,-2.47882 1.25162,1.78694 1.25517,2.36187 0.0264,4.27183 -2.95065,4.58619 2.13519,12.70699 7.95804,12.70699 1.36579,0 3.73033,-1.28827 5.36514,-2.92308 z m -8.75574,0.75629 c -1.19835,-0.59142 -2.69631,-2.32463 -3.32879,-3.85157 -2.10363,-5.07862 3.42562,-11.5795 8.2147,-9.65822 0.7111,0.28528 0.28041,0.55421 -0.95709,0.59763 -2.7726,0.0973 -2.8594,1.21747 -0.27553,3.55585 1.08596,0.98277 2.24915,2.65229 2.58486,3.71003 0.79331,2.4995 2.7012,1.82431 3.56341,-1.26107 l 0.6779,-2.42586 0.0997,2.63922 c 0.19713,5.21951 -5.83412,9.03581 -10.57914,6.69399 z m 32.28299,-13.56238 c -1.01652,-1.01651 -1.85525,0.51389 -1.02122,1.86338 0.63003,1.01942 0.86558,1.02021 1.2043,0.004 0.2316,-0.69478 0.14921,-1.53512 -0.18308,-1.86741 z m -21.00107,-5.0963 c -1.33176,-1.33176 -1.79221,-1.36978 -2.84596,-0.23497 -1.00935,1.087 -1.00937,1.21389 -8e-5,0.64376 0.72554,-0.40983 1.5098,-0.0515 1.85479,0.84755 0.32874,0.85671 1.04375,1.28198 1.5889,0.94506 0.5957,-0.36816 0.35724,-1.24651 -0.59765,-2.2014 z m -5.1604,-7.59277 c -1.06676,-0.78003 -1.61364,-1.74416 -1.21529,-2.1425 0.39834,-0.39834 1.42101,-0.14601 2.27259,0.56074 0.85158,0.70675 1.87425,0.95908 2.27259,0.56074 0.39835,-0.39834 -0.15455,-1.36687 -1.22867,-2.15228 -1.69525,-1.2396 -2.14552,-1.23543 -3.41252,0.0316 -1.19812,1.19812 -1.22912,1.73729 -0.17305,3.00978 0.70759,0.8526 1.76745,1.55019 2.35522,1.55019 0.58778,0 0.19589,-0.63821 -0.87087,-1.41824 z m 73.5573,-0.0818 c 0,-0.825 -0.1882,-1.5 -0.41821,-1.5 -0.23002,0 -1.17458,-0.29024 -2.09902,-0.64499 -1.48845,-0.57117 -1.5275,-0.3995 -0.34124,1.5 1.55902,2.4964 2.85847,2.78961 2.85847,0.64499 z m 11.5,0.34527 c -1.1,-0.60166 -2.5625,-1.79898 -3.25,-2.66072 -0.6875,-0.86175 -1.25,-1.05632 -1.25,-0.43238 0,1.27048 3.8849,4.26441 5.47251,4.21742 0.56512,-0.0167 0.12749,-0.52267 -0.97251,-1.12432 z m 8.39166,-0.90354 c 1.31542,-1.09546 2.21542,-2.1672 2,-2.38166 -0.21541,-0.21446 -1.65425,0.69679 -3.19742,2.025 -1.54317,1.32821 -2.44317,2.39996 -2,2.38166 0.44317,-0.0183 1.88201,-0.92955 3.19742,-2.025 z m -0.28937,-5.10724 c 0.422,-0.6828 -0.48542,-2.13031 -2.19098,-3.49503 -3.75364,-3.00353 -5.39874,-3.01943 -2.58562,-0.025 1.19587,1.27295 2.17431,2.84795 2.17431,3.5 0,1.52211 1.66603,1.53494 2.60229,0.02 z m -116.13854,51.66551 c 1.8e-4,-27.5 0.12871,-38.60616 0.28561,-24.68035 0.1569,13.92581 0.15675,36.42581 -3.3e-4,50 -0.15708,13.57419 -0.28546,2.18035 -0.28528,-25.31965 z m 36.21685,-62.24899 c 13.29933,-0.15744 35.34933,-0.15759 49,-3.4e-4 13.65067,0.15725 2.7694,0.28606 -24.1806,0.28625 -26.95,1.8e-4 -38.11873,-0.12847 -24.8194,-0.28591 z"/>
    <path style="fill:#b3dbc6" id="path4460" d="m 173.40228,539.4123 c -6.61946,-4.35635 -6.5004,-3.31169 -6.49626,-56.99689 0.004,-46.64717 0.0803,-48.64112 1.99086,-51.77474 1.09292,-1.79253 3.45373,-4.15334 5.24626,-5.24626 3.13382,-1.91072 5.124,-1.98712 51.75914,-1.98712 46.92315,0 48.60788,0.0658 51.81803,2.02293 2.01195,1.22665 4.093,3.77489 5.28682,6.47371 1.88287,4.25655 1.95627,6.53545 1.68197,52.22332 -0.31692,52.78531 -0.27059,52.40289 -6.75409,55.75563 -3.32326,1.71853 -8.03273,2.0216 -8.03273,0.51693 0,-0.55 -1.8,-1 -4,-1 -2.2,0 -4,0.45 -4,1 0,0.55 -0.92656,1 -2.05902,1 -1.13246,0 -1.7809,-0.45 -1.44098,-1 0.33992,-0.55 0.25398,-1.02872 -0.19098,-1.06382 -6.89672,-0.54401 -10.31047,-0.27454 -10.3098,0.81382 0.001,1.74849 -1.94135,1.56438 -2.63759,-0.25 -0.37526,-0.97789 -1.93066,-1.5 -4.46862,-1.5 -2.79379,0 -3.89301,0.42354 -3.89301,1.5 0,1.30042 -4.02485,1.49912 -30.25,1.49341 -28.43309,-0.006 -30.43019,-0.12517 -33.25,-1.98092 z m 93.14059,-2.93547 c 2.80638,-0.0688 3.18272,-0.43786 3.53644,-3.46771 0.57787,-4.94988 0.077,-5.60931 -4.26036,-5.60931 -3.38521,0 -3.92118,0.30531 -3.94994,2.25 l -0.0333,2.25 -1.88653,-2.26175 c -1.34217,-1.6091 -3.13605,-2.33049 -6.21673,-2.5 l -4.3302,-0.23825 -0.30205,4.68276 c -0.29806,4.62104 -0.25852,4.6883 3,5.103 1.81613,0.23113 5.10205,0.29604 7.30205,0.14425 2.2,-0.15179 5.41327,-0.31064 7.14059,-0.35299 z m 14.51957,-4.62283 0.36154,-4.54581 -3.98372,0.29581 c -3.90999,0.29033 -3.99022,0.37447 -4.33484,4.54581 l -0.35111,4.25 3.97329,0 3.97329,0 0.36155,-4.54581 z m -35.16016,-0.95419 0,-4.5 -4.5,0 -4.5,0 0,4.5 0,4.5 4.5,0 4.5,0 0,-4.5 z m 35.64391,-6.86184 c 0.0791,-0.076 0.30415,-3.96316 0.5,-8.63816 l 0.35609,-8.5 -4.25,-0.3075 c -4.00095,-0.28948 -4.25,-0.15333 -4.25,2.32333 0,1.97251 -0.4379,2.54304 -1.75,2.28003 -1.16529,-0.23358 -1.73683,-1.26044 -1.71058,-3.07332 0.0348,-2.40132 -0.33606,-2.72254 -3.14301,-2.72254 -3.84314,0 -4.15639,0.68314 -5.01071,10.92717 -0.59811,7.17183 -0.48853,7.92077 1.22881,8.39851 1.52228,0.42348 17.50707,-0.18608 18.0294,-0.68752 z m -22.6329,-2.38816 c 0.006,-1.5125 0.28666,-4.41734 0.62357,-6.4552 l 0.61256,-3.7052 -3.83501,1.9552 c -2.10926,1.07536 -4.41487,1.9552 -5.12357,1.9552 -0.83264,0 -1.28856,1.38933 -1.28856,3.92668 0,4.16051 0.70996,4.72363 6.25,4.95732 2.35901,0.0995 2.75156,-0.27499 2.76101,-2.634 z m -12.01101,-1.64931 c 0,-3.30912 -0.11939,-3.4088 -4.5,-3.7572 l -4.5,-0.3579 0,3.7572 0,3.75721 4.5,0 c 4.4508,0 4.5,-0.0372 4.5,-3.39931 z m 9.33007,-9.90238 c 4.6837,-3.57358 6.66993,-7.45166 6.66993,-13.02292 0,-8.99276 -4.67453,-17.28421 -12.76605,-22.64382 -16.17328,-10.71273 -39.32316,8.45913 -31.84006,26.36873 1.66448,3.98366 6.71167,8.03586 13.29857,10.67693 3.62984,1.45541 6.78665,1.86578 12.88656,1.67519 7.09869,-0.22179 8.52459,-0.59238 11.75105,-3.05411 z M 227.28228,484.9477 c -0.69661,-1.81536 0.31521,-3.54789 2.07203,-3.54789 1.51595,0 2.84001,2.71845 1.9922,4.09024 -0.87407,1.41427 -3.44506,1.07118 -4.06423,-0.54235 z m -31.45029,17.14309 c 0.0387,-0.44496 -0.37971,-0.5309 -0.92971,-0.19098 -0.55,0.33992 -0.96837,1.60398 -0.92972,2.80902 0.0678,2.11236 0.10113,2.11922 0.92972,0.19098 0.47269,-1.1 0.89106,-2.36406 0.92971,-2.80902 z m 74.89004,-5.44098 c -0.14962,-5.60302 -0.24389,-5.94286 -0.55479,-2 -0.26042,3.30274 -0.81488,4.75 -1.81975,4.75 -0.87552,0 -1.50115,-1.08402 -1.58712,-2.75 -0.10473,-2.02968 -0.30118,-1.70225 -0.75,1.25 -0.55611,3.65806 -0.39438,4.054 1.89191,4.63168 1.375,0.34743 2.6125,0.68493 2.75,0.75 0.1375,0.0651 0.16889,-2.91918 0.0697,-6.63168 z m 10.18025,4.71155 c 0,-1.62557 -0.55571,-1.97908 -2.75,-1.7494 -2.46468,0.25799 -4.19569,1.39812 -4.23268,2.78785 -0.007,0.275 1.56079,0.61223 3.48468,0.7494 2.93427,0.20921 3.498,-0.0789 3.498,-1.78785 z m -85,-6.46155 c 0,-1.83333 -0.53333,-2.5 -2,-2.5 -2.46547,0 -2.62716,2.53533 -0.25,3.9199 2.3391,1.3624 2.25,1.41863 2.25,-1.4199 z m 85.1875,-3.18311 c -0.72187,-0.28888 -1.58437,-0.25335 -1.91667,0.079 -0.33229,0.33229 0.25834,0.56864 1.3125,0.52522 1.16495,-0.048 1.4019,-0.28494 0.60417,-0.60417 z m -4,-1 c -0.72187,-0.28888 -1.58437,-0.25335 -1.91667,0.079 -0.33229,0.33229 0.25834,0.56864 1.3125,0.52522 1.16495,-0.048 1.4019,-0.28494 0.60417,-0.60417 z m -78.84173,-4.53111 c 0.65307,-2.49737 -0.72473,-3.74772 -4.15479,-3.77047 -2.41639,-0.016 -2.29034,0.85033 0.61611,4.23469 1.99089,2.31825 2.84018,2.20683 3.53868,-0.46422 z m 67.84173,-0.46889 c -0.72187,-0.28888 -1.58437,-0.25335 -1.91667,0.079 -0.33229,0.33229 0.25834,0.56864 1.3125,0.52522 1.16495,-0.048 1.4019,-0.28494 0.60417,-0.60417 z m 9.46844,-5.58592 c -0.27393,-0.67703 -0.48137,0.11903 -0.46099,1.76903 0.0204,1.65 0.2445,2.20394 0.49804,1.23097 0.25354,-0.97297 0.23687,-2.32297 -0.037,-3 z m -78.65594,-2.62019 c 0,-1.58907 0.93767,-3.95156 2.0837,-5.25 1.38197,-1.56573 1.9084,-1.7993 1.56314,-0.69354 -1.00983,3.23427 2.34187,2.89913 4.38153,-0.43811 l 1.97358,-3.22913 -2.50304,-0.31662 c -4.99896,-0.63234 -11.38869,6.96041 -9.73398,11.56662 0.82939,2.30875 2.23507,1.27781 2.23507,-1.63922 z m 64.60417,-1.83995 c -0.3323,-0.33229 -0.56864,0.25834 -0.52522,1.3125 0.048,1.16495 0.28494,1.4019 0.60416,0.60417 0.28887,-0.72188 0.25335,-1.58438 -0.079,-1.91667 z m -12.41667,-9.95394 c -0.72188,-0.28888 -1.58438,-0.25335 -1.91667,0.079 -0.33229,0.33229 0.25834,0.56864 1.3125,0.52522 1.16495,-0.048 1.4019,-0.28494 0.60417,-0.60417 z m -60.0371,-1.39738 c 1.1104,-0.59427 2.67413,-2.64864 3.47494,-4.56526 1.29138,-3.0907 1.27727,-3.8431 -0.12478,-6.65358 -1.44818,-2.90295 -1.44422,-3.2687 0.0472,-4.35924 2.22741,-1.62872 1.42854,-4.77058 -1.31243,-5.16157 -2.76556,-0.3945 -3.96756,2.17313 -2.14541,4.58288 1.11624,1.47619 1.10299,1.54942 -0.0881,0.48726 -0.77098,-0.6875 -2.52811,-1.25 -3.90473,-1.25 -2.43181,0 -2.39059,-0.11506 1.45,-4.04819 2.17412,-2.2265 3.84045,-4.2515 3.70295,-4.5 -0.1375,-0.24849 0.0875,-0.47906 0.5,-0.51236 0.4125,-0.0333 1.76846,-1.01734 3.01324,-2.18675 1.74627,-1.64054 2.53433,-1.85513 3.45,-0.93946 1.68136,1.68136 4.81583,1.47043 6.95802,-0.46823 2.05098,-1.85611 2.33697,-4.52686 0.79356,-7.41075 -0.94395,-1.76377 -2.19995,-1.93296 -14.25,-1.91952 -14.30233,0.016 -16.64531,0.63374 -20.11842,5.30468 -1.80103,2.42219 -2.14386,4.51971 -2.43328,14.88729 -0.37113,13.29437 0.44798,15.44672 4.4483,11.68862 l 2.14233,-2.01262 0.66379,2.64477 c 1.52998,6.09593 8.35251,9.27151 13.73286,6.39203 z m 9.49555,-30.18913 c -1.6019,-1.17134 -1.49691,-1.49899 1.3562,-4.23244 2.58017,-2.47196 3.2478,-2.71722 4.02987,-1.48038 1.51035,2.38863 1.11296,4.83448 -0.96628,5.94726 -2.41215,1.29094 -2.32757,1.29542 -4.41979,-0.23444 z m 71.54155,29.58651 c -0.72187,-0.28888 -1.58437,-0.25335 -1.91667,0.079 -0.33229,0.33229 0.25834,0.56864 1.3125,0.52522 1.16495,-0.048 1.4019,-0.28494 0.60417,-0.60417 z m -56.14585,-10.86708 c 1.06278,-1.28057 0.99712,-1.83962 -0.37755,-3.21428 -1.55213,-1.55213 -1.77607,-1.55213 -3.3282,0 -1.37467,1.37466 -1.44033,1.93371 -0.37755,3.21428 0.70759,0.8526 1.62634,1.55019 2.04165,1.55019 0.41531,0 1.33405,-0.69759 2.04165,-1.55019 z m 40.1955,-14.28736 c -0.49013,-3.33949 1.53538,-5.3203 2.91659,-2.85221 0.48971,0.87507 1.5889,2.28954 2.44263,3.14327 1.22854,1.22854 1.27607,1.63938 0.22793,1.97014 -3.91592,1.23571 -4.00149,1.42237 -0.57631,1.25715 4.22562,-0.20384 4.31317,-0.402 2.30304,-5.21292 -2.49328,-5.96725 -8.86575,-4.1813 -8.36844,2.34533 0.12775,1.67663 0.51391,2.87436 0.85811,2.66163 0.34421,-0.21273 0.43261,-1.70331 0.19645,-3.31239 z m 24.82073,1.40729 c -0.95201,-1.1471 -0.75309,-1.66249 1.00473,-2.60325 1.73243,-0.92717 2.39442,-0.88939 3.1589,0.18026 0.72207,1.01033 0.81655,0.88907 0.37282,-0.47854 -0.32688,-1.00748 -0.59433,-2.53569 -0.59433,-3.39602 0,-1.12489 -0.68877,-0.82104 -2.45225,1.08179 -3.28923,3.54913 -7.68851,3.55382 -10.47517,0.0112 -2.46549,-3.13436 -2.52311,-3.93656 -0.56491,-7.86514 l 1.49536,-3 -2.00152,2.36078 c -1.10083,1.29844 -2.00151,3.37525 -2.00151,4.61515 0,3.51755 3.7009,7.52407 6.95014,7.52407 1.54273,0 3.36517,0.675 4.04986,1.5 0.68469,0.825 1.46989,1.5 1.74489,1.5 0.275,0 -0.0342,-0.64362 -0.68701,-1.43026 z m 1.44212,-9.04515 c 0,-1.93072 -5.04994,-6.30798 -6.08419,-5.27374 -0.3393,0.33931 0.32834,1.63152 1.48364,2.8716 1.1553,1.24007 2.10055,2.88232 2.10055,3.64944 0,0.76713 0.5625,1.20728 1.25,0.97811 0.6875,-0.22917 1.25,-1.2306 1.25,-2.22541 z"/>
    <path style="fill:#a4d2bb" id="path4458" d="m 188.45329,538.27806 c -1.72315,-2.04785 -2.55026,-4.22376 -2.54868,-6.70498 l 0.002,-3.67327 -7.3758,0.32458 c -6.65195,0.29272 -7.48264,0.5591 -8.46461,2.71429 -0.68554,1.50458 -0.7324,2.60999 -0.12654,2.98444 0.52926,0.3271 0.94798,1.13067 0.93049,1.78571 -0.0175,0.65504 -0.67808,0.33719 -1.46797,-0.70634 -0.78989,-1.04353 -1.19902,-2.28103 -0.90918,-2.75 0.28987,-0.46897 0.13997,-0.85268 -0.33307,-0.85268 -0.47305,0 -0.96963,-21.9375 -1.10351,-48.75 -0.23726,-47.51752 -0.19195,-48.8324 1.79193,-52.00914 1.11944,-1.79253 3.50196,-4.15334 5.29449,-5.24626 3.13182,-1.9095 5.126,-1.98727 51.04898,-1.99086 46.30894,-0.004 47.91516,0.0602 51.83423,2.05955 3.00124,1.53112 4.56632,3.24321 6.06798,6.63796 1.95753,4.42534 2.01133,6.12882 1.6479,52.18671 -0.35542,45.04211 -0.48087,47.78753 -2.32419,50.86332 -1.99379,3.32687 -4.65913,4.8293 -7.76576,4.37751 -0.9625,-0.13998 -1.75,0.22378 -1.75,0.80835 0,0.58457 -0.675,1.06286 -1.5,1.06286 -0.825,0 -1.5,-0.45 -1.5,-1 0,-0.55 -1.8,-1 -4,-1 -2.2,0 -4,0.45 -4,1 0,1.64496 -2.73617,1.12991 -3.41655,-0.64313 -0.86816,-2.26239 -0.35019,-2.56517 5.13165,-2.99965 6.66045,-0.52789 6.85207,-0.66621 6.65737,-4.8058 -0.20671,-4.3948 0.0496,-4.12605 -4.62247,-4.84701 -3.24191,-0.50027 -3.75,-0.31621 -3.75,1.35846 0,2.54641 -2.04029,2.49908 -2.71025,-0.0629 -0.43294,-1.65556 -1.36402,-2 -5.40638,-2 -4.65734,0 -4.884,0.12729 -4.89703,2.75 -0.007,1.5125 -0.28499,3.7625 -0.61663,5 -0.52835,1.97153 -0.22737,2.25 2.43187,2.25 1.66916,0 3.78438,0.28762 4.70048,0.63916 2.73332,1.04888 -0.34428,2.2607 -4.16624,1.64048 -2.63874,-0.42817 -3.33582,-0.2005 -3.33582,1.08955 0,2.04643 -1.86775,2.13905 -2.63837,0.13084 -0.80661,-2.10197 -9.36163,-2.11772 -9.36163,-0.0172 0,1.26715 -3.26449,1.47873 -22.44899,1.45498 l -22.44899,-0.0278 -2.55101,-3.03171 z m 92.44899,-3.25325 c 0,-0.75625 0.28125,-2.78125 0.625,-4.5 l 0.625,-3.125 -4.625,0 -4.625,0 0,4.5 0,4.5 4,0 c 2.72727,0 4,-0.4375 4,-1.375 z m -35,-4.125 0,-4.5 -4.5,0 -4.5,0 0,4.5 0,4.5 4.5,0 4.5,0 0,-4.5 z m 31.25,-6.24831 c 4.01289,-0.4276 4.7511,-0.83556 4.75711,-2.62892 0.004,-1.16752 0.29398,-5.16027 0.6446,-8.87277 l 0.6375,-6.75 -5.00593,0 c -4.80044,0 -4.98632,0.10263 -4.52803,2.5 0.35035,1.83277 0.0464,2.5 -1.13867,2.5 -1.12953,0 -1.61658,-0.90385 -1.61658,-3 0,-2.7521 -0.28434,-3 -3.44098,-3 -1.89254,0 -3.66151,0.35681 -3.93103,0.79291 -0.26953,0.43611 -0.80325,4.65289 -1.18604,9.37063 l -0.69599,8.5777 3.87702,1.02403 c 2.13236,0.56322 4.55202,0.79195 5.37702,0.5083 0.825,-0.28365 3.6375,-0.7435 6.25,-1.02188 z m -17.88592,-4.89126 c 1.18804,-8.66771 1.19092,-8.66178 -3.09927,-6.36237 -2.05436,1.10107 -4.25709,2.00194 -4.89497,2.00194 -1.10365,0 -2.42496,7.61155 -1.48455,8.55195 0.24642,0.24643 2.33688,0.44805 4.64545,0.44805 l 4.19741,0 0.63593,-4.63957 z m -12.36408,0.24461 c 0,-3.25771 -0.17182,-3.41293 -4.25,-3.83931 -2.3375,-0.24438 -4.32237,-0.40415 -4.41082,-0.35503 -0.0884,0.0491 -0.47603,1.7768 -0.86129,3.8393 l -0.70047,3.75 5.11129,0 5.11129,0 0,-3.39496 z m -57.78513,-1.26136 c -0.35275,-1.84528 0.0533,-3.06658 1.3298,-4 1.01067,-0.73903 1.39158,-1.34368 0.84646,-1.34368 -2.59005,0 -4.61292,5.44488 -2.72446,7.33333 1.0385,1.03851 1.09079,0.84874 0.5482,-1.98965 z M 254.62,511.29441 c 12.92628,-6.2575 10.30715,-27.58106 -4.54461,-36.99977 -16.37651,-10.38568 -39.22936,8.67476 -31.77922,26.50547 4.24587,10.16178 24.76484,16.08991 36.32383,10.4943 z m -27.38189,-26.46182 c -0.33077,-0.86197 -0.0884,-2.08018 0.53853,-2.70714 1.40744,-1.40744 4.74172,1.4685 3.68495,3.1784 -0.9981,1.61495 -3.53139,1.33229 -4.22348,-0.47126 z m -31.33583,19.56722 c 0,-3.22993 -1.39319,-4.0237 -2.41026,-1.37325 -0.53181,1.38586 0.85674,4.37325 2.0327,4.37325 0.20766,0 0.37756,-1.35 0.37756,-3 z m 87.47549,-6.65013 c 0.3792,-3.03504 0.53985,-5.66327 0.35699,-5.84052 -0.18287,-0.17724 -2.46998,-0.64045 -5.08248,-1.02935 l -4.75,-0.70709 0,6.55019 0,6.55018 3.25,0.33285 c 5.0053,0.51261 5.48628,0.0602 6.22549,-5.85626 z m -12.47549,-1.34987 0,-7 -2.88894,0 -2.88894,0 0.13894,6.25 c 0.14193,6.38472 0.80713,7.70772 3.88894,7.73469 1.50146,0.0131 1.75,-0.97886 1.75,-6.98469 z m -75,0.0818 c 0,-0.50502 0.27314,-1.63002 0.60699,-2.5 0.4513,-1.17608 -0.0189,-1.58179 -1.83334,-1.58179 -3.38616,0 -4.06742,1.01791 -2.12084,3.16885 1.78336,1.9706 3.34719,2.39713 3.34719,0.91294 z m 2.49716,-10.07284 c 0.89457,-2.81854 -0.16139,-4.00895 -3.55618,-4.00895 -3.51281,0 -3.64266,0.6242 -0.76667,3.68555 2.66156,2.83309 3.50625,2.89629 4.32285,0.3234 z m 84.28438,-3.75895 c -0.50362,-3.1625 -0.76975,-7.6625 -0.5914,-10 0.30749,-4.03003 0.18462,-4.25 -2.37392,-4.25 -1.484,0 -2.90284,0.3375 -3.15297,0.75 -0.25014,0.4125 -0.77703,4.65275 -1.17087,9.42278 l -0.71607,8.67279 2.86184,0.42738 c 6.44055,0.96182 6.14277,1.25263 5.14339,-5.02295 z m -10.76789,-3 c 0.008,-4.2625 0.285,-8.7625 0.61664,-10 0.54254,-2.0245 0.24665,-2.25 -2.95239,-2.25 -3.9245,0 -3.98056,0.15396 -4.98779,13.69822 -0.41435,5.57167 -0.633,5.3497 6.05989,6.15195 0.90435,0.1084 1.25378,-1.99321 1.26365,-7.60017 z m -68.65074,-5.25 3.55617,-7 -2.73703,0 c -1.50537,0 -3.73974,0.70232 -4.96526,1.5607 -2.45191,1.71739 -5.21679,6.44594 -5.21679,8.92186 0,1.33487 2.82471,3.22814 5.15336,3.45405 0.35935,0.0349 2.25365,-3.08661 4.20955,-6.93661 z m 58.79852,-1.5 0.33857,-6 -3,0 c -2.74629,0 -3.0263,0.31799 -3.31096,3.76002 -0.32705,3.95449 3.28159,10.70728 4.84534,9.06702 0.43366,-0.45487 0.94083,-3.52704 1.12705,-6.82704 z m -85.35149,-0.80755 c 2.88289,-2.91915 5.02002,-5.52916 4.74917,-5.8 -0.27084,-0.27085 1.12457,-0.49245 3.10093,-0.49245 4.75484,0 9.74542,-5.18406 9.1164,-9.46984 -0.228,-1.5535 -0.0866,-2.62187 0.31416,-2.37417 0.92354,0.57078 27.9094,-25.68341 27.9094,-27.15268 0,-1.50438 -39.23868,-2.7624 -44.05685,-1.41249 -1.95626,0.54809 -4.88126,2.37784 -6.5,4.06611 l -2.94315,3.0696 -0.31006,20.12937 c -0.32293,20.96518 -1.9e-4,24.7441 2.11327,24.7441 0.69581,0 3.62384,-2.3884 6.50673,-5.30755 z m 13.31761,2.55755 c 1.24167,-1.58325 1.20691,-1.62023 -0.36482,-0.38812 -2.24459,1.75957 -4.76273,0.77517 -4.76273,-1.86188 0,-2.54422 2.51064,-3.65103 4.51273,-1.98943 1.00532,0.83433 1.48727,0.87676 1.48727,0.13093 0,-1.3335 -4.46174,-2.5922 -5.94317,-1.67663 -1.42926,0.88333 -1.33956,4.8524 0.14317,6.33513 1.67907,1.67907 3.32333,1.49554 4.92755,-0.55 z m 63.46329,-7.9925 c -0.18867,-0.18866 -1.97379,-0.60766 -3.96694,-0.93111 -3.127,-0.50744 -3.6239,-0.32078 -3.6239,1.36134 0,1.21504 1.22433,2.53276 3.25,3.4979 3.1906,1.52018 3.2631,1.50157 3.96693,-1.01831 0.39432,-1.41173 0.56257,-2.72115 0.37391,-2.90982 z m 26.40916,-1.63506 c 0,-0.20765 -0.675,-0.93775 -1.5,-1.62244 -1.22851,-1.01957 -1.5,-0.95124 -1.5,0.37756 0,0.89234 0.675,1.62244 1.5,1.62244 0.825,0 1.5,-0.1699 1.5,-0.37756 z m -6.19702,-2.80931 c 0.18193,-0.96099 -0.81948,-2.43306 -2.32716,-3.42093 -2.24888,-1.47352 -2.78163,-1.52057 -3.54585,-0.31313 -0.49464,0.78151 -0.90624,2.46194 -0.91466,3.73429 -0.0133,2.00898 0.41123,2.27213 3.2265,2 2.08353,-0.2014 3.35592,-0.91607 3.56117,-2.00023 z m -10.20697,-2.47321 c 0.54665,-2.9139 0.31306,-3.93325 -1.14582,-5 -2.72611,-1.99338 -2.96534,-1.77874 -4.07947,3.66008 l -1.02424,5 2.78145,0 c 2.41023,0 2.87308,-0.48848 3.46808,-3.66008 z m -8.29553,-2.17994 c 0.46905,-2.38701 0.70247,-4.49036 0.51871,-4.67412 -0.18377,-0.18377 -1.6219,-0.48076 -3.19586,-0.65999 -2.61256,-0.2975 -2.98065,0.0659 -4.22735,4.17413 -1.87055,6.16385 -1.87193,6.1604 2.32785,5.81036 3.52414,-0.29372 3.76955,-0.54308 4.57665,-4.65038 z m 25.85697,-0.65862 c -0.1884,-3.02575 -0.55549,-5.50136 -0.81574,-5.50136 -1.01785,0 -4.8806,2.35828 -5.56855,3.3997 -0.41852,0.63355 0.85408,2.46302 3,4.31275 2.04976,1.76685 3.72684,3.22997 3.72684,3.25137 0,0.0214 -0.15415,-2.43671 -0.34255,-5.46246 z m -66.65745,-5.50136 c 0,-1.83273 -0.60174,-2.58545 -2.25447,-2.82014 -1.35228,-0.19202 -2.49559,0.3082 -2.85699,1.25 -0.99567,2.59467 0.39988,4.73919 2.85699,4.39028 1.65273,-0.23469 2.25447,-0.98741 2.25447,-2.82014 z m 48.43497,-8.42164 c 0.90766,-1.09367 0.90005,-1.95879 -0.033,-3.75 -0.66705,-1.2806 -1.52634,-3.00336 -1.90952,-3.82836 -0.8988,-1.93511 -4.69168,-2.49451 -6.53587,-0.96396 -0.87953,0.72994 -1.37099,2.78078 -1.27198,5.3078 0.0888,2.26503 0.32423,3.62968 0.52327,3.03254 0.40443,-1.21327 5.01804,-0.62888 5.86592,0.74302 0.79041,1.2789 2.01425,1.0819 3.36118,-0.54104 z m -2.93497,-0.0193 c 0,-0.24254 0.45,-0.7191 1,-1.05902 0.55,-0.33992 1,-0.14148 1,0.44098 0,0.58246 -0.45,1.05902 -1,1.05902 -0.55,0 -1,-0.19844 -1,-0.44098 z m -4.96017,-3.01103 c -0.70843,-0.8536 -0.91058,-2.37987 -0.4905,-3.70341 0.71235,-2.24441 0.72172,-2.24241 3.0231,0.6438 1.2697,1.59235 2.08377,3.25888 1.80904,3.7034 -0.78849,1.27581 -3.02358,0.94438 -4.34164,-0.64379 z m 27.71017,0.65823 c -0.9625,-0.19408 -1.75,-0.79643 -1.75,-1.33856 0,-0.54213 -0.5625,-0.64776 -1.25,-0.23472 -0.83792,0.50341 -0.79418,0.18913 0.13268,-0.95331 1.1334,-1.39704 1.65909,-1.47671 2.91587,-0.44196 1.33851,1.10204 1.43926,0.88139 0.79339,-1.73767 -0.4069,-1.65 -1.15654,-3.15 -1.66588,-3.33333 -0.50933,-0.18334 -0.92606,-0.93818 -0.92606,-1.67742 0,-0.73925 -1.18569,-2.27675 -2.63486,-3.41667 -2.85303,-2.24419 -5.95248,-2.83193 -4.76011,-0.90264 0.48383,0.78286 0.18126,0.96203 -0.91454,0.54153 -0.99926,-0.38345 -2.02585,0.0376 -2.63363,1.08006 -0.54783,0.93966 -1.00973,1.23597 -1.02645,0.65847 -0.0167,-0.5775 0.50209,-1.5825 1.15292,-2.23333 0.65084,-0.65084 0.87119,-1.49549 0.48967,-1.877 -1.10884,-1.10885 -3.6064,2.9069 -3.6412,5.85457 -0.0407,3.45175 3.72364,7.82222 7.03543,8.16815 1.41197,0.14749 3.60113,0.99234 4.8648,1.87745 1.26367,0.8851 3.03341,1.31902 3.93277,0.96427 1.46917,-0.57953 1.45752,-0.68085 -0.1148,-0.99789 z m -3.75,-5.70622 c 0.68469,-0.825 1.46989,-1.5 1.74489,-1.5 0.275,0 -0.0602,0.675 -0.74489,1.5 -0.68469,0.825 -1.46989,1.5 -1.74489,1.5 -0.275,0 0.0602,-0.675 0.74489,-1.5 z m -3,-4.5 c -0.5887,-1.1 -0.84537,-2 -0.57037,-2 0.275,0 0.98167,0.9 1.57037,2 0.5887,1.1 0.84537,2 0.57037,2 -0.275,0 -0.98167,-0.9 -1.57037,-2 z m -32,7.94098 c 0,-0.51754 -0.45,-0.94098 -1,-0.94098 -0.55,0 -1,0.70156 -1,1.55902 0,0.85746 0.45,1.2809 1,0.94098 0.55,-0.33992 1,-1.04148 1,-1.55902 z"/>
    <path style="fill:#97ceb3" id="path4456" d="m 189.51839,538.74319 c -1.46115,-1.46114 -2.88952,-3.59864 -3.17418,-4.75 -0.55624,-2.24988 0.003,-11.37144 0.74225,-12.11089 0.24624,-0.24624 1.89198,0.0974 3.6572,0.76374 3.44764,1.30134 6.2149,0.37279 6.90714,-2.31767 0.21311,-0.82827 -0.0979,-0.6932 -0.74017,0.32144 -1.12326,1.77453 -6.00835,2.48388 -6.00835,0.87244 0,-1.39347 2.65045,-3.22041 4.92009,-3.39137 1.14395,-0.0862 2.07991,-0.25662 2.07991,-0.37877 0,-0.12216 -0.43886,-1.3764 -0.97525,-2.7872 -0.73768,-1.94024 -1.68225,-2.5651 -3.87755,-2.5651 -1.59627,0 -3.46251,0.675 -4.1472,1.5 -0.79319,0.95573 -3.0033,1.5 -6.09106,1.5 -3.89686,0 -4.73342,-0.29383 -4.27057,-1.5 0.31659,-0.825 0.12271,-1.5 -0.43082,-1.5 -0.58719,0 -0.97235,-2.91599 -0.92462,-7 0.045,-3.85 0.47631,-7 0.95846,-7 0.48215,0 0.63812,-0.38593 0.3466,-0.85763 -0.29152,-0.47169 -0.0488,-2.38419 0.53932,-4.25 0.58814,-1.8658 1.16283,-4.53162 1.27707,-5.92404 0.11425,-1.39242 0.62561,-3.19242 1.13636,-4 0.51075,-0.80758 0.99177,-1.80583 1.06895,-2.21833 0.0772,-0.4125 0.25281,-0.975 0.39031,-1.25 0.29319,-0.58638 0.69793,-2.14118 0.875,-3.36133 0.0688,-0.47373 1.1375,-0.68808 2.375,-0.47632 3.00872,0.51482 5.14702,-1.03351 5.32233,-3.85388 0.0892,-1.43542 3.33374,-5.55401 8.57893,-10.89011 6.71557,-6.83198 8.75568,-8.37964 10.00616,-7.59086 0.86391,0.54494 2.3069,0.7083 3.20666,0.36303 2.41938,-0.9284 2.02096,-4.60021 -0.61408,-5.65937 l -2.25,-0.90439 2.22225,-0.0634 c 2.65749,-0.0758 22.85203,-19.8891 21.57421,-21.16692 -0.45835,-0.45835 -12.6126,-1.14323 -27.00945,-1.52195 -23.34159,-0.61402 -26.6606,-0.50355 -30.65043,1.02018 -8.13513,3.10683 -8.06551,2.79261 -8.66389,39.10531 l -0.5273,32 -0.21896,-31.5 c -0.20772,-29.88346 -0.11698,-31.66726 1.76817,-34.75914 1.09292,-1.79253 3.45373,-4.15334 5.24626,-5.24626 3.13333,-1.91042 5.11198,-1.98668 51.25914,-1.97555 29.75208,0.007 48.57025,0.38539 49.5,0.99487 1.05633,0.69244 0.49432,0.78996 -1.90007,0.32967 -4.08392,-0.78508 -6.09993,1.28339 -6.09993,6.25865 0,3.80056 4.69516,8.39776 8.57673,8.39776 1.3328,0 2.42327,0.40186 2.42327,0.89301 0,1.24605 2.7097,2.15562 4.44174,1.49097 0.79296,-0.30429 1.62554,-1.75266 1.85017,-3.21861 0.70248,-4.58435 0.73572,50.24808 0.0445,73.33463 l -0.65873,22 -3.18534,3.19652 c -2.29615,2.30421 -3.78648,3.03931 -5.33882,2.63337 -1.2552,-0.32824 -2.15352,-0.0974 -2.15352,0.55348 0,0.61415 -0.675,1.11663 -1.5,1.11663 -0.825,0 -1.5,-0.45 -1.5,-1 0,-0.55 -2.025,-1 -4.5,-1 -2.475,0 -4.5,0.45 -4.5,1 0,1.60922 -1.7288,1.14913 -2.41655,-0.64313 -0.85002,-2.21512 -0.67373,-2.31016 5.51926,-2.9753 2.96851,-0.31883 5.70533,-0.76846 6.08183,-0.99919 0.37649,-0.23072 0.49749,-2.41484 0.26888,-4.85359 -0.47902,-5.11015 0.006,-5.58348 6.32891,-6.17414 2.54582,-0.23783 4.75218,-0.55583 4.90302,-0.70667 0.15084,-0.15084 0.57473,-4.18334 0.94198,-8.96111 l 0.66772,-8.68687 -5.16657,0 c -5.01168,0 -5.14777,0.075 -4.53912,2.5 0.47449,1.89052 0.23534,2.5 -0.98095,2.5 -1.12046,0 -1.60841,-0.91013 -1.60841,-3 0,-2.7521 -0.28434,-3 -3.44098,-3 -1.89254,0 -3.71385,0.4415 -4.04735,0.98111 -0.3335,0.53962 -0.87107,4.73202 -1.19459,9.31646 l -0.58824,8.33534 3.38558,1.08146 3.38558,1.08145 -3.25,0.10209 c -2.53149,0.0795 -3.25,0.53731 -3.25,2.07071 0,1.33903 -0.47971,1.78453 -1.5,1.39301 -0.825,-0.31659 -1.5,-1.20246 -1.5,-1.96862 0,-1.00495 -1.3929,-1.39301 -5,-1.39301 -4.22222,0 -5,0.29167 -5,1.875 0,1.03125 -0.28125,3.28125 -0.625,5 -0.60652,3.03262 -0.51959,3.125 2.94098,3.125 1.96129,0 3.8441,0.45 4.18402,1 0.37325,0.60393 -0.98962,1 -3.44098,1 -2.94135,0 -4.05902,0.41303 -4.05902,1.5 0,0.825 -0.45,1.5 -1,1.5 -0.55,0 -1,-0.675 -1,-1.5 0,-1.13333 -1.22222,-1.5 -5,-1.5 -3.77778,0 -5,0.36667 -5,1.5 0,1.24859 -1.97778,1.5 -11.8,1.5 -7.84444,0 -12.20226,-0.40226 -13,-1.2 -0.93333,-0.93333 -1.46667,-0.93333 -2.4,0 -0.72456,0.72456 -4.23636,1.2 -8.86364,1.2 -6.96169,0 -7.90696,-0.24333 -10.32025,-2.65662 z m 90.78833,-2.18876 c 0.28736,-0.46496 0.82143,-2.71496 1.18683,-5 l 0.66435,-4.15462 -4.52712,0 -4.52711,0 -0.36351,4.57052 c -0.19993,2.51378 -0.17024,4.76378 0.066,5 0.78588,0.78587 6.96977,0.44298 7.50059,-0.4159 z m -34.40444,-5.61294 0,-4.34029 -4.5,-0.3579 c -4.22908,-0.33635 -4.50082,-0.20696 -4.51366,2.1493 -0.007,1.37897 -0.27765,3.49163 -0.60031,4.69481 -0.52948,1.9744 -0.16268,2.21874 3.76366,2.50709 2.39267,0.17573 4.68781,0.17725 5.10031,0.003 0.4125,-0.17386 0.75,-2.26924 0.75,-4.6564 z m 13.36971,-8.79168 c 0.33164,-1.2375 0.60913,-4.12379 0.61663,-6.41397 l 0.0137,-4.16397 -4.8941,2.0677 c -4.27093,1.80441 -4.96648,2.51367 -5.46248,5.57017 -0.75736,4.66702 -0.27372,5.19007 4.79897,5.19007 3.63918,0 4.41988,-0.3565 4.92732,-2.25 z m -12.36971,-2.11833 c 0,-3.20427 -0.20608,-3.39597 -4.23086,-3.93581 -2.32697,-0.31211 -4.37122,-0.42712 -4.54276,-0.25557 -0.17155,0.17155 -0.57654,1.94266 -0.89999,3.93581 l -0.58808,3.6239 5.13085,0 5.13084,0 0,-3.36833 z m 7.71772,-8.73707 c 12.98243,-6.28469 10.37167,-27.54015 -4.54461,-36.99977 -13.69981,-8.68816 -33.0745,2.6527 -33.15115,19.40483 -0.0379,8.28873 3.86625,13.23418 13.61044,17.24044 7.80223,3.20784 17.88457,3.35624 24.08532,0.3545 z m -27.38189,-26.46182 c -0.33077,-0.86197 -0.0884,-2.08018 0.53853,-2.70714 1.40744,-1.40744 4.74172,1.4685 3.68495,3.1784 -0.9981,1.61495 -3.53139,1.33229 -4.22348,-0.47126 z m -31.33583,19.56722 c 0,-3.14017 -1.64919,-4.07779 -2.63837,-1.5 -0.71526,1.86394 0.2261,4.5 1.60698,4.5 0.56727,0 1.03139,-1.35 1.03139,-3 z m 87.5594,-6.6291 c 0.37536,-3.0043 0.51555,-5.62469 0.31154,-5.82309 -0.20402,-0.1984 -2.50844,-0.67891 -5.12094,-1.06781 l -4.75,-0.70709 0,6.55019 0,6.55018 3.25,0.33285 c 5.0339,0.51554 5.5789,0.0115 6.3094,-5.83523 z m -12.5594,-1.3709 0,-7 -2.92082,0 -2.92082,0 0.35975,6.75 c 0.19787,3.7125 0.38724,6.8625 0.42082,7 0.0336,0.1375 1.18607,0.25 2.56107,0.25 2.42857,0 2.5,-0.2 2.5,-7 z m -75,0.0818 c 0,-0.50502 0.27314,-1.63002 0.60699,-2.5 0.4513,-1.17608 -0.0189,-1.58179 -1.83334,-1.58179 -3.38616,0 -4.06742,1.01791 -2.12084,3.16885 1.78336,1.9706 3.34719,2.39713 3.34719,0.91294 z m 2.56749,-12.76651 c -0.51086,-1.33129 -6.56749,-1.90306 -6.56749,-0.62 0,0.38241 1.22245,1.97124 2.71655,3.53075 l 2.71655,2.83547 0.81956,-2.21547 c 0.45075,-1.2185 0.59243,-2.80734 0.31483,-3.53075 z m 85.21872,-5.06528 -0.28621,-9.75 -3.60059,-0.30146 -3.60059,-0.30146 -0.6423,6.80146 c -1.21605,12.87695 -1.20583,12.90087 5.62969,13.18546 l 2.78621,0.116 -0.28621,-9.75 z m -11.7752,2.5 c 0.006,-3.4375 0.28993,-7.9375 0.63084,-10 0.61963,-3.74873 0.61863,-3.75 -2.94973,-3.75 -3.94489,0 -3.73873,-0.55434 -5.09083,13.68882 -0.5308,5.59157 -0.7925,5.32933 6.14871,6.16135 0.88164,0.10568 1.25324,-1.69197 1.26101,-6.10017 z m -68.55763,-6.03306 c 1.62436,-3.41932 3.12436,-6.55444 3.33334,-6.96694 0.65574,-1.29439 -4.75806,-0.81618 -7.6417,0.675 -4.99723,2.58418 -6.84592,9.95577 -2.89502,11.54384 3.73035,1.49941 4.13699,1.20294 7.20338,-5.2519 z m 58.9826,-2.53457 0.67864,-6.31764 -3.30731,0.31764 c -3.13324,0.30091 -3.3238,0.54753 -3.62058,4.68583 -0.24595,3.42934 0.17032,4.88296 1.93675,6.76324 1.23752,1.31728 2.56139,2.05159 2.94195,1.6318 0.38055,-0.41978 0.9973,-3.60618 1.37055,-7.08087 z m -9.14393,-2.92982 c 0.59839,-3.13026 -0.56448,-4.21509 -4.54205,-4.23724 -3.67427,-0.0205 -3.67324,2.92535 0.002,5.14326 3.7515,2.26407 3.94151,2.22616 4.54027,-0.90602 z m 26.70795,-4.63011 c 0,-0.20765 -0.675,-0.93775 -1.5,-1.62244 -1.22851,-1.01957 -1.5,-0.95124 -1.5,0.37756 0,0.89234 0.675,1.62244 1.5,1.62244 0.825,0 1.5,-0.1699 1.5,-0.37756 z m -6,-2.59939 c 0,-1.08732 -1.1634,-2.73924 -2.58534,-3.67093 -2.2009,-1.44208 -2.71908,-1.48269 -3.48469,-0.27305 -0.49464,0.78151 -0.90624,2.43343 -0.91466,3.67093 -0.013,1.90768 0.51719,2.25 3.48469,2.25 2.81973,0 3.5,-0.38425 3.5,-1.97695 z m -9.93235,-3.19038 c 0.51672,-3.20839 0.28299,-3.80751 -1.86773,-4.78744 -1.35211,-0.61606 -2.57266,-0.99076 -2.71234,-0.83267 -0.13968,0.15809 -0.70727,2.44978 -1.26132,5.09264 l -1.00735,4.80519 3.12905,-0.30519 c 2.75142,-0.26837 3.20033,-0.74779 3.71969,-3.97253 z m 19.89908,-4.08267 c -0.0331,-8.204 -0.0437,-8.23745 -1.91029,-6 -1.03236,1.2375 -2.44446,2.25 -3.13799,2.25 -1.43886,0 -4.91845,2.90707 -4.91845,4.10918 0,0.71534 8.76955,7.89082 9.6438,7.89082 0.19591,0 0.34123,-3.7125 0.32293,-8.25 z m -28.57037,2.4797 c 1.03066,-4.91006 0.98088,-5.00425 -3.0729,-5.81501 -2.81465,-0.56293 -3.07401,-0.36762 -3.63816,2.73958 -0.3341,1.84015 -0.91051,4.389 -1.28089,5.66412 -0.6318,2.17503 -0.43325,2.29869 3.21108,2 3.69099,-0.30253 3.92916,-0.53113 4.78087,-4.58869 z m -0.39636,-9.2297 c 0,-0.55 -0.45,-1 -1,-1 -0.55,0 -1,0.45 -1,1 0,0.55 0.45,1 1,1 0.55,0 1,-0.45 1,-1 z m -1,-5.25 c 0,-1.17109 -1.45675,-0.87974 -1.875,0.375 -0.20625,0.61875 0.13125,0.95625 0.75,0.75 0.61875,-0.20625 1.125,-0.7125 1.125,-1.125 z m 9.55893,0.15465 c 0.37233,-0.60245 0.21469,-2.06495 -0.3503,-3.25 -0.565,-1.18506 -1.26766,-2.91271 -1.56147,-3.83923 -0.9168,-2.89117 -4.04242,-3.9273 -6.54965,-2.17117 -2.72445,1.90828 -2.49905,6.1994 0.40249,7.66258 1.1,0.55471 2.675,1.36113 3.5,1.79206 2.16358,1.1301 3.78308,1.0611 4.55893,-0.19424 z m -19.80907,-5.48812 c -0.95295,-0.95296 -2.86349,0.5906 -2.1533,1.7397 0.42211,0.683 0.98146,0.66575 1.69964,-0.0524 0.58876,-0.58876 0.79291,-1.34803 0.45366,-1.68727 z m -51.99986,76.92119 c 0.6875,-0.27741 1.8125,-0.27741 2.5,0 0.6875,0.27741 0.125,0.50439 -1.25,0.50439 -1.375,0 -1.9375,-0.22698 -1.25,-0.50439 z m -3.73469,-40.0287 c 0.008,-0.44496 0.45153,-1.48402 0.98469,-2.30902 0.8354,-1.29269 0.97149,-1.26629 0.98469,0.19098 0.008,0.93004 -0.43469,1.9691 -0.98469,2.30902 -0.55,0.33992 -0.99311,0.25398 -0.98469,-0.19098 z m 94.96245,-40.39235 c -0.0122,-0.77917 -0.90222,-2.54167 -1.97776,-3.91667 -2.557,-3.26894 -2.58193,-4.97699 -0.0297,-2.03423 2.22188,2.56185 3.50864,5.88861 2.621,6.77626 -0.32522,0.32522 -0.60132,-0.0462 -0.61355,-0.82536 z"/>
    <path style="fill:#8fb2a1" id="path4454" d="m 190.20156,539.14981 c -3.29924,-3.62226 -4.23824,-6.19083 -4.01195,-10.97437 0.21229,-4.48731 2.01415,-7.71488 3.21882,-5.76567 0.96206,1.55663 6.11081,1.1565 7.5581,-0.58738 1.04818,-1.26298 1.07259,-2.46188 0.12245,-6.01435 -0.65269,-2.44031 -1.1867,-6.83324 -1.1867,-9.76207 0,-4.71803 -0.28669,-5.45576 -2.51473,-6.47092 -4.88314,-2.2249 -5.89997,-9.17524 -1.34234,-9.17524 l 2.2057,0 -2.17432,-2.31445 c -4.51812,-4.80933 -1.41654,-9.71176 4.77807,-7.55231 1.73234,0.6039 3.23924,0.93347 3.34867,0.73238 0.10942,-0.20109 1.96734,-3.85112 4.12871,-8.11117 4.24274,-8.36243 10.55942,-15.45158 17.32024,-19.43833 4.57269,-2.69645 4.86061,-3.30666 3.1066,-6.58406 -0.76897,-1.43684 -0.80374,-2.24968 -0.10616,-2.48221 0.57049,-0.19016 0.78895,-1.29524 0.48547,-2.45573 -0.45986,-1.7585 -0.19887,-2.0177 1.56674,-1.55598 1.58897,0.41553 2.76618,-0.29513 4.70962,-2.84312 4.0075,-5.2541 7.36297,-6.52331 16.52758,-6.25155 4.37808,0.12982 7.96015,0.54555 7.96015,0.92384 0,0.37829 -0.71332,1.2798 -1.58516,2.00336 -0.99233,0.82357 -1.43109,2.36529 -1.17319,4.12245 0.22658,1.54378 0.0399,2.80688 -0.41484,2.80688 -0.45475,0 -0.82681,0.675 -0.82681,1.5 0,1.81392 0.45149,1.8595 2.95186,0.29799 1.51532,-0.94633 2.44933,-0.92124 4.39108,0.11795 1.35649,0.72598 2.95926,1.01532 3.56171,0.64299 1.37041,-0.84696 1.4342,-4.23148 0.0953,-5.05893 -0.55,-0.33992 -1,-1.47564 -1,-2.52383 0,-1.04819 -0.84064,-2.3557 -1.8681,-2.90558 -1.28055,-0.68536 -1.72342,-1.7563 -1.40819,-3.40537 0.82256,-4.3029 -3.00162,-4.80258 -41.32015,-5.39907 -19.30307,-0.30048 -36.62807,-0.25644 -38.5,0.0979 -4.72522,0.89436 -8.72321,4.4069 -10.39862,9.13599 -0.88352,2.49389 -1.43363,3.20849 -1.461,1.89788 -0.0646,-3.09229 3.95179,-8.42666 7.94051,-10.54627 3.24554,-1.72468 6.63231,-1.85161 49.40499,-1.85161 43.63979,0 45.84593,0.0869 44.4176,1.75 -2.496,2.9062 -2.85799,5.19217 -1.38171,8.72541 1.47795,3.53723 4.13511,5.52459 7.38653,5.52459 1.06882,0 2.5035,0.675 3.18819,1.5 0.68469,0.825 2.08979,1.5 3.12244,1.5 1.28986,0 1.86761,0.70429 1.84576,2.25 -0.0414,2.93035 -1.73149,5.06199 -5.59702,7.05934 -4.95038,2.55791 -4.77286,4.04835 0.95838,8.04631 l 5.17044,3.60676 0.54688,-13.7312 c 0.34002,-8.53754 0.5449,-1.8167 0.54165,17.76879 -0.003,17.325 -0.16035,29.8675 -0.34995,27.87223 -0.31548,-3.31994 -0.65843,-3.67964 -4.04166,-4.23899 -6.30581,-1.04256 -6.19692,-1.14373 -6.19692,5.75735 l 0,6.3906 3.51336,0.41016 c 4.10755,0.47954 5.07588,0.0267 5.75496,-2.69135 0.27482,-1.1 0.55188,5.72797 0.61568,15.17327 0.11546,17.09292 0.10389,17.18768 -2.47289,20.25 -1.79915,2.13817 -3.47694,3.07673 -5.5,3.07673 -1.60111,0 -2.91111,0.45 -2.91111,1 0,0.55 -0.675,1 -1.5,1 -0.825,0 -1.5,-0.45 -1.5,-1 0,-0.55 -2.025,-1 -4.5,-1 -2.475,0 -4.5,0.45 -4.5,1 0,1.80939 -1.75558,1.04267 -2.28975,-1 -0.29606,-1.13214 -0.0212,-2.03093 0.63337,-2.07128 3.15433,-0.19445 9.29293,-1.02389 10.34771,-1.39818 0.77263,-0.27417 1.04286,-2.0066 0.76888,-4.9293 -0.48647,-5.18961 -0.016,-5.6545 6.32212,-6.24659 2.54582,-0.23783 4.77914,-0.58279 4.96294,-0.76659 0.18379,-0.18379 0.60813,-4.21629 0.94298,-8.96111 l 0.60881,-8.62695 -5.16758,0 c -5.01275,0 -5.14878,0.0749 -4.54012,2.5 0.47449,1.89052 0.23534,2.5 -0.98095,2.5 -1.12046,0 -1.60841,-0.91013 -1.60841,-3 0,-2.7521 -0.28434,-3 -3.44098,-3 -1.89254,0 -3.71385,0.4415 -4.04735,0.98111 -0.3335,0.53962 -0.87107,4.73202 -1.19459,9.31646 l -0.58824,8.33534 3.38558,1.08146 3.38558,1.08145 -3.25,0.10209 c -2.53149,0.0795 -3.25,0.53731 -3.25,2.07071 0,1.33903 -0.47971,1.78453 -1.5,1.39301 -0.825,-0.31659 -1.5,-1.20246 -1.5,-1.96862 0,-1.00495 -1.3929,-1.39301 -5,-1.39301 -4.22222,0 -5,0.29167 -5,1.875 0,1.03125 -0.28125,3.28125 -0.625,5 -0.60652,3.03262 -0.51959,3.125 2.94098,3.125 1.96129,0 3.8441,0.45 4.18402,1 0.37325,0.60393 -0.98962,1 -3.44098,1 -2.94135,0 -4.05902,0.41303 -4.05902,1.5 0,0.825 -0.45,1.5 -1,1.5 -0.55,0 -1,-0.675 -1,-1.5 0,-1.13333 -1.22222,-1.5 -5,-1.5 -3.84455,0 -5,0.35737 -5,1.54647 0,1.31612 -1.75018,1.52396 -11.75,1.39539 -6.50252,-0.0836 -12.32717,-0.62135 -13.04238,-1.20409 -0.91251,-0.74349 -1.63265,-0.71274 -2.45,0.10461 -0.67442,0.67442 -4.34065,1.15762 -8.78331,1.15762 -6.63423,0 -7.89213,-0.29253 -9.67503,-2.25 z m 90.10516,-2.59538 c 0.28736,-0.46496 0.82143,-2.71496 1.18683,-5 l 0.66435,-4.15462 -4.52712,0 -4.52711,0 -0.36351,4.57052 c -0.19993,2.51378 -0.17024,4.76378 0.066,5 0.78588,0.78587 6.96977,0.44298 7.50059,-0.4159 z m -34.40444,-5.6086 0,-4.33595 -4.25,-0.44434 c -2.3375,-0.24438 -4.29911,-0.40415 -4.35912,-0.35503 -0.06,0.0491 -0.38545,2.20152 -0.72317,4.78311 l -0.61405,4.69382 4.22317,0.31328 c 2.32274,0.1723 4.56067,0.17103 4.97317,-0.003 0.4125,-0.17386 0.75,-2.26729 0.75,-4.65206 z m 13.36971,-8.79602 c 0.33164,-1.2375 0.60913,-4.12379 0.61663,-6.41397 l 0.0137,-4.16397 -4.91957,2.07846 c -4.18815,1.76944 -5.01307,2.57689 -5.5485,5.43098 -0.85243,4.54381 -0.13718,5.3185 4.91046,5.3185 3.63918,0 4.41988,-0.3565 4.92732,-2.25 z m -12.36971,-2.12219 c 0,-3.17911 -0.23668,-3.41004 -4.1335,-4.03317 -2.27343,-0.36353 -4.31767,-0.4768 -4.54277,-0.25171 -0.22509,0.2251 -0.67389,2.04002 -0.99734,4.03317 l -0.58808,3.6239 5.13085,0 5.13084,0 0,-3.37219 z m 7.71772,-8.73321 c 12.98243,-6.28469 10.37167,-27.54015 -4.54461,-36.99977 -13.69981,-8.68816 -33.0745,2.6527 -33.15115,19.40483 -0.0379,8.28873 3.86625,13.23418 13.61044,17.24044 7.80223,3.20784 17.88457,3.35624 24.08532,0.3545 z m -27.38189,-26.46182 c -0.33077,-0.86197 -0.0884,-2.08018 0.53853,-2.70714 1.40744,-1.40744 4.74172,1.4685 3.68495,3.1784 -0.9981,1.61495 -3.53139,1.33229 -4.22348,-0.47126 z m 43.66417,11.56722 0,-7 -2.90818,0 -2.90817,0 0.31412,6.75 c 0.17277,3.7125 0.35645,6.8625 0.40818,7 0.0517,0.1375 1.21905,0.25 2.59405,0.25 2.42857,0 2.5,-0.2 2.5,-7 z m -75,0.0818 c 0,-0.50502 0.27314,-1.63002 0.60699,-2.5 0.4513,-1.17608 -0.0189,-1.58179 -1.83334,-1.58179 -3.38616,0 -4.06742,1.01791 -2.12084,3.16885 1.78336,1.9706 3.34719,2.39713 3.34719,0.91294 z m 2.56749,-12.76651 c -0.51086,-1.33129 -6.56749,-1.90306 -6.56749,-0.62 0,0.38241 1.22245,1.97124 2.71655,3.53075 l 2.71655,2.83547 0.81956,-2.21547 c 0.45075,-1.2185 0.59243,-2.80734 0.31483,-3.53075 z m 85.21872,-5.06528 -0.28621,-9.75 -3.63958,-0.30378 -3.63958,-0.30379 -0.72604,9.17331 c -0.80867,10.21721 -0.48163,10.89205 5.29141,10.91895 l 3.28621,0.0153 -0.28621,-9.75 z m -11.77752,4 c 0.005,-2.6125 0.29246,-7.1125 0.63929,-10 l 0.6306,-5.25 -3.59398,0 c -4.01601,0 -4.02014,0.0103 -5.10882,12.68337 -0.49809,5.79813 -0.3924,6.21019 1.69652,6.61382 5.58297,1.07877 5.7272,0.97701 5.73639,-4.04719 z m -10.00869,-4.61043 c 0,-1.29823 0.28617,-4.44824 0.63592,-7 l 0.63593,-4.63957 -3.57843,0 c -3.49466,0 -3.58568,0.0995 -3.88818,4.25 -0.24496,3.36102 0.2005,4.82522 2.1296,7 2.98939,3.3701 4.06516,3.47319 4.06516,0.38957 z m -8.70855,-8.38387 c 0.70429,-3.68423 0.18723,-4.2557 -3.85047,-4.2557 -4.34092,0 -4.70623,2.73426 -0.68919,5.15857 3.75113,2.26385 3.94154,2.22598 4.53966,-0.90287 z m 26.70855,-4.63326 c 0,-0.20765 -0.675,-0.93775 -1.5,-1.62244 -1.22851,-1.01957 -1.5,-0.95124 -1.5,0.37756 0,0.89234 0.675,1.62244 1.5,1.62244 0.825,0 1.5,-0.1699 1.5,-0.37756 z m -6,-2.96193 c 0,-1.54318 -0.87644,-2.73881 -2.57494,-3.5127 -3.29482,-1.50122 -4.42506,-0.75764 -4.42506,2.91121 0,2.69445 0.29339,2.94098 3.5,2.94098 3.00263,0 3.5,-0.33245 3.5,-2.33948 z m -18.5331,-4.28834 c 0.75189,-5.01397 -0.094,-6.32805 -4.0919,-6.35686 -1.5474,-0.0111 -2.28175,0.76842 -2.70167,2.86803 -0.31716,1.58583 -0.86428,4.02927 -1.2158,5.42986 -0.57916,2.30754 -0.3256,2.57883 2.70166,2.89067 4.51239,0.46481 4.51361,0.4637 5.30771,-4.8317 z m 8.71459,1.52192 c 0.34344,-3.6013 0.0935,-4.21924 -2.03365,-5.02798 -1.33387,-0.50714 -2.53524,-0.79698 -2.66972,-0.64409 -0.13448,0.15289 -0.69252,2.41548 -1.24009,5.02798 l -0.99557,4.75 3.27373,0 c 3.10319,0 3.29414,-0.2139 3.6653,-4.10591 z m -8.68149,-10.89409 c -0.33992,-0.55 -1.04148,-1 -1.55902,-1 -0.51754,0 -0.94098,0.45 -0.94098,1 0,0.55 0.70156,1 1.55902,1 0.85746,0 1.2809,-0.45 0.94098,-1 z m 20.57376,-4.34766 c -0.52048,-1.41887 -1.79789,-2.25447 -3.74849,-2.45204 -2.34358,-0.23737 -3.19717,0.22314 -4.1044,2.21429 -0.64414,1.41373 -0.75559,2.75494 -0.25465,3.06453 0.48993,0.3028 1.03546,-0.46863 1.21229,-1.71429 0.23612,-1.66342 0.98535,-2.26483 2.82149,-2.26483 2.22334,0 2.4809,0.38732 2.32745,3.5 -0.15633,3.17089 -0.0452,3.32626 1.18165,1.65234 0.86334,-1.17793 1.06802,-2.62781 0.56466,-4 z m -32.07376,-5.15234 c 0,-0.825 -0.42344,-1.5 -0.94098,-1.5 -1.26098,0 -2.1641,1.56159 -1.36517,2.36052 1.12619,1.12618 2.30615,0.68589 2.30615,-0.86052 z m -53,82.47856 c 0,-1.2604 4.77438,-3.53752 5.62776,-2.68413 0.34063,0.34062 0.35285,1.31372 0.0272,2.16244 -0.65145,1.69766 -5.65492,2.15925 -5.65492,0.52169 z m 90.73556,-90.23488 -1.76444,-3.24368 2.01444,2.36078 c 1.71413,2.00885 2.63029,4.1548 1.76444,4.1329 -0.1375,-0.003 -1.044,-1.46598 -2.01444,-3.25 z m -25.73556,-1.74368 c 0,-0.55 0.45,-1 1,-1 0.55,0 1,0.45 1,1 0,0.55 -0.45,1 -1,1 -0.55,0 -1,-0.45 -1,-1 z m 15.27083,-5.60417 c 0.3323,-0.33229 1.1948,-0.36781 1.91667,-0.0789 0.79773,0.31922 0.56078,0.55618 -0.60417,0.60416 -1.05416,0.0434 -1.64479,-0.19292 -1.3125,-0.52522 z"/>
    <path style="fill:#72ad90" id="path4452" d="m 211.73639,537.99932 c -8.98027,-6.85695 -15.83411,-20.97326 -15.83411,-32.61226 0,-3.98082 -0.37108,-4.77524 -2.93915,-6.29223 -1.61653,-0.95491 -3.22871,-2.64853 -3.58262,-3.7636 -0.72171,-2.27391 1.0118,-4.93142 3.21679,-4.93142 1.10936,0 0.96309,-0.61919 -0.62244,-2.63486 -4.12962,-5.24996 -1.35301,-9.36382 4.62383,-6.85074 l 3.16836,1.33219 4.2411,-8.44232 c 4.52325,-9.00395 11.74046,-16.93275 18.22998,-20.02738 3.6415,-1.73651 5.16064,-4.4804 3.43561,-6.20543 -0.5716,-0.5716 -0.63547,-1.56787 -0.14964,-2.33433 0.46615,-0.73542 0.85444,-1.78713 0.86287,-2.33713 0.008,-0.55 0.55085,-1 1.20539,-1 0.65455,0 2.79928,-1.87999 4.76609,-4.17776 4.16279,-4.86328 8.9477,-6.76225 15.24937,-6.05196 5.40427,0.60914 6.86945,1.78682 5.47189,4.39818 -0.65384,1.22172 -0.66893,2.4888 -0.043,3.60736 0.64358,1.15001 0.61534,1.72418 -0.0848,1.72418 -0.57733,0 -1.04969,0.675 -1.04969,1.5 0,1.81758 1.16864,1.93136 2.82496,0.27504 0.96661,-0.96661 1.63864,-0.96661 3.18643,0 4.03921,2.52253 7.73259,0.49099 5.77809,-3.17824 -1.02022,-1.91526 -0.96686,-1.97298 0.61632,-0.66666 1.00929,0.83279 1.52196,2.2381 1.2274,3.36449 -0.45191,1.72811 -0.2307,1.68224 2.07469,-0.43014 l 2.58053,-2.36449 -1.54008,2.5 c -0.84705,1.375 -1.80779,3.625 -2.13498,5 -0.3272,1.375 -0.33562,1.9347 -0.0187,1.24377 0.3169,-0.69093 0.98775,-1.00187 1.49077,-0.69098 0.50302,0.31088 0.91459,-0.58631 0.91459,-1.99377 0,-1.77633 0.53525,-2.55434 1.75,-2.54371 1.49555,0.0131 1.5319,0.15626 0.25,0.98469 -1.22226,0.78989 -1.09882,0.97221 0.66667,0.98469 1.19166,0.008 2.39364,-0.54719 2.67105,-1.23469 0.27741,-0.6875 0.53991,-0.3275 0.58333,0.8 0.0434,1.1275 -0.46105,2.59 -1.12105,3.25 -0.93333,0.93333 -0.87778,1.20707 0.25,1.2318 1.06425,0.0233 0.94128,0.41678 -0.46224,1.47888 -2.62976,1.99005 -1.36455,4.29826 5.16224,9.41779 6.67147,5.23302 7.23278,8.47069 1.37164,7.91174 l -3.87836,-0.36986 -0.88382,9.7491 c -0.97656,10.77195 -0.9724,10.78055 5.22231,10.78055 2.40584,0 3.41821,0.45445 3.41821,1.53444 0,1.25933 -0.88023,1.41768 -4.9095,0.88318 l -4.9095,-0.65127 -0.3405,6.57431 -0.3405,6.57431 2.92299,0.29251 c 1.60764,0.16089 3.12795,0.91595 3.37846,1.67791 0.35767,1.0879 -0.32367,1.23922 -3.17299,0.70469 -3.53824,-0.66378 -3.62846,-0.60352 -3.62846,2.42362 0,1.81491 -0.41536,2.84763 -1,2.4863 -0.55,-0.33992 -1,-1.71648 -1,-3.05902 0,-2.12629 -0.45441,-2.44098 -3.52475,-2.44098 -4.0563,0 -5.10335,1.71864 -5.50078,9.02902 -0.45408,8.3525 -0.15177,9.51484 2.77553,10.67156 l 2.75,1.08666 -2.68045,0.10638 c -1.93762,0.0769 -2.80311,0.72992 -3.12305,2.35638 l -0.4426,2.25 -0.71917,-2.15664 c -0.56583,-1.69682 -1.67479,-2.23265 -5.20122,-2.51311 -2.46513,-0.19606 -4.94764,-0.0687 -5.51668,0.28296 -0.56904,0.35168 -1.26914,2.72008 -1.55578,5.26311 -0.5124,4.54602 -0.47278,4.62394 2.3589,4.63899 1.58403,0.008 3.55505,0.45153 4.38005,0.98469 1.10033,0.71109 0.38334,0.97345 -2.69098,0.98469 -2.30504,0.008 -4.49879,0.51335 -4.875,1.12207 -0.42436,0.68663 -0.92128,0.73931 -1.30902,0.1388 -0.34375,-0.53238 -2.7625,-1.283 -5.375,-1.66804 -4.35682,-0.64212 -4.75,-0.52944 -4.75,1.36121 0,1.1337 -0.45,2.06127 -1,2.06127 -0.59711,0 -1,-3.86141 -1,-9.58422 l 0,-9.58422 -15.41989,0.29965 c -15.14514,0.29432 -15.40097,0.33591 -14.35822,2.33422 2.50149,4.7938 5.43468,8.02204 11.03432,12.14427 5.05527,3.72147 5.5881,4.3903 3.4976,4.3903 -1.35641,0 -4.47028,-1.53022 -6.9197,-3.40049 z m 34.16589,-5.01772 c 0,-1.88002 0.26052,-4.09712 0.57893,-4.92689 0.44578,-1.16167 -0.4997,-1.67043 -4.11056,-2.21191 -5.4454,-0.81659 -6.42942,0.0577 -6.45306,5.73369 -0.0165,3.96371 0.74131,4.4934 6.73469,4.70732 3.05543,0.10906 3.25,-0.0886 3.25,-3.30221 z m 1.25988,-12.33179 c 0.26329,-2.0625 0.14866,-4.11636 -0.25473,-4.56414 -0.40338,-0.44777 -2.70706,-0.67277 -5.11929,-0.5 -4.2671,0.30563 -4.39417,0.41405 -4.69263,4.00387 -0.30587,3.67886 -0.29409,3.69086 4,4.07529 2.36872,0.21206 4.59504,0.46418 4.94736,0.56027 0.35233,0.0961 0.85601,-1.51279 1.11929,-3.57529 z m 12.74012,-2.83333 c 0,-3.62084 -0.3375,-6.40119 -0.75,-6.17856 -0.4125,0.22263 -2.6239,1.21323 -4.91423,2.20133 -4.12376,1.7791 -5.29356,3.60576 -5.32212,8.31056 -0.0125,2.06226 0.44527,2.25 5.48635,2.25 l 5.5,0 0,-6.58333 z m -4.5,-6.78985 c 10.17457,-5.40988 10.40816,-20.68926 0.48902,-31.98654 -6.56114,-7.47273 -16.71556,-9.76466 -25.52773,-5.76181 -9.41691,4.27755 -15.70062,15.93544 -13.32902,24.72874 3.44449,12.77129 25.04757,20.10203 38.36773,13.01961 z m -28.1771,-26.22775 c -0.85252,-2.22163 1.81066,-3.69306 3.54542,-1.95887 0.75258,0.75233 1.06352,1.86106 0.69099,2.46384 -1.00604,1.62779 -3.53361,1.32652 -4.23641,-0.50497 z m 43.69075,13.85093 c 0.008,-2.6125 0.285,-5.7625 0.61664,-7 0.54174,-2.02149 0.24538,-2.25 -2.91811,-2.25 l -3.52108,0 0.0438,7 0.0438,7 2.86062,0 c 2.7441,0 2.86119,-0.1935 2.87428,-4.75 z m -74.62064,-2.83179 c 1.04098,-2.71275 0.68469,-3.41821 -1.72634,-3.41821 -3.2822,0 -3.94203,1.03825 -2.01386,3.16885 2.03259,2.24599 2.95054,2.30719 3.7402,0.24936 z m 2.5367,-11.66821 c 0.0541,-1.34672 -0.73627,-1.75 -3.42971,-1.75 -4.19763,0 -4.34414,0.79711 -0.84125,4.5768 2.5168,2.71566 2.69992,2.7635 3.42972,0.89602 0.42403,-1.08505 0.80259,-2.76032 0.84124,-3.72282 z m 73.07029,0.90088 c 0,-1.29202 0.28626,-5.73563 0.63614,-9.8747 l 0.63615,-7.52558 -3.5641,-0.41609 c -4.02992,-0.47047 -3.97744,-0.59341 -5.26005,12.32167 -0.71318,7.18119 -0.54496,7.42638 5.30186,7.72782 1.72772,0.0891 2.25,-0.42929 2.25,-2.23312 z m -10,-6.51131 c 0,-1.57324 0.28617,-4.94824 0.63592,-7.5 l 0.63593,-4.63957 -3.50426,0 c -3.35898,0 -3.52756,0.17379 -4.06654,4.19218 -0.47566,3.54627 -0.14928,4.69071 2.11833,7.4278 3.34605,4.03883 4.18062,4.14255 4.18062,0.51959 z m -8.63029,-8.38957 c 1.13204,-4.22419 0.76714,-4.75 -3.29639,-4.75 -5.16042,0 -6.01456,2.74504 -1.62052,5.20808 3.96657,2.22343 4.20423,2.20129 4.91691,-0.45808 z m 27.54696,-5.03297 c -0.22917,-0.15563 -1.20417,-0.88573 -2.16667,-1.62244 -1.49798,-1.14658 -1.75,-1.10583 -1.75,0.28297 0,0.99737 0.83473,1.62244 2.16667,1.62244 1.19166,0 1.97916,-0.12734 1.75,-0.28297 z m -6.91667,-3.03182 c 0,-1.64806 -0.97959,-2.78192 -3.40101,-3.93661 l -3.40101,-1.62183 -0.37542,3.93661 -0.37541,3.93662 3.77642,0 c 3.28095,0 3.77643,-0.30371 3.77643,-2.31479 z m -18.47377,-4.38731 c 1.2638,-5.63936 0.8522,-6.2979 -3.93627,-6.2979 -1.88543,0 -2.4385,0.83196 -3.44138,5.17666 -1.33512,5.78404 -0.60766,7.05027 3.78163,6.58239 2.05117,-0.21865 2.61204,-1.07043 3.59602,-5.46115 z m 8.73365,1.9521 c 0.53102,-4.15989 0.23584,-4.72461 -2.97657,-5.69442 -2.30655,-0.69634 -2.23955,-0.82105 -3.86511,7.19442 -0.40208,1.98262 -0.0511,2.25 2.95334,2.25 3.18827,0 3.44073,-0.24348 3.88834,-3.75 z m -8.25988,-11.25 c 0,-0.55 -0.675,-1 -1.5,-1 -0.825,0 -1.5,0.45 -1.5,1 0,0.55 0.675,1 1.5,1 0.825,0 1.5,-0.45 1.5,-1 z m -12,-9.5 c 0,-0.825 -0.675,-1.5 -1.5,-1.5 -1.56157,0 -1.98397,1.1827 -0.83333,2.33333 1.15063,1.15064 2.33333,0.72824 2.33333,-0.83333 z m 15,100.5 c 0,-1.75495 0.66667,-2 5.44098,-2 5.96172,0 7.14975,-0.93126 6.69681,-5.2494 -0.16531,-1.57597 0.20343,-2.7506 0.86346,-2.7506 0.72258,0 1.03024,1.39782 0.82537,3.75 -0.32167,3.69322 -0.26605,3.75762 3.67338,4.25322 3.00142,0.3776 3.5427,0.68965 2.16821,1.25 -1.00748,0.41073 -2.65748,0.74678 -3.66666,0.74678 -1.00919,0 -2.07127,0.5625 -2.36018,1.25 -0.37617,0.89515 -0.83975,0.75321 -1.63302,-0.5 -1.46732,-2.31808 -10.00835,-2.53143 -10.00835,-0.25 0,0.825 -0.45,1.5 -1,1.5 -0.55,0 -1,-0.9 -1,-2 z m 23.03041,-8.75 -0.0304,-4.25 -4.41667,0 c -2.49845,0 -4.58707,0.51121 -4.80901,1.17705 -0.22992,0.68976 -0.92962,0.84501 -1.6901,0.375 -2.11915,-1.30971 0.7652,-2.51927 6.04915,-2.53674 5.48949,-0.0181 5.83205,-0.70186 5.85298,-11.68198 0.009,-4.80711 -0.3979,-7.33365 -1.23635,-7.67387 -0.93997,-0.3814 -0.87797,-0.76546 0.25,-1.54847 1.30781,-0.90786 1.53558,0.75311 1.7777,12.96316 0.15958,8.0477 -0.1465,14.73209 -0.71959,15.71515 -0.77698,1.33278 -1.00401,0.77181 -1.0277,-2.5393 z m -87.4274,-11.41667 c 0.28326,-0.45833 0.93847,-0.83333 1.45601,-0.83333 0.51754,0 0.94098,0.375 0.94098,0.83333 0,0.45834 -0.65521,0.83334 -1.45601,0.83334 -0.80081,0 -1.22425,-0.375 -0.94098,-0.83334 z m 78.39699,-65.45317 c 0,-0.30777 1.0125,-1.40423 2.25,-2.4366 1.2375,-1.03236 1.68369,-1.89199 0.99153,-1.91029 -1.00885,-0.0267 -1.0103,-0.43067 -0.007,-2.03673 1.4791,-2.36841 0.29592,-4.87421 -3.11987,-6.60744 -3.37006,-1.71003 -7.11478,-5.56154 -7.11062,-7.31341 0.002,-0.87447 0.88558,-0.12936 1.9853,1.67431 1.08986,1.7875 2.40365,3.25 2.91954,3.25 0.51588,0 2.3225,1.165 4.01469,2.58889 3.038,2.55631 4.25191,2.14938 1.82673,-0.61236 -0.6875,-0.7829 -0.31457,-0.6479 0.82874,0.3 1.14301,0.94791 2.83051,1.72347 3.7497,1.72347 1.11601,0 1.67126,0.83058 1.67126,2.5 0,1.375 -0.45,2.5 -1,2.5 -0.55,0 -1,-0.9 -1,-2 0,-1.11111 -0.66667,-2 -1.5,-2 -0.825,0 -1.5,0.6382 -1.5,1.41821 0,0.78002 -0.3009,2.20235 -0.66867,3.16074 -0.5469,1.4252 -0.25572,1.63454 1.59891,1.14954 1.24717,-0.32614 2.09885,-0.42424 1.89261,-0.218 -1.22894,1.22894 -7.82285,5.3336 -7.82285,4.86967 z m -11.29683,-19.06363 c -0.27341,-0.44909 0.69403,-1.68563 2.14986,-2.74786 l 2.64697,-1.93133 -1.98934,2.43133 c -1.09414,1.33723 -2.06158,2.57377 -2.14987,2.74786 -0.0883,0.17409 -0.38422,-0.0509 -0.65762,-0.5 z m -93.70317,-2.25751 c 0,-0.51754 0.44485,-1.21592 0.98855,-1.55194 0.56686,-0.35034 0.7345,0.0511 0.39301,0.94098 -0.66479,1.73242 -1.38156,2.04939 -1.38156,0.61096 z m 3,-4.55902 c 0.68469,-0.825 1.46989,-1.5 1.74489,-1.5 0.275,0 -0.0602,0.675 -0.74489,1.5 -0.68469,0.825 -1.46989,1.5 -1.74489,1.5 -0.275,0 0.0602,-0.675 0.74489,-1.5 z m 94.67936,-0.89318 c -0.31947,-0.83254 -2.23182,-1.65241 -4.37353,-1.87502 -2.82199,-0.29333 -2.28775,-0.43905 2.06661,-0.5637 5.44828,-0.15596 5.7757,-0.0417 4.53297,1.5819 -0.73671,0.9625 -1.41122,1.88191 -1.4989,2.04313 -0.0877,0.16122 -0.4149,-0.37262 -0.72715,-1.18631 z m -90.94603,-1.73091 c 0.67834,-0.68342 1.48524,-0.99067 1.79313,-0.68278 0.30789,0.30789 -0.24711,0.86705 -1.23333,1.24258 -1.4252,0.54268 -1.54006,0.42782 -0.5598,-0.5598 z"/>
    <path style="fill:#4d9573" id="path4450" d="m 209.58556,535.42238 c -8.51538,-7.96572 -13.68328,-19.6961 -13.68328,-31.05906 0,-1.8378 -1.20172,-3.96523 -3.5875,-6.35101 -3.83147,-3.83147 -4.0118,-5.55573 -0.73627,-7.04001 2.02282,-0.91662 2.02476,-0.96495 0.1654,-4.11633 -1.0348,-1.75385 -1.59934,-3.92397 -1.25455,-4.82249 0.7041,-1.83487 4.56829,-2.15607 7.44121,-0.61853 1.68321,0.90082 2.31979,0.14071 5.65305,-6.75 8.84622,-18.28743 27.69893,-29.18012 45.53306,-26.30802 6.36731,1.02543 7.42612,0.88828 6.36741,-0.82475 -0.34015,-0.55037 -2.128,-0.75572 -3.973,-0.45631 -3.94688,0.64049 -5.69092,-1.16432 -3.01553,-3.12061 1.49655,-1.0943 2.0401,-1.06492 3.28246,0.17743 1.3098,1.3098 1.61841,1.31181 2.5654,0.0167 0.79876,-1.09236 1.71553,-1.23579 3.55342,-0.55591 1.36231,0.50395 3.25894,0.71177 4.21473,0.46183 1.33415,-0.34889 1.90712,0.39324 2.46673,3.19502 0.40091,2.0072 0.62652,4.09946 0.50135,4.64946 -0.12517,0.55 0.58189,-0.0241 1.57123,-1.27572 1.63781,-2.07204 1.97567,-2.14201 3.7751,-0.7818 1.08696,0.82165 1.45593,1.50822 0.81992,1.52572 -2.59245,0.0713 0.18299,3.79782 5.98766,8.03952 4.04749,2.95765 6.28507,5.32812 6.50708,6.89352 0.31862,2.24662 0.10376,2.35433 -3.68307,1.84641 l -4.02144,-0.53938 -0.79143,9.14586 c -0.43528,5.03023 -0.8029,9.59587 -0.81692,10.14587 -0.014,0.55 1.96456,1.225 4.39685,1.5 2.43229,0.275 4.60147,1.04505 4.8204,1.71122 0.29322,0.89221 -0.9374,1.05306 -4.67234,0.61071 l -5.07041,-0.60051 0,5.5575 c 0,3.05663 -0.30147,6.34313 -0.66994,7.30334 -0.44414,1.1574 -0.29111,1.5117 0.45401,1.05119 1.43469,-0.88669 6.21593,0.28269 6.21593,1.52027 0,0.52915 -1.52325,0.65114 -3.5,0.2803 -3.40208,-0.63823 -3.5,-0.5679 -3.5,2.51371 0,1.85889 -0.41365,2.91465 -1,2.55227 -0.55,-0.33992 -1,-1.6654 -1,-2.94552 0,-1.85998 -0.65091,-2.42302 -3.24058,-2.8031 -4.16942,-0.61194 -5.37384,1.02963 -6.01122,8.19303 -0.74409,8.36262 0.0444,12.032 2.6153,12.17159 1.99535,0.10834 2.00601,0.14908 0.16143,0.61667 -1.08628,0.27537 -2.53447,1.23567 -3.21819,2.134 -1.13974,1.49748 -1.24578,1.48778 -1.27494,-0.11667 -0.0219,-1.20589 -0.88683,-1.78586 -2.7818,-1.86535 -1.5125,-0.0634 -3.425,-0.18737 -4.25,-0.2754 -3.51886,-0.37547 -5,1.37996 -5,5.92593 0,4.27433 0.12547,4.46482 2.94098,4.46482 1.61754,0 3.2191,0.45 3.55902,1 0.37325,0.60393 -0.98962,1 -3.44098,1 -2.56433,0 -4.07022,0.4603 -4.08943,1.25 -0.0169,0.69372 -0.48401,0.47121 -1.04969,-0.5 -0.72912,-1.25182 -2.28616,-1.75 -5.46959,-1.75 -3.78364,0 -4.45031,0.2996 -4.45031,2 0,1.1 -0.51545,2 -1.14545,2 -0.8386,0 -0.95787,-3.61634 -0.44523,-13.5 0.63318,-12.20764 0.54084,-13.5 -0.96458,-13.5 -0.91563,0 -4.39961,-1.45765 -7.74217,-3.23921 -4.35268,-2.31996 -6.80462,-4.43941 -8.63998,-7.46839 l -2.56259,-4.22918 -6.67668,-0.0316 c -5.47406,-0.0259 -6.77174,-0.34682 -7.20447,-1.78161 -0.2903,-0.9625 -0.40454,3.25437 -0.25388,9.37081 0.23942,9.72021 0.61305,11.81398 2.96664,16.62454 2.50747,5.12509 8.81891,11.99019 14.66839,15.95516 2.46022,1.66762 2.46478,1.69542 0.28659,1.74704 -1.37091,0.0325 -4.64566,-2.22279 -8.60331,-5.92498 z m 36.68808,-3.71529 c 0.35376,-2.58099 0.25107,-5.08485 -0.22821,-5.56413 -0.47928,-0.47928 -2.84506,-0.73006 -5.25729,-0.55729 l -4.38586,0.31414 -0.30226,5.25 -0.30226,5.25 4.91634,0 4.91633,0 0.64321,-4.69272 z m 11.21043,-7.30728 c 2.30959,0 2.41821,-0.29196 2.41821,-6.5 0,-5.89465 -0.93792,-8.0275 -2.45245,-5.57694 -0.31377,0.50769 -1.91907,1.21927 -3.56734,1.58128 -3.42501,0.75226 -4.98021,3.04955 -4.98021,7.35659 0,2.9993 1.87604,4.3661 4.83179,3.52021 0.73248,-0.20963 2.41998,-0.38114 3.75,-0.38114 z m -10.58179,-1.375 c 0,-0.75625 0.28125,-2.78125 0.625,-4.5 l 0.625,-3.125 -5.625,0 -5.625,0 0,3.93358 c 0,3.52352 0.28668,3.977 2.75,4.35017 5.61926,0.85124 7.25,0.70307 7.25,-0.65875 z m 8.3916,-11.90639 c 7.90902,-4.38002 10.23667,-14.1916 5.74549,-24.21861 -4.33736,-9.68361 -12.26618,-15.5 -21.12937,-15.5 -6.62352,0 -11.51759,2.1256 -16.80171,7.29733 -8.14236,7.96918 -8.9275,19.10314 -1.87141,26.53799 8.19519,8.63511 24.12044,11.38617 34.057,5.88329 z m -27.69036,-25.35071 c -1.57471,-1.57471 -0.64005,-3.49831 1.54876,-3.18745 1.2375,0.17575 2.25,0.98839 2.25,1.80586 0,1.58875 -2.63373,2.54662 -3.79876,1.38159 z m 43.63398,10.94526 c 0.34343,-3.67777 0.521,-6.78481 0.3946,-6.90454 -0.66085,-0.62598 -6.26612,-0.73126 -6.47982,-0.12171 -0.1375,0.3922 -0.25,3.63809 -0.25,7.21309 0,6.4824 0.008,6.5 2.8554,6.5 2.79359,0 2.86891,-0.14473 3.47982,-6.68684 z m -74.94221,-0.89495 c 1.04098,-2.71275 0.68469,-3.41821 -1.72634,-3.41821 -3.2822,0 -3.94203,1.03825 -2.01386,3.16885 2.03259,2.24599 2.95054,2.30719 3.7402,0.24936 z m 2.50655,-12.83806 c -0.99866,-0.96389 -6.26325,-0.96683 -6.5878,-0.004 -0.19951,0.59206 0.86465,2.39206 2.36479,4 l 2.72753,2.92355 0.94752,-3.2671 c 0.52114,-1.79691 0.76773,-3.44064 0.54796,-3.65275 z m 73.62936,-5.12457 c 0.39357,-5.24943 0.54807,-9.68479 0.34333,-9.85636 -0.20474,-0.17156 -1.79099,-0.58157 -3.525,-0.91113 -3.69044,-0.70138 -3.81509,-0.40839 -4.87883,11.46766 -0.74078,8.27038 -0.65545,8.41393 5.18826,8.72825 2.01983,0.10864 2.20208,-0.48961 2.87224,-9.42842 z m -10.06521,-3.70558 0.70693,-7.75 -3.45751,0 c -3.26686,0 -3.49318,0.22303 -4.10428,4.04467 -0.57279,3.582 -0.27397,4.48873 2.61228,7.92657 1.79248,2.13505 3.32129,3.80245 3.39735,3.70533 0.0761,-0.0971 0.45642,-3.66407 0.84523,-7.92657 z m -8.56339,-7 c 0.079,-1.38648 -0.716,-1.75 -3.827,-1.75 -5.40488,0 -5.95246,2.74126 -1.10859,5.5498 l 3.53527,2.04981 0.65032,-2.04981 c 0.35768,-1.12739 0.69518,-2.8373 0.75,-3.7998 z m 27.01635,-2.03297 c -0.22917,-0.15563 -1.15162,-0.84212 -2.04989,-1.52552 -1.33145,-1.01297 -1.74138,-0.96069 -2.21861,0.28297 -0.43345,1.12953 0.0987,1.52552 2.04988,1.52552 1.44941,0 2.44778,-0.12734 2.21862,-0.28297 z m -6.91667,-3.19135 c 0,-1.75435 -0.89997,-2.93971 -3.09293,-4.07374 -1.70111,-0.87967 -3.21242,-1.45373 -3.35846,-1.27568 -0.14604,0.17806 -0.52593,2.01124 -0.8442,4.07374 l -0.57867,3.75 3.93713,0 c 3.52204,0 3.93713,-0.26087 3.93713,-2.47432 z m -18.34456,-3.98675 c 1.06922,-5.89891 0.6661,-6.53893 -4.11851,-6.53893 -1.88641,0 -2.50047,0.79812 -3.41822,4.44282 -1.78034,7.07037 -1.6055,7.55718 2.71408,7.55718 l 3.8328,0 0.98985,-5.46107 z m 8.6487,1.23021 c 0.66037,-4.92345 0.89018,-4.43128 -2.46191,-5.2726 -2.83544,-0.71165 -2.98992,-0.48942 -4.34703,6.25346 -0.63695,3.16472 -0.56365,3.25 2.79368,3.25 3.29768,0 3.47249,-0.18419 4.01526,-4.23086 z m -5.11789,80.48086 c 0.2631,-1.38305 1.69385,-1.86189 6.82333,-2.2836 3.56973,-0.29349 8.06542,-0.23274 9.99042,0.135 l 3.5,0.6686 -3.20031,0.115 c -1.80455,0.0648 -3.59313,0.81694 -4.10101,1.72446 -0.82784,1.47928 -0.95065,1.47928 -1.5183,0 -0.85103,-2.21774 -9.68038,-2.31758 -9.68038,-0.10946 0,0.825 -0.483,1.5 -1.07332,1.5 -0.59033,0 -0.92352,-0.7875 -0.74043,-1.75 z m 11.81375,-7.19098 c 0,-1.06754 0.45,-2.2191 1,-2.55902 0.56716,-0.35052 1,0.48962 1,1.94098 0,1.40746 -0.45,2.55902 -1,2.55902 -0.55,0 -1,-0.87344 -1,-1.94098 z m 11.09019,-1.80902 -0.0902,-4.25 -4.5,0 c -2.475,0 -4.5,0.45 -4.5,1 0,0.55 -0.4875,1 -1.08333,1 -0.59584,0 -0.8984,-0.5625 -0.67236,-1.25 0.23185,-0.70516 2.77442,-1.46794 5.83333,-1.75 l 5.42236,-0.5 0.29135,-8.91543 c 0.21085,-6.45226 -0.0654,-9.14601 -1,-9.75 -1.0297,-0.66547 -0.98743,-1.03019 0.20865,-1.80002 1.29988,-0.83665 1.53733,0.69694 1.77984,11.49518 0.15391,6.85334 -0.143,13.9253 -0.65981,15.71545 l -0.93965,3.25482 -0.0902,-4.25 z m -12.09019,-83.25 c 0,-0.55 0.9,-1 2,-1 1.1,0 2,0.45 2,1 0,0.55 -0.9,1 -2,1 -1.1,0 -2,-0.45 -2,-1 z"/>
    <path style="fill:#5b625f" id="path4448" d="m 209.9587,535.79156 c -8.38938,-7.76708 -14.05642,-20.47003 -14.05642,-31.50812 0,-2.15365 -1.00234,-3.96326 -3.5,-6.31886 -4.24259,-4.00127 -4.37862,-5.40686 -0.65916,-6.81079 2.79174,-1.05377 2.80798,-1.10516 0.93942,-2.97372 -1.16151,-1.16151 -1.78056,-2.94795 -1.59084,-4.59084 0.26277,-2.27539 0.77242,-2.67653 3.31058,-2.60571 1.65,0.046 3.6869,0.39309 4.52644,0.77121 1.14665,0.51643 1.94512,-0.44217 3.20916,-3.85273 0.9255,-2.49711 3.30682,-6.98701 5.29182,-9.97754 10.72295,-16.1548 28.95812,-22.79858 49.36947,-17.98721 11.43576,2.69565 27.10311,12.33026 27.10311,16.66703 0,1.81817 -0.45882,1.99733 -3.92455,1.53248 l -3.92454,-0.5264 -0.64713,7.64473 c -0.35591,4.20459 -0.72737,8.76972 -0.82545,10.14472 -0.1415,1.98368 0.33799,2.55782 2.32167,2.77995 4.65861,0.52168 7,1.25487 7,2.19199 0,0.53289 -2.14676,0.67958 -5,0.34165 l -5,-0.59217 0,5.5575 c 0,3.05663 -0.25594,6.22447 -0.56875,7.03964 -0.32932,0.8582 -0.0136,1.45777 0.75,1.42425 3.53102,-0.15498 5.81875,0.35712 5.81875,1.3025 0,0.65305 -1.31343,0.79892 -3.5,0.38871 -3.40208,-0.63823 -3.5,-0.5679 -3.5,2.51371 0,1.85889 -0.41365,2.91465 -1,2.55227 -0.55,-0.33992 -1,-1.6654 -1,-2.94552 0,-1.85998 -0.65091,-2.42302 -3.24058,-2.8031 -4.16942,-0.61194 -5.37384,1.02963 -6.01122,8.19303 -0.74409,8.36262 0.0444,12.032 2.6153,12.17159 2.01571,0.10944 2.02343,0.14248 0.1365,0.58436 -1.1,0.2576 -2.5625,1.19141 -3.25,2.07513 -1.14064,1.4662 -1.25,1.45882 -1.25,-0.0844 0,-1.15024 -0.87956,-1.72802 -2.75,-1.80648 -1.5125,-0.0634 -3.425,-0.18737 -4.25,-0.2754 -3.51886,-0.37547 -5,1.37996 -5,5.92593 0,4.27433 0.12547,4.46482 2.94098,4.46482 1.61754,0 3.2191,0.45 3.55902,1 0.37325,0.60393 -0.98962,1 -3.44098,1 -2.56433,0 -4.07022,0.4603 -4.08943,1.25 -0.0169,0.69372 -0.48401,0.47121 -1.04969,-0.5 -1.35254,-2.32213 -9.9199,-2.53804 -9.9199,-0.24996 0,0.825 -0.50019,1.5 -1.11154,1.5 -0.79406,0 -0.91056,-3.64169 -0.40788,-12.75 l 0.70365,-12.75 -5.11233,-1.79831 c -12.61367,-4.43695 -18.17873,-14.59535 -14.4646,-26.4035 3.05155,-9.70168 11.43487,-16.32496 22.49712,-17.77396 l 4.60442,-0.60311 1.64558,-7.48898 c 2.49004,-11.33207 2.74867,-10.82134 -5.07403,-10.01989 -11.54551,1.18288 -20.39313,6.52493 -28.42432,17.16216 -11.39681,15.09496 -14.94568,40.6197 -7.77008,55.88513 1.89675,4.03518 10.84932,13.4404 15.45044,16.23165 1.90812,1.15756 1.90164,1.19286 -0.22943,1.25 -1.32973,0.0357 -4.57754,-2.14886 -8.25058,-5.54944 z m 36.31494,-4.08447 c 0.35376,-2.58099 0.25107,-5.08485 -0.22821,-5.56413 -0.47928,-0.47928 -2.84506,-0.73006 -5.25729,-0.55729 l -4.38586,0.31414 -0.30226,5.25 -0.30226,5.25 4.91634,0 4.91633,0 0.64321,-4.69272 z m 11.21043,-7.30728 c 2.3323,0 2.41821,-0.2542 2.41821,-7.15499 0,-6.73302 -0.10321,-7.06436 -1.75,-5.61828 -0.9625,0.84519 -2.875,1.87001 -4.25,2.27738 -3.99967,1.18497 -5,2.49441 -5,6.54501 0,3.83257 1.5914,5.25937 4.83179,4.33202 0.73248,-0.20963 2.41998,-0.38114 3.75,-0.38114 z m -10.58179,-1.375 c 0,-0.75625 0.28125,-2.78125 0.625,-4.5 l 0.625,-3.125 -5.625,0 -5.625,0 0,3.93358 c 0,3.52352 0.28668,3.977 2.75,4.35017 5.61926,0.85124 7.25,0.70307 7.25,-0.65875 z m 8.3916,-11.90639 c 7.90902,-4.38002 10.23667,-14.1916 5.74549,-24.21861 -4.33736,-9.68361 -12.26618,-15.5 -21.12937,-15.5 -6.62352,0 -11.51759,2.1256 -16.80171,7.29733 -8.14236,7.96918 -8.9275,19.10314 -1.87141,26.53799 8.19519,8.63511 24.12044,11.38617 34.057,5.88329 z m -27.69036,-25.35071 c -1.57471,-1.57471 -0.64005,-3.49831 1.54876,-3.18745 1.2375,0.17575 2.25,0.98839 2.25,1.80586 0,1.58875 -2.63373,2.54662 -3.79876,1.38159 z m 43.70142,11.00618 c 0.37336,-3.64425 0.548,-6.75254 0.38809,-6.90731 -0.72442,-0.70111 -6.31751,-0.88648 -6.54075,-0.21677 -0.1375,0.4125 -0.25,3.675 -0.25,7.25 0,6.48586 0.006,6.5 2.86191,6.5 2.79295,0 2.87826,-0.15964 3.54075,-6.62592 z m -75.00965,-0.95587 c 1.04098,-2.71275 0.68469,-3.41821 -1.72634,-3.41821 -3.2822,0 -3.94203,1.03825 -2.01386,3.16885 2.03259,2.24599 2.95054,2.30719 3.7402,0.24936 z m 2.50655,-12.83806 c -0.99866,-0.96389 -6.26325,-0.96683 -6.5878,-0.004 -0.19951,0.59206 0.86465,2.39206 2.36479,4 l 2.72753,2.92355 0.94752,-3.2671 c 0.52114,-1.79691 0.76773,-3.44064 0.54796,-3.65275 z m 73.45798,-1.72684 c 0.35335,-3.38068 0.64246,-7.82443 0.64246,-9.875 0,-3.38445 -0.29142,-3.78659 -3.15972,-4.36025 -1.73785,-0.34757 -3.3757,-0.41597 -3.63967,-0.152 -0.26397,0.26397 -0.95015,4.57671 -1.52485,9.58386 -1.14745,9.9975 -0.77999,10.90416 4.43178,10.93477 2.45985,0.0145 2.64394,-0.33284 3.25,-6.13138 z m -9.44515,-11.60331 c 0.082,-3.04148 -0.12875,-3.25 -3.28458,-3.25 -3.16606,0 -3.41165,0.24675 -4.01768,4.03664 -0.56868,3.55631 -0.25665,4.52163 2.62219,8.11237 l 3.26768,4.07572 0.66239,-4.86236 c 0.36432,-2.67431 0.70182,-6.32487 0.75,-8.11237 z m -8.98268,-2 c 0.0612,-1.96006 -0.43137,-2.25 -3.82272,-2.25 -2.7688,0 -4.08482,0.49985 -4.55723,1.73092 -0.36532,0.95201 -0.30097,1.85453 0.14301,2.00559 0.44398,0.15107 2.15723,1.10227 3.80723,2.11379 2.69938,1.65483 3.06811,1.67932 3.67971,0.24441 0.37385,-0.87709 0.71135,-2.60721 0.75,-3.84471 z m 25.62769,-3.83169 c -1.52828,-1.1175 -2.10461,-1.15317 -2.71845,-0.16824 -0.51196,0.82147 -0.018,1.45118 1.44103,1.83702 3.03411,0.80238 3.61649,0.0416 1.27742,-1.66878 z m -5.5574,-1.95165 c 0,-1.68838 -0.93086,-2.89667 -3.09293,-4.01472 -1.70111,-0.87967 -3.21242,-1.45373 -3.35846,-1.27568 -0.14604,0.17806 -0.5217,1.98515 -0.83479,4.01577 -0.54788,3.55332 -0.44987,3.70451 2.60846,4.024 4.15939,0.43452 4.67772,0.12987 4.67772,-2.74937 z m -9.53617,-3.0915 c 0.63028,-3.88217 0.51016,-4.16487 -2.04172,-4.80535 -3.35972,-0.84324 -4.00286,-0.15742 -4.79543,5.11365 -0.60077,3.99549 -0.50541,4.19918 2.12214,4.53315 3.55948,0.45242 3.91478,0.0876 4.71501,-4.84145 z m -8.77193,-0.62516 c 0.59777,-2.8875 0.88508,-5.5875 0.63846,-6 -0.24662,-0.4125 -1.94342,-0.75 -3.77066,-0.75 -3.09664,0 -3.39825,0.30174 -4.44099,4.44282 -1.7782,7.06187 -1.6023,7.55718 2.68381,7.55718 3.78249,0 3.80825,-0.0277 4.88938,-5.25 z m 3.49435,81.5 c 0.2631,-1.38305 1.69385,-1.86189 6.82333,-2.2836 3.56973,-0.29349 8.06542,-0.23274 9.99042,0.135 l 3.5,0.6686 -3.20031,0.115 c -1.80455,0.0648 -3.59313,0.81694 -4.10101,1.72446 -0.82784,1.47928 -0.95065,1.47928 -1.5183,0 -0.85103,-2.21774 -9.68038,-2.31758 -9.68038,-0.10946 0,0.825 -0.483,1.5 -1.07332,1.5 -0.59033,0 -0.92352,-0.7875 -0.74043,-1.75 z m 11.81375,-7.19098 c 0,-1.06754 0.45,-2.2191 1,-2.55902 0.56716,-0.35052 1,0.48962 1,1.94098 0,1.40746 -0.45,2.55902 -1,2.55902 -0.55,0 -1,-0.87344 -1,-1.94098 z m 11.07029,-2.30902 -0.0703,-3.75 -4.5,0 c -2.475,0 -4.5,0.45 -4.5,1 0,0.55 -0.4875,1 -1.08333,1 -0.59584,0 -0.8984,-0.5625 -0.67236,-1.25 0.23185,-0.70516 2.77442,-1.46794 5.83333,-1.75 l 5.42236,-0.5 0.28753,-9.25 c 0.18363,-5.90779 -0.0874,-9.25 -0.75,-9.25 -0.57064,0 -1.03753,-0.45 -1.03753,-1 0,-0.55 0.675,-1 1.5,-1 1.25858,0 1.48869,2.05209 1.42971,12.75 -0.0387,7.0125 -0.45702,13.65 -0.92971,14.75 -0.68942,1.60437 -0.87333,1.2582 -0.92971,-1.75 z"/>
    <path style="fill:#161817" id="path4446" d="m 260.26471,514.0998 c 0.48071,-3.45927 0.3472,-3.7426 -1.48898,-3.15983 -1.88338,0.59777 -1.86318,0.46407 0.30476,-2.01765 4.64078,-5.31246 5.87136,-12.29626 3.4006,-19.29913 -4.72382,-13.38873 -15.47501,-20.63232 -27.05508,-18.22831 -11.18832,2.32269 -19.03472,11.61939 -18.99413,22.50493 0.026,6.96421 1.796,10.27452 7.83153,14.64664 2.16642,1.56935 3.60583,2.85336 3.19868,2.85336 -1.90283,0 -8.66189,-5.87907 -10.50367,-9.13616 -2.49894,-4.41921 -2.72535,-12.32359 -0.50546,-17.64596 3.34653,-8.02357 13.71859,-15.18818 22.01648,-15.20811 l 4.06715,-0.01 1.76232,-7.75 c 0.96928,-4.2625 1.98188,-8.5375 2.25023,-9.5 0.42273,-1.51621 -0.25918,-1.75 -5.10446,-1.75 -16.18663,0 -30.27852,11.48278 -38.44315,31.32541 -2.66005,6.46476 -3.32291,9.64411 -3.81225,18.28533 -0.60236,10.6369 -2.287,15.52233 -2.287,6.63228 0,-4.31457 -0.40238,-5.23126 -3.5,-7.97369 -4.18165,-3.70215 -4.57716,-6.78216 -0.98663,-7.68333 l 2.51337,-0.63082 -2.1104,-2.85447 c -2.68457,-3.63107 -2.21305,-6.54695 1.09388,-6.76452 2.20769,-0.14524 2.23485,-0.10904 0.23978,0.31956 -1.29569,0.27834 -2.25,1.22819 -2.25,2.23949 0,1.71114 4.60354,6.8635 5.38357,6.02537 0.21529,-0.23134 1.81873,-3.79561 3.56319,-7.92061 7.63252,-18.04807 17.48828,-27.53406 32.73284,-31.50476 7.58267,-1.97504 14.29007,-1.8634 22.8204,0.37983 9.67605,2.54452 13.73624,4.40436 21.12426,9.67635 4.25933,3.03939 6.37574,5.22593 6.37574,6.587 0,1.81421 -0.42721,1.9652 -3.9001,1.37846 l -3.90011,-0.65892 -0.5503,3.82102 c -0.30266,2.10156 -0.82846,6.81205 -1.16843,10.46776 l -0.61813,6.64673 5.06853,0.6971 c 2.7877,0.38341 5.06854,1.03354 5.06854,1.44473 0,0.4112 -2.1375,0.41756 -4.75,0.0142 -2.6125,-0.40341 -4.79287,-0.66957 -4.84527,-0.59146 -0.66459,0.99066 -2.15942,16.86409 -1.73938,18.47031 0.31235,1.19444 0.11543,2.1717 -0.43761,2.1717 -0.55303,0 -0.98463,-0.5625 -0.95909,-1.25 0.15786,-4.25065 -0.27964,-4.75 -4.16166,-4.75 -4.34826,0 -5.09796,0.9999 -5.1223,6.83179 -0.008,2.01751 -0.49569,4.34321 -1.08282,5.16821 -0.80432,1.13019 -0.93732,0.56313 -0.53944,-2.30001 z m 11.63757,-17.593 c 0,-7.27773 -0.5453,-8.10687 -5.33179,-8.10709 -2.03153,-9e-5 -2.16821,0.47262 -2.16821,7.4987 l 0,7.4988 3.75,0.001 3.75,10e-4 0,-6.89301 z m -75,-1.60699 c 0,-2.86256 -1.32111,-3.85025 -4.00895,-2.99716 -2.63586,0.83659 -2.52395,2.89545 0.25895,4.76377 2.74237,1.84111 3.75,1.36642 3.75,-1.76661 z m 75.3932,-11.75 c 1.47041,-12.117 1.45857,-15.5929 -0.0551,-16.17376 -2.60172,-0.99837 -6.38265,-0.62662 -6.85255,0.67376 -0.72585,2.00873 -2.13416,18.76805 -1.62029,19.28192 0.25744,0.25744 2.1655,0.46808 4.24013,0.46808 3.69015,0 3.78326,-0.0923 4.28781,-4.25 z m -8.7718,-16.36734 c -0.0668,-0.0645 -1.77911,-0.41684 -3.8052,-0.78289 l -3.68379,-0.66556 -0.67505,4.50156 c -0.61405,4.09477 -0.37174,4.88452 2.68136,8.73938 l 3.35641,4.23781 1.12383,-7.95648 c 0.61811,-4.37606 1.0692,-8.00928 1.00244,-8.07382 z m -9.63671,1.30984 c 0.0147,-2.68649 -0.16787,-2.79424 -4.23469,-2.5 -5.41835,0.39203 -5.75984,2.97698 -0.75,5.67723 3.92199,2.11392 4.95943,1.45266 4.98469,-3.17723 z m 26.51531,-3.6925 c -2.10553,-2.32658 -4.5,-2.63165 -4.5,-0.57332 0,1.3431 1.69504,2.19229 4.90499,2.45732 1.0487,0.0866 0.94601,-0.39116 -0.40499,-1.884 z m -6.5,-1.97432 c 0,-2.31325 -0.68744,-3.32981 -3.09293,-4.57374 -1.70111,-0.87967 -3.23598,-1.45373 -3.41082,-1.27568 -0.17483,0.17806 -0.62616,1.97429 -1.00295,3.99162 -0.61743,3.30572 -0.45344,3.71192 1.66081,4.11382 5.3606,1.01901 5.84589,0.83173 5.84589,-2.25602 z m -9.625,-1.15068 c 1.10094,-5.50471 0.75683,-6.6334 -2.3529,-7.71745 -3.52883,-1.23016 -3.59188,-1.15183 -4.50161,5.59245 l -0.70817,5.25 3.46884,0 c 3.0851,0 3.53798,-0.3457 4.09384,-3.125 z m -8.35854,-3.4543 c 0.63705,-3.06862 1.00645,-5.70893 0.8209,-5.86734 -0.18555,-0.15842 -1.96895,-0.58264 -3.96311,-0.9427 l -3.62574,-0.65466 -1.16947,4.772 c -0.64321,2.6246 -1.40445,5.5595 -1.69165,6.522 -0.44298,1.48462 0.1597,1.75 3.97432,1.75 l 4.49649,0 1.15826,-5.5793 z m -4.01646,55.5793 c 0.825,-0.53316 1.95,-0.96937 2.5,-0.96937 0.55,0 0.325,0.43621 -0.5,0.96937 -0.825,0.53316 -1.95,0.96937 -2.5,0.96937 -0.55,0 -0.325,-0.43621 0.5,-0.96937 z m 29,-8 c 0,-0.55 0.675,-1 1.5,-1 0.825,0 1.5,0.45 1.5,1 0,0.55 -0.675,1 -1.5,1 -0.825,0 -1.5,-0.45 -1.5,-1 z m -5.75,-0.68933 c 0.9625,-0.25152 2.5375,-0.25152 3.5,0 0.9625,0.25153 0.175,0.45733 -1.75,0.45733 -1.925,0 -2.7125,-0.2058 -1.75,-0.45733 z M 228.0334,485.0578 c -1.22366,-1.47442 -0.5399,-2.65799 1.53555,-2.65799 0.73333,0 1.33333,0.9 1.33333,2 0,2.30734 -1.26017,2.59637 -2.86888,0.65799 z"/>
   </g>
  </g>
 </g>
</svg>
