<?xml version="1.0" encoding="UTF-8" standalone="no"?>
<svg
   xmlns:dc="http://purl.org/dc/elements/1.1/"
   xmlns:cc="http://creativecommons.org/ns#"
   xmlns:rdf="http://www.w3.org/1999/02/22-rdf-syntax-ns#"
   xmlns:svg="http://www.w3.org/2000/svg"
   xmlns="http://www.w3.org/2000/svg"
   xmlns:sodipodi="http://sodipodi.sourceforge.net/DTD/sodipodi-0.dtd"
   xmlns:inkscape="http://www.inkscape.org/namespaces/inkscape"
   version="1.0"
   width="500"
   height="496.51758"
   viewBox="0 0 500 496.51758"
   id="svg1937"
   xml:space="preserve"
   sodipodi:version="0.32"
   inkscape:version="0.46"
   sodipodi:docname="scale.svg"
   inkscape:output_extension="org.inkscape.output.svg.inkscape"><metadata
   id="metadata8"><rdf:RDF><cc:Work
       rdf:about=""><dc:format>image/svg+xml</dc:format><dc:type
         rdf:resource="http://purl.org/dc/dcmitype/StillImage" /></cc:Work></rdf:RDF></metadata><defs
   id="defs6"><inkscape:perspective
     sodipodi:type="inkscape:persp3d"
     inkscape:vp_x="0 : 248.25879 : 1"
     inkscape:vp_y="0 : 1000 : 0"
     inkscape:vp_z="500 : 248.25879 : 1"
     inkscape:persp3d-origin="250 : 165.50586 : 1"
     id="perspective10" /></defs><sodipodi:namedview
   inkscape:window-height="721"
   inkscape:window-width="1024"
   inkscape:pageshadow="2"
   inkscape:pageopacity="0.0"
   guidetolerance="10.0"
   gridtolerance="10.0"
   objecttolerance="10.0"
   borderopacity="1.0"
   bordercolor="#666666"
   pagecolor="#ffffff"
   id="base"
   showgrid="false"
   inkscape:zoom="0.66245342"
   inkscape:cx="470.60548"
   inkscape:cy="248.25879"
   inkscape:window-x="-4"
   inkscape:window-y="-4"
   inkscape:current-layer="svg1937" />
<path
   d="M 397.15027,422.6413 L 542.08267,422.6413 L 464.27746,112.94444 L 397.15027,422.6413 z M 136.47948,545.83011 C 144.48851,513.79201 266.91733,506.92699 266.91733,506.92699 L 272.63835,104.17041 L 187.96812,104.17041 C 187.96812,104.17041 147.92101,106.4589 125.03746,95.01688 C 135.33498,136.20799 200.55415,403.1857 200.55415,424.54477 C 200.55415,442.85182 169.65652,469.16839 119.31644,469.16839 C 61.722251,469.16839 33.501709,443.61684 33.501709,422.25677 C 33.501709,395.94019 117.02793,92.728879 117.02793,92.728879 C 117.02793,92.728879 112.0087,83.597617 112.0087,79.550353 C 112.0087,75.50309 112.0087,69.029189 120.58592,69.029189 C 129.16263,69.029189 149.06552,78.998339 151.7335,78.998339 C 154.40199,78.998339 273.40287,78.998339 273.40287,78.998339 C 273.40287,78.998339 272.63835,75.947839 277.21536,75.947839 C 277.21536,67.556307 274.25189,31.324217 292.55894,31.324217 C 310.86599,31.324217 307.90303,67.556307 307.90303,75.947839 C 312.48004,75.947839 311.71501,78.998339 311.71501,78.998339 C 311.71501,78.998339 430.71639,78.998339 433.38388,78.998339 C 436.05236,78.998339 455.95524,69.029189 464.53247,69.029189 C 473.10969,69.029189 473.10969,75.50309 473.10969,79.550353 C 473.10969,83.597617 468.09046,92.728879 468.09046,92.728879 C 468.09046,92.728879 551.61618,395.94019 551.61618,422.25677 C 551.61618,443.61684 523.39614,469.16839 465.80145,469.16839 C 415.46136,469.16839 384.56373,442.85182 384.56373,424.54477 C 384.56373,403.1857 449.78341,136.20799 460.08094,95.01688 C 437.19687,106.4589 397.15027,104.17041 397.15027,104.17041 L 312.48004,104.17041 L 318.20055,506.92699 C 318.20055,506.92699 440.62938,513.79201 448.63891,545.83011 C 416.60182,545.83011 168.51656,545.83011 136.47948,545.83011 z M 120.84043,112.94444 L 43.035218,422.6413 L 187.96812,422.6413 L 120.84043,112.94444 z"
   style="fill:#000000"
   id="path3"
   inkscape:export-filename="D:\Projectos\BabyFeed\src\BabyFeed\icons\weight.png"
   inkscape:export-xdpi="11.0238"
   inkscape:export-ydpi="11.0238" />
<path
   d="M 397.44211,420.75564 L 542.37451,420.75564 L 464.5693,111.05878 L 397.44211,420.75564 z M 136.77132,543.94445 C 144.78035,511.90635 267.20916,505.04133 267.20916,505.04133 L 272.93018,102.28475 L 188.25995,102.28475 C 188.25995,102.28475 148.21285,104.57324 125.3293,93.131224 C 135.62682,134.32233 200.84598,401.30004 200.84598,422.65911 C 200.84598,440.96616 169.94836,467.28273 119.60828,467.28273 C 62.014087,467.28273 33.793537,441.73118 33.793537,420.37111 C 33.793537,394.05453 117.31977,90.843224 117.31977,90.843224 C 117.31977,90.843224 112.30054,81.711964 112.30054,77.664694 C 112.30054,73.617434 112.30054,67.143534 120.87776,67.143534 C 129.45447,67.143534 149.35736,77.112684 152.02534,77.112684 C 154.69383,77.112684 273.6947,77.112684 273.6947,77.112684 C 273.6947,77.112684 272.93018,74.062184 277.50719,74.062184 C 277.50719,65.670654 274.54372,29.438564 292.85077,29.438564 C 311.15782,29.438564 308.19486,65.670654 308.19486,74.062184 C 312.77187,74.062184 312.00684,77.112684 312.00684,77.112684 C 312.00684,77.112684 431.00823,77.112684 433.67572,77.112684 C 436.3442,77.112684 456.24708,67.143534 464.82431,67.143534 C 473.40153,67.143534 473.40153,73.617434 473.40153,77.664694 C 473.40153,81.711964 468.3823,90.843224 468.3823,90.843224 C 468.3823,90.843224 551.90802,394.05453 551.90802,420.37111 C 551.90802,441.73118 523.68798,467.28273 466.09329,467.28273 C 415.7532,467.28273 384.85557,440.96616 384.85557,422.65911 C 384.85557,401.30004 450.07525,134.32233 460.37278,93.131224 C 437.48871,104.57324 397.44211,102.28475 397.44211,102.28475 L 312.77187,102.28475 L 318.49238,505.04133 C 318.49238,505.04133 440.92122,511.90635 448.93075,543.94445 C 416.89366,543.94445 168.8084,543.94445 136.77132,543.94445 z M 121.13227,111.05878 L 43.327047,420.75564 L 188.25995,420.75564 L 121.13227,111.05878 z"
   style="fill:#ffffff;stroke:#000000;stroke-width:8.00000003000000070;stroke-miterlimit:4;stroke-dasharray:none"
   id="path2387"
   inkscape:export-filename="D:\Projectos\BabyFeed\src\BabyFeed\icons\weight.png"
   inkscape:export-xdpi="11.0238"
   inkscape:export-ydpi="11.0238" /></svg>